<svg width="33" height="23" viewBox="0 0 33 23" fill="none" xmlns="http://www.w3.org/2000/svg">
    <g id="logos:mastercard">
        <path id="Vector" d="M12.0266 1.95361H20.9405V16.3143H12.0266V1.95361Z" fill="#FF5F00"/>
        <path id="Vector_2" d="M12.5927 9.134C12.5927 6.21624 14.1208 3.62822 16.4694 1.95361C14.7434 0.735769 12.5645 0 10.1875 0C4.55593 0 0 4.08487 0 9.134C0 14.1831 4.55593 18.268 10.1873 18.268C12.5644 18.268 14.7433 17.5322 16.4694 16.3143C14.1208 14.6651 12.5927 12.0518 12.5927 9.134Z" fill="#EB001B"/>
        <path id="Vector_3" d="M32.9673 9.134C32.9673 14.183 28.4113 18.268 22.7799 18.268C20.4029 18.268 18.224 17.5322 16.4978 16.3143C18.8748 14.6398 20.3747 12.0518 20.3747 9.134C20.3747 6.21624 18.8465 3.62822 16.4978 1.95361C18.2239 0.735769 20.4029 0 22.7799 0C28.4113 0 32.9673 4.1103 32.9673 9.134Z" fill="#F79E1B"/>
    </g>
</svg>
