<svg width="24" height="24" viewBox="0 0 24 24" fill="none" xmlns="http://www.w3.org/2000/svg">
<g id="Linear / School / Notebook Minimalistic">
<path id="Vector" d="M7.4155 3.87264L7.54329 3.38836C8.34181 3.64996 9.20181 4.04262 9.95511 4.42458L9.72136 4.86666C8.98851 4.4954 8.16818 4.12171 7.4155 3.87264ZM21.6777 4.43332C21.5185 3.89981 21.1105 3.48494 20.5932 3.33128L20.5751 2.81057C21.3857 2.98021 22.0093 3.62429 22.1939 4.43332H21.6777ZM19.5738 2.78995L19.5912 3.28975C18.7559 3.33464 17.8387 3.42573 17.056 3.60148L16.9123 3.12142C17.7465 2.93079 18.7133 2.83583 19.5738 2.78995ZM21.75 5.43332H22.25V15.6437H21.75V5.43332ZM21.6774 16.6437H22.1944C22.0028 17.4912 21.3351 18.1583 20.4966 18.3896L20.4645 17.8772C21.0487 17.682 21.5064 17.2189 21.6774 16.6437ZM13.2879 20.495C12.4589 20.8007 11.5411 20.8007 10.7121 20.495L10.9499 20.049C11.6285 20.2827 12.3715 20.2827 13.0501 20.049L13.2879 20.495ZM13.9532 19.6172C14.7282 19.2206 15.6258 18.8064 16.4567 18.5343L16.5845 19.0186C15.8005 19.278 14.9434 19.6725 14.1884 20.0585L13.9532 19.6172ZM17.5513 18.7632L17.4235 18.2789C18.0695 18.1474 18.7947 18.0632 19.4708 18.0089L19.502 18.5081C18.8481 18.5607 18.1594 18.6412 17.5513 18.7632ZM4.52922 18.0089C5.20529 18.0632 5.93046 18.1474 6.57646 18.2789L6.44867 18.7632C5.84058 18.6412 5.15186 18.5607 4.498 18.5081L4.52922 18.0089ZM7.4155 19.0186L7.5433 18.5343C8.37416 18.8064 9.27181 19.2206 10.0468 19.6172L9.81159 20.0585C9.0566 19.6725 8.19946 19.278 7.4155 19.0186ZM3.50346 18.3896C2.66486 18.1583 1.99717 17.4912 1.80556 16.6437H2.32265C2.4936 17.2189 2.95128 17.682 3.53551 17.8772L3.50346 18.3896ZM2.25 15.6437H1.75V5.49792H2.25V15.6437ZM1.80603 4.49792C1.99643 3.66292 2.65372 3.00531 3.49503 2.85419L3.46309 3.37382C2.92027 3.51741 2.48736 3.94397 2.32226 4.49792H1.80603ZM4.46585 3.35956L4.49653 2.86041C5.18195 2.91456 5.92011 2.99942 6.57646 3.13297L6.44867 3.61723C5.83053 3.49324 5.12915 3.41221 4.46585 3.35956ZM10.6234 5.30004L10.8597 4.8532C11.5841 5.09991 12.381 5.081 13.0965 4.80341L13.3495 5.24066C12.4827 5.59777 11.5044 5.62148 10.6234 5.30004ZM14.2344 4.77323L13.9839 4.34036C14.6062 3.99695 15.299 3.65232 15.9543 3.40814L16.098 3.8882C15.4877 4.11822 14.8341 4.4427 14.2344 4.77323Z" fill="#1C274C" stroke="#EEFFEE"/>
<path id="Vector_2" d="M12 5.50049V20.5005" stroke="#EEFFEE" stroke-width="1.5"/>
</g>
</svg>
