<svg width="20" height="24" viewBox="0 0 20 24" fill="none" xmlns="http://www.w3.org/2000/svg">
<g id="PayPass icon" clip-path="url(#clip0_4141_3819)">
<path id="Vector" d="M15.143 1.28564C17.0237 4.5432 18.0139 8.23843 18.0139 11.9999C18.0139 15.7614 17.0237 19.4567 15.143 22.7142M10.4287 3.64279C11.8957 6.18368 12.668 9.06596 12.668 11.9999C12.668 14.9339 11.8957 17.8162 10.4287 20.3571M5.92871 5.80707C6.98945 7.66388 7.54789 9.77016 7.54789 11.9142C7.54789 14.0583 6.98945 16.1646 5.92871 18.0214M1.42871 8.14279C2.19318 9.29976 2.59847 10.6362 2.59847 11.9999C2.59847 13.3637 2.19318 14.7001 1.42871 15.8571" stroke="#17A1FA" stroke-width="2.57143" stroke-linecap="round"/>
</g>
<defs>
<clipPath id="clip0_4141_3819">
<rect width="20" height="24" fill="white"/>
</clipPath>
</defs>
</svg>
