<svg width="64" height="64" viewBox="0 0 64 64" fill="none" xmlns="http://www.w3.org/2000/svg">
<g id="Group 17">
<path id="Vector" d="M20.1801 50.4019C16.4661 47.9936 13.5504 44.5373 11.8021 40.4707C10.0539 36.404 9.55179 31.9101 10.3594 27.5579C11.1671 23.2057 13.248 19.1911 16.3389 16.0225C19.4298 12.8539 23.3916 10.6738 27.7223 9.75836C32.0531 8.84291 36.5582 9.23324 40.6669 10.88C44.7757 12.5267 48.3034 15.3557 50.8032 19.0088C53.303 22.6618 54.6624 26.9746 54.7094 31.4008C54.7564 35.827 53.4888 40.1677 51.0671 43.873C47.8299 48.8261 42.7616 52.2943 36.9724 53.5181C31.1831 54.7418 25.1448 53.6212 20.1801 50.4019Z" fill="#6E62E5"/>
<path id="Vector_2" opacity="0.5" d="M20.1801 50.4019C16.4661 47.9936 13.5504 44.5373 11.8021 40.4707C10.0539 36.404 9.55179 31.9101 10.3594 27.5579C11.1671 23.2057 13.248 19.1911 16.3389 16.0225C19.4298 12.8539 23.3916 10.6738 27.7223 9.75836C32.0531 8.84291 36.5582 9.23324 40.6669 10.88C44.7757 12.5267 48.3034 15.3557 50.8032 19.0088C53.303 22.6618 54.6624 26.9746 54.7094 31.4008C54.7564 35.827 53.4888 40.1677 51.0671 43.873C47.8299 48.8261 42.7616 52.2943 36.9724 53.5181C31.1831 54.7418 25.1448 53.6212 20.1801 50.4019Z" fill="white"/>
<path id="Vector_3" opacity="0.1" d="M11.2975 24.2176C12.0486 24.0522 11.6554 24.9322 13.1874 25.4472C14.6196 26.0135 15.934 26.8413 17.0634 27.8882L17.738 27.6837C18.413 27.4407 19.5771 30.1425 18.8202 30.8843C18.0633 31.6261 18.8202 30.8843 16.8903 29.808C14.9605 28.7317 16.8903 29.808 15.6704 30.7372C14.4505 31.6664 15.4872 31.7538 15.339 33.1165C15.3115 33.3005 15.3206 33.4881 15.3658 33.6686C15.411 33.849 15.4915 34.0188 15.6024 34.1681C15.7134 34.3174 15.8527 34.4432 16.0125 34.5386C16.1722 34.6339 16.3492 34.6967 16.5333 34.7234C17.2614 34.9229 17.7284 34.3512 18.2823 34.6834C18.8361 35.0157 18.9177 34.5553 19.2437 34.6163C19.5698 34.6772 19.7382 35.1208 19.9854 35.3731C20.2327 35.6254 20.3426 36.1646 20.7082 36.1106C21.0738 36.0566 21.094 35.9608 21.2485 35.8855C21.4319 36.0345 21.5977 36.2037 21.743 36.3901C21.8571 36.5065 21.835 36.7945 21.7379 36.8896C21.6867 36.9654 21.6207 37.0301 21.5439 37.0798C21.2731 37.1859 20.987 37.248 20.6966 37.2634C20.5507 37.2767 20.4044 37.2443 20.2778 37.1707C20.1511 37.0971 20.0505 36.986 19.9898 36.8528C19.8788 36.9202 19.7876 37.0158 19.7257 37.13C19.6638 37.2442 19.6333 37.3727 19.6373 37.5025L19.0287 36.8815C18.8766 36.7263 17.1582 37.5352 16.9261 37.6865C16.8428 37.7628 16.7808 37.8594 16.746 37.9668C16.7113 38.0742 16.705 38.1888 16.7278 38.2994C16.802 38.5692 17.1082 38.6876 17.3174 38.9011C17.5266 39.1145 17.3624 40.1505 17.8201 40.501C17.9511 40.5758 18.0933 40.6291 18.2412 40.6589L19.066 40.8017C19.1815 40.8489 19.306 40.8699 19.4305 40.8631C19.5428 40.7711 19.6467 40.6693 19.741 40.5588C19.7947 40.5231 19.8571 40.5029 19.9215 40.5001C19.9858 40.4974 20.0497 40.5123 20.1062 40.5433C19.7449 40.1745 20.6081 40.3177 20.7036 40.3763C21.2198 40.6313 21.6899 41.6545 22.0885 42.1389C22.1919 42.184 22.2737 42.2675 22.3167 42.3718C22.2693 42.4389 22.2102 42.4969 22.1421 42.5429C21.9845 42.9256 21.7885 43.308 21.6119 43.6713C21.4353 44.0346 20.6547 45.2181 19.9076 44.9991C19.1604 44.7802 18.8995 43.9706 18.2428 44.3099C18.1657 44.3502 18.0793 44.3692 17.9924 44.365C17.7428 44.3432 17.8624 43.9217 18.0755 43.7509C18.4404 43.5076 18.7564 43.1979 19.007 42.838C19.2034 42.4173 18.9981 41.8195 18.5758 41.7768C18.4951 42.1603 17.9191 42.116 17.6528 41.8443C17.3865 41.5726 17.2181 41.129 16.835 41.0098C16.6608 40.9695 16.4784 40.9839 16.3127 41.051C16.1469 41.1181 16.006 41.2347 15.9089 41.3848C15.7104 41.6912 15.5822 42.0377 15.5335 42.3994C15.758 42.4981 15.9531 42.6535 16.0993 42.8504C16.2456 43.0473 16.338 43.2789 16.3677 43.5223C16.4212 43.9264 16.339 44.4636 16.7217 44.6212C16.4822 44.6292 16.2439 44.659 16.0098 44.71C16.093 44.9734 16.1931 45.2312 16.3095 45.4817C16.3836 45.7515 16.3607 46.1163 16.0716 46.2095C15.9839 46.237 15.8897 46.236 15.8026 46.2067C14.8316 45.1528 13.9857 43.9901 13.2819 42.7418C14.1684 42.4817 15.3119 41.5133 14.4094 39.5442C13.0932 36.6871 14.4094 39.5442 11.4595 38.6305C10.6878 36.3875 10.2833 34.0346 10.2616 31.6626L11.7195 31.9079C13.196 32.211 12.3464 30.7229 12.3464 30.7229L11.1481 29.5002C10.5015 28.8404 10.5585 28.8986 10.3846 28.9929C10.504 27.3713 10.8103 25.7689 11.2975 24.2176Z" fill="black"/>
<path id="Vector_4" opacity="0.2" d="M35.7573 47.1176C35.8251 47.0321 35.9033 46.9554 35.9902 46.8894C36.5119 46.6064 36.9656 47.3412 37.4814 47.6346C38.59 48.2223 39.8751 46.5443 41.0811 46.9984C41.6552 47.2348 41.956 47.8911 42.53 48.1275C42.9926 48.2096 43.4635 48.2337 43.932 48.1993C44.3374 48.2266 44.7315 48.3445 45.0853 48.5443C45.4391 48.744 45.7436 49.0206 45.9764 49.3536C42.6385 51.9695 38.6082 53.5519 34.3822 53.9059C34.2032 53.7794 34.0486 53.6216 33.9257 53.4402C33.8321 53.239 33.7962 53.0158 33.8222 52.7955C33.8482 52.5752 33.935 52.3665 34.0728 52.1926C34.3375 51.8208 34.666 51.4988 35.0432 51.2417L33.9687 51.0771C33.9473 50.9657 33.9486 50.851 33.9726 50.7401C33.9966 50.6291 34.0427 50.5242 34.1082 50.4315C34.1738 50.3388 34.2574 50.2604 34.354 50.2009C34.4506 50.1413 34.5583 50.1019 34.6705 50.085C35.1324 50.0128 35.5516 50.3629 35.9522 50.6551C36.3527 50.9474 36.9272 51.1454 37.2762 50.8415C37.6251 50.5375 37.61 50.1339 37.6523 49.75C37.6946 49.3661 37.8533 48.8681 38.2383 48.7952L36.1113 48.2165C35.9888 48.1831 35.8725 48.13 35.767 48.0593C35.6552 47.9284 35.5929 47.7623 35.5911 47.5902C35.5893 47.418 35.6482 47.2508 35.7573 47.1176Z" fill="black"/>
<path id="Vector_5" opacity="0.2" d="M32.6735 48.2014L33.1563 47.9564C32.9448 47.4882 32.5742 47.1101 32.1103 46.8891C31.9523 46.8248 31.7818 46.7968 31.6115 46.8071C31.298 46.8474 31.0029 46.978 30.7622 47.1829C30.4345 47.4282 30.1408 47.716 29.8889 48.0388C29.7613 48.1982 29.6729 48.3854 29.6309 48.5852C29.5888 48.785 29.5943 48.9919 29.6468 49.1893C29.703 49.3872 29.8343 49.5552 30.0128 49.6576C30.1913 49.7599 30.4028 49.7884 30.602 49.7369C30.9684 49.6061 31.1648 49.1854 31.5502 49.074C31.9356 48.9626 32.2411 49.1578 32.5306 49.0262C32.6 48.9864 32.6598 48.9319 32.7056 48.8664C32.7515 48.8009 32.7823 48.7261 32.796 48.6474C32.8096 48.5686 32.8057 48.4878 32.7845 48.4107C32.7633 48.3336 32.7255 48.2621 32.6735 48.2014Z" fill="black"/>
<path id="Vector_6" opacity="0.2" d="M19.4761 47.8579C20.3592 47.9437 20.5765 49.2525 21.4188 49.5684C22.2611 49.8844 22.4381 49.4826 22.8196 49.7555C23.0066 49.9271 23.1844 50.1085 23.3522 50.2989C23.5424 50.493 23.8684 50.5539 24.0241 50.3633C24.0836 50.2585 24.1114 50.1386 24.1044 50.0183L24.0753 49.0956C24.0786 48.9794 24.0927 48.8638 24.1172 48.7502C24.1518 48.6811 24.2 48.6197 24.2591 48.5699C24.3181 48.52 24.3866 48.4826 24.4605 48.46C24.5344 48.4374 24.6122 48.43 24.689 48.4383C24.7658 48.4466 24.8401 48.4705 24.9074 48.5084C25.1783 48.6511 25.3978 48.8751 25.5351 49.1488C25.6546 49.2938 25.7503 49.4569 25.8184 49.632C25.9325 49.7485 25.7564 50.0734 25.5639 50.1099L25.2948 50.1072C25.1751 50.1031 25.0561 50.1284 24.9484 50.1809C24.8407 50.2334 24.7475 50.3115 24.6769 50.4083C24.5954 50.5071 24.5535 50.6325 24.5593 50.7604C24.5651 50.8883 24.6183 51.0095 24.7084 51.1004L25.0721 51.2386L26.3945 51.5786C26.9883 51.7575 27.6967 52.0145 27.8831 52.5928C27.9163 52.6322 27.9387 52.6794 27.9483 52.73C27.9579 52.7806 27.9543 52.8328 27.9378 52.8816C27.9378 52.8816 27.7825 53.0338 27.6855 53.1288C27.5555 53.1992 27.4479 53.3046 27.375 53.4332C24.8121 52.8697 22.3738 51.8421 20.1806 50.4014C19.4616 49.9403 18.7735 49.4327 18.1207 48.8818C18.453 48.3279 18.9195 47.7947 19.4761 47.8579Z" fill="black"/>
<path id="Vector_7" opacity="0.2" d="M26.7471 47.1616C26.7763 47.2282 26.8207 47.2869 26.8769 47.3331C26.9331 47.3792 26.9994 47.4114 27.0704 47.4271C27.1414 47.4428 27.2151 47.4416 27.2855 47.4234C27.3559 47.4053 27.4211 47.3707 27.4756 47.3226L27.5959 46.8242L27.4212 46.9954C27.5959 46.8242 27.5614 46.4396 27.2734 46.4175C27.1332 46.4239 27.0002 46.4817 26.9 46.58C26.7997 46.6782 26.7392 46.81 26.73 46.9501L26.7471 47.1616Z" fill="black"/>
<path id="Vector_8" opacity="0.2" d="M24.4228 35.6293C24.3984 36.1479 24.9328 36.4991 25.352 36.8492C25.7712 37.1994 26.0527 37.8747 25.6649 38.2167C25.2771 38.5586 24.7997 38.2656 24.457 37.9547C24.3133 38.0793 24.1974 38.2326 24.1167 38.4048C24.036 38.5771 23.9924 38.7643 23.9887 38.9544C23.985 39.1446 24.0212 39.3334 24.0951 39.5086C24.1689 39.6839 24.2787 39.8417 24.4174 39.9718C24.5043 39.7546 24.6354 39.5579 24.8024 39.3942C24.9695 39.2305 25.1688 39.1033 25.3877 39.0209C25.4936 38.9779 25.6074 38.9577 25.7216 38.9615C25.8358 38.9653 25.9479 38.9931 26.0507 39.0431C26.1535 39.093 26.2446 39.164 26.3181 39.2515C26.3917 39.3389 26.4461 39.4409 26.4777 39.5507C26.5844 40.3973 25.0245 40.7466 25.0928 41.5927C25.1559 41.7747 25.2587 41.9405 25.3935 42.0781C25.5283 42.2156 25.6919 42.3216 25.8726 42.3884C26.999 43.1108 28.3179 43.7966 29.572 43.2904C29.6691 43.1953 30.3328 44.0667 30.561 44.2996C30.7892 44.5325 31.6405 43.9647 31.9308 43.7562C32.0265 43.7189 32.1137 43.6626 32.187 43.5907C32.2604 43.5188 32.3185 43.4327 32.3578 43.3378C32.513 43.1856 32.421 42.7812 32.6523 42.7066C32.8836 42.6321 32.959 42.7866 33.1321 42.7691C33.3052 42.7516 33.6079 41.3136 33.5147 41.0244C33.4216 40.7352 32.792 40.287 32.6053 39.7471C32.572 39.5174 32.6062 39.2829 32.7039 39.0723C32.8016 38.8618 32.9584 38.6842 33.1553 38.5612L33.4977 38.9105C33.6411 38.5929 33.8857 38.3318 34.1933 38.168C34.5009 38.0042 34.8542 37.9471 35.1977 38.0054C34.9065 37.8065 34.6695 37.5379 34.5083 37.2243C34.347 36.9106 34.2666 36.5617 34.2743 36.2091C34.2743 36.2091 34.2972 35.8442 34.1831 35.7277C34.094 35.6605 33.9879 35.6195 33.8768 35.6094C33.5739 35.5277 33.2577 35.5077 32.947 35.5508C32.6362 35.5939 32.3373 35.6991 32.0681 35.8601L31.6877 35.472C31.4742 35.6812 31.1249 36.0235 31.4308 36.1803C31.7366 36.3371 31.4308 36.1804 31.6803 36.2021C31.9299 36.2238 32.1748 36.7067 31.8639 37.0494C31.5944 37.2863 31.2564 37.431 30.899 37.4624C30.6875 37.4795 30.4755 37.535 30.2446 37.5711C29.7504 37.7064 29.2236 37.6531 28.7665 37.4217C28.0411 36.9532 28.2061 35.8404 28.4642 35.0168C28.5829 34.6721 28.8946 34.2525 29.1046 34.3891C29.3146 34.5257 29.2739 34.7559 29.466 34.7578C29.6581 34.7598 29.7765 34.4535 30.0637 34.5525C30.3509 34.6515 30.2729 34.766 30.368 34.863C30.4631 34.96 31.0236 34.639 31.0473 34.1973C31.0709 33.7556 30.6261 34.0394 30.3769 33.9793C30.1277 33.9191 29.8094 33.0896 29.3118 32.8924C28.8142 32.6952 28.7355 32.8866 28.4665 32.8839C28.1975 32.8812 26.9931 32.2734 26.4314 32.7097C25.8698 33.1459 26.0782 33.4363 25.8442 33.7798C25.6101 34.1233 24.4302 34.8992 24.4228 35.6293Z" fill="black"/>
<path id="Vector_9" opacity="0.1" d="M39.4284 43.37C39.3126 43.1713 39.1492 43.0046 38.9529 42.8848C38.7246 42.6519 38.1963 41.6858 38.9276 41.5779C39.6589 41.47 39.2222 42.8491 39.8545 43.0284C39.6262 42.7955 40.0917 42.3775 40.4387 42.2657C40.7857 42.1539 41.2099 42.0045 41.2712 41.64C40.8311 41.4626 40.8178 40.8668 40.5531 40.4414C40.2884 40.016 39.445 39.8154 39.0852 39.2929C38.9299 39.4451 38.7552 39.6163 38.5806 39.7874C38.4059 39.9586 38.1214 39.5906 37.8528 39.5495C37.5842 39.5083 37.2582 39.4474 37.2225 39.178C37.1867 38.9086 36.8343 39.5584 36.6596 39.7296C36.6731 40.0121 36.6574 40.2954 36.6127 40.5746C36.5331 40.8429 36.1664 41.0121 35.994 40.9527C35.8217 40.8933 35.6326 40.5839 35.4805 40.4286C35.3809 40.4037 35.2764 40.4061 35.178 40.4355C35.0796 40.4649 34.991 40.5203 34.9215 40.5959C34.782 40.7509 34.6329 40.897 34.4752 41.0334L34.8365 41.4021C34.8958 41.3084 34.9887 41.2409 35.0962 41.2134C35.2036 41.1859 35.3175 41.2006 35.4145 41.2543C35.6029 41.3693 35.7598 41.5293 35.871 41.72C35.3593 42.106 34.9568 42.6185 34.703 43.207L35.1785 43.6922C35.3726 43.502 35.6983 43.6014 35.8885 43.7955C36.0252 44.0161 36.1021 44.2685 36.1117 44.5279C36.1097 44.72 36.1268 44.9315 36.2988 45.0293C36.4707 45.1272 36.7983 45.0344 36.9733 44.8248C37.672 44.1401 37.7826 44.6024 38.456 44.5131C38.7339 44.4841 38.9901 44.3491 39.1712 44.1363C39.3522 43.9234 39.4443 43.649 39.4284 43.37Z" fill="black"/>
<path id="Vector_10" opacity="0.1" d="M45.8204 36.4596C46.267 36.7838 46.6043 37.2363 46.7874 37.7568C46.8425 38.0072 46.9162 38.3153 47.1845 38.3949C47.3075 38.4224 47.4359 38.4121 47.553 38.3653C47.6701 38.3185 47.7703 38.2373 47.8404 38.1325C47.9957 37.9804 47.9798 37.6536 48.0974 37.4242C48.2134 37.0955 48.4031 36.7977 48.652 36.5538C48.901 36.3098 49.2025 36.1261 49.5335 36.0168C49.9767 36.3223 50.3504 36.7178 50.6305 37.1775C50.9106 37.6373 51.0907 38.1509 51.159 38.6849C51.1554 38.8138 51.1413 38.9421 51.1167 39.0687C50.9394 39.5089 50.1716 39.4242 49.9371 39.8062C49.7027 40.1881 50.0594 41.0179 49.5781 41.1092C49.0968 41.2004 49.1003 40.8546 48.8515 40.756C48.7787 40.7307 48.7015 40.7205 48.6245 40.7259C48.5476 40.7313 48.4726 40.7523 48.404 40.7875C48.3354 40.8228 48.2746 40.8716 48.2254 40.9309C48.1762 40.9903 48.1395 41.059 48.1175 41.1329C48.2318 41.4614 48.4612 41.7375 48.7632 41.9101C49.0652 42.0827 49.4195 42.1401 49.7606 42.0718C50.0839 42.4017 49.6938 42.9742 49.4023 43.2979C49.1108 43.6217 48.8543 44.2916 49.294 44.5074C49.3766 44.5393 49.466 44.5495 49.5536 44.537C49.6412 44.5244 49.7241 44.4895 49.7944 44.4356C50.7791 43.9652 50.8881 42.6788 50.8602 41.6409C50.8262 41.3902 50.8908 41.136 51.0403 40.9318C51.2344 40.7416 51.562 40.6489 51.7134 40.881L51.8045 39.46C51.8232 39.3326 51.8777 39.2132 51.9617 39.1156C52.0045 39.0447 52.0646 38.9858 52.1363 38.9445C52.5701 38.8878 53.0006 38.8087 53.4262 38.7077C52.837 40.5507 51.9914 42.3016 50.9142 43.9089C49.9443 45.3803 48.8088 46.7357 47.53 47.9484C47.2616 48.002 46.9839 47.9859 46.7234 47.9018C46.5142 47.6883 46.267 47.436 45.9604 47.3561C45.349 47.004 44.5187 47.3992 43.8492 47.1042C43.5964 46.977 43.3887 46.7756 43.2538 46.5269C43.1189 46.2782 43.0633 45.9942 43.0946 45.7131C43.1415 45.4249 43.2515 45.1505 43.4167 44.9097C43.5819 44.6689 43.7982 44.4675 44.0502 44.32C44.477 44.1389 44.8503 43.8516 45.1347 43.4855C45.5073 42.7398 44.8808 41.9841 44.2908 41.4209C44.495 41.2806 44.6479 41.0776 44.7266 40.8427C44.8052 40.6078 44.8052 40.3537 44.7267 40.1188C44.6729 40.0111 44.596 39.9166 44.5014 39.8422C44.4069 39.7678 44.2969 39.7153 44.1797 39.6884C44.0624 39.6615 43.9406 39.6609 43.823 39.6867C43.7055 39.7124 43.5951 39.7639 43.4997 39.8373C43.1384 39.4686 42.9148 38.7746 43.303 38.3942C43.609 38.2293 43.9636 38.1784 44.3036 38.2506C44.6499 38.2156 45.0741 38.0662 45.116 37.7208C45.1579 37.3753 44.4503 37.0415 44.6471 36.5823C44.8439 36.1231 45.5344 36.2454 45.8204 36.4596Z" fill="black"/>
<path id="Vector_11" opacity="0.2" d="M44.5586 12.8898L45.0531 13.3944C44.9506 13.5961 44.8059 13.7733 44.6287 13.9141C44.4516 14.0549 44.2462 14.1559 44.0265 14.2102C43.5068 14.301 42.9129 14.1221 42.3924 14.2898C42.0776 14.4417 41.748 14.5607 41.4088 14.645C40.5615 14.8286 39.8396 14.0143 39.328 13.2981C39.2944 13.404 39.2402 13.5021 39.1686 13.5869C39.0969 13.6717 39.0092 13.7415 38.9105 13.7923C38.8118 13.8431 38.704 13.8738 38.5933 13.8828C38.4826 13.8918 38.3713 13.8789 38.2657 13.8447C37.8438 13.6523 37.4669 13.3736 37.1595 13.0265C37.0197 12.851 36.8462 12.7051 36.6493 12.5975C36.4524 12.4899 36.2361 12.4229 36.0129 12.4C35.9158 12.4951 35.6278 12.473 35.4749 12.3946L35.2087 12.1229L33.7103 10.167C33.2834 10.5855 33.507 11.2795 33.8676 11.725C34.2282 12.1706 34.7425 12.6178 34.5057 13.2303C35.0899 13.0995 35.701 13.1653 36.244 13.4174C36.7869 13.6696 37.2315 14.0941 37.5084 14.6249C37.5431 14.6389 37.5745 14.6598 37.6007 14.6866C37.6269 14.7133 37.6472 14.7451 37.6606 14.7801C37.5988 15.183 36.7182 14.8667 36.7143 15.2509L37.2022 16.4088C37.3163 16.5252 37.3524 16.7561 37.293 16.9285C37.2336 17.1008 36.866 17.3469 36.4814 17.3815C36.0967 17.416 35.7225 18.3154 35.4097 18.8502C35.0969 19.3851 34.3618 19.8772 33.8863 19.392C33.7912 19.295 33.6771 19.1786 33.601 19.101C33.5249 19.0233 33.1003 19.2112 32.8876 19.3436C32.2495 19.7406 31.4255 19.521 30.6775 19.3789C30.4417 19.351 30.204 19.3422 29.9668 19.3526C29.1605 19.3232 28.3737 19.6041 27.7683 20.1374C28.3715 20.2907 29.0009 20.3102 29.6124 20.1945C30.2661 20.1626 31.0136 20.3431 31.1995 20.9598C31.436 20.6557 31.7712 20.4434 32.1472 20.3595C32.5233 20.2757 32.9168 20.3254 33.2602 20.5002C33.5827 20.7079 33.8201 21.0244 33.9293 21.3922C34.0384 21.7599 34.012 22.1546 33.8549 22.5046C33.8305 22.6283 33.7692 22.7418 33.6792 22.83C33.5891 22.9183 33.4744 22.9772 33.3503 22.9991C33.1462 22.8894 32.9804 22.7202 32.8748 22.5139C32.6433 22.2442 32.3427 22.0427 32.0053 21.9309C31.6679 21.8192 31.3064 21.8015 30.9597 21.8798C31.2555 22.1715 31.4747 22.5317 31.5981 22.9285C31.7214 23.3252 31.7451 23.7462 31.667 24.1543C31.5547 24.554 31.2941 24.8959 30.9385 25.1101C30.5828 25.3243 30.1588 25.3948 29.753 25.3071L30.1333 25.6952C29.8378 25.8732 29.4966 25.9608 29.1519 25.9471C28.8071 25.9334 28.4739 25.8189 28.1934 25.618C27.9462 25.3657 27.718 25.1328 27.4897 24.8999C27.354 24.803 27.1901 24.7534 27.0234 24.7586C26.8567 24.7639 26.6964 24.8237 26.5671 24.9291C26.6128 25.1478 26.5963 25.3748 26.5194 25.5846C26.4426 25.7944 26.3085 25.9786 26.1324 26.1161C25.969 26.2148 25.7848 26.2739 25.5944 26.2887C25.4041 26.3034 25.2129 26.2734 25.0362 26.201C25.1015 26.274 25.1404 26.3668 25.1463 26.4645C25.1523 26.5622 25.1251 26.6591 25.0692 26.7394C24.971 26.834 24.8444 26.8938 24.709 26.9098C24.5735 26.9258 24.4365 26.8971 24.319 26.8279C24.0702 26.6715 23.8617 26.4587 23.7103 26.2069C23.2313 25.6443 22.9844 24.9204 23.0199 24.1823C23.184 23.6706 23.4961 23.2191 23.9168 22.8847C24.4214 22.3902 24.9259 21.8957 25.4305 21.4012C25.7076 21.193 25.9342 20.9251 26.0937 20.6173C26.2531 20.3096 26.3413 19.9699 26.3516 19.6235C26.2695 19.2396 26.0638 18.8933 25.7659 18.6376C24.9734 17.8176 24.0176 17.173 22.9604 16.7455C22.4307 16.4844 21.8263 16.4171 21.2521 16.5552C20.7139 16.7446 20.2384 17.079 19.8781 17.5214C19.063 18.3202 17.6105 19.4392 17.9238 20.7682C17.9641 20.9615 18.059 21.1393 18.1972 21.2803C18.3354 21.4213 18.5111 21.5198 18.7036 21.5639C18.9722 21.6051 19.261 21.5503 19.4904 21.6679C19.7198 21.7855 19.945 22.3258 20.2702 22.4636C20.5955 22.6014 20.7317 22.4298 21.0011 22.3941C21.1195 22.3528 21.2488 22.3561 21.3651 22.4032C21.4813 22.4504 21.5764 22.5382 21.6326 22.6503C21.7067 22.9201 21.2445 23.0307 21.031 23.2399C20.8175 23.4491 20.5198 24.3877 20.0167 24.7285C19.5137 25.0693 18.8814 24.89 18.3046 24.9226C17.7673 24.9452 17.236 25.0434 16.7261 25.2141C16.3624 25.0759 16.1935 24.6707 16.1982 24.2096C16.1858 24.0108 16.1217 23.8187 16.0121 23.6525C15.9025 23.4862 15.7514 23.3515 15.5737 23.2617C15.6362 22.782 16.464 22.6174 16.3732 22.0977L16.24 21.9618C16.3069 21.8174 16.4242 21.7024 16.57 21.6385C16.9581 21.2581 17.2337 20.6076 16.9698 20.1053C16.9698 20.1053 16.8366 19.9694 16.8176 19.95C16.7986 19.9306 16.8176 19.95 16.7012 20.0641C16.4059 20.2677 16.1538 20.5277 15.9595 20.8292C15.7652 21.1306 15.6324 21.4675 15.569 21.8205C15.528 21.965 15.4752 22.1059 15.411 22.2417C15.3417 22.3615 15.2411 22.4602 15.1199 22.527C14.9814 22.6148 14.8322 22.6843 14.6759 22.7339C14.6223 22.8077 14.5567 22.872 14.4818 22.9241C14.2322 22.9023 14.1585 22.5941 14.0063 22.4389C13.8277 22.3149 13.626 22.228 13.4132 22.1831C13.2736 22.1285 13.1472 22.0449 13.0423 21.9379C12.9374 21.8308 12.8564 21.7027 12.8046 21.5621C13.1372 20.9697 13.4892 20.3584 13.8603 19.7665C17.0404 14.8085 22.0482 11.3053 27.7959 10.0177C33.5437 8.73013 39.5673 9.76223 44.5586 12.8898Z" fill="black"/>
<path id="Vector_12" opacity="0.2" d="M41.8522 20.1829C42.2383 19.937 42.5688 19.6131 42.8226 19.232C43.4134 19.3826 43.9208 19.7607 44.2339 20.2838C44.7819 20.0408 45.2201 19.6028 45.4636 19.055C45.707 18.5071 45.7383 17.8883 45.5513 17.3187C45.7817 17.3444 46.0019 17.4275 46.1919 17.5603C46.3819 17.6931 46.5356 17.8715 46.6388 18.0791C46.801 18.5102 46.8875 18.9662 46.8943 19.4267L47.3018 22.832C47.7226 23.0284 48.0176 22.3588 47.8685 21.8961C47.7195 21.4334 47.3775 21.0457 47.5164 20.6052C47.6554 20.1646 48.3898 19.7493 48.5291 19.2703C48.4861 19.0013 48.418 18.7368 48.3257 18.4804C48.295 18.2317 48.3381 17.9794 48.4497 17.7551C48.5613 17.5307 48.7364 17.3441 48.9533 17.2185L49.2056 16.9713C51.4847 19.531 53.1204 22.5975 53.9768 25.916C53.8448 26.0268 53.7215 26.1476 53.6081 26.2774C53.0259 26.848 52.1051 26.685 51.3184 26.581C50.9322 26.4778 50.5266 26.4708 50.1371 26.5607C49.7476 26.6506 49.3861 26.8345 49.0842 27.0965C50.02 27.6632 51.2563 27.0223 52.2915 27.2633C52.5647 27.3278 52.8285 27.4273 53.0763 27.5594C53.5561 27.7208 54.0505 27.8352 54.5524 27.901C55.0288 30.5196 55.0148 33.2038 54.511 35.8172C53.7858 35.9122 53.1199 36.2674 52.637 36.8167C52.2524 36.8513 52.3742 36.1993 52.1464 35.9279C51.9185 35.6566 51.3402 35.8429 51.0355 35.5708C50.7308 35.2987 51.4707 34.3454 51.1885 33.7469C50.9063 33.1484 50.3656 33.412 50.0224 33.1395C49.6793 32.8671 49.6091 32.213 49.1312 31.9584C47.7553 31.2143 47.3707 33.1511 46.5587 33.6425C46.1531 33.8498 45.7144 33.5188 45.3119 33.4186C45.0067 33.3577 44.6914 33.3715 44.3928 33.4588C44.0941 33.5461 43.821 33.7044 43.5967 33.9201C43.1727 34.3573 42.812 34.8517 42.5251 35.3889C42.409 35.6642 42.2289 35.9077 41.9997 36.0992C41.7704 36.2908 41.4988 36.4248 41.2073 36.4901C40.3615 36.52 39.8728 35.439 39.0301 35.1615C38.1875 34.884 37.6441 35.4165 36.9342 35.3133C36.3151 35.1968 35.7514 34.8806 35.3292 34.4132C35.1967 34.3163 35.081 34.1983 34.9869 34.0639C34.8941 33.7363 35.2621 33.4517 35.5136 33.2813C36.314 32.7688 37.1612 32.3334 38.0439 31.981C37.7823 31.2482 37.3111 30.3403 36.5033 30.409C36.3157 30.4621 36.121 30.4861 35.9261 30.4801C35.7734 30.4298 35.635 30.3437 35.5225 30.2289C35.41 30.1141 35.3267 29.9739 35.2795 29.8202C35.4964 29.2652 35.675 28.7097 35.8341 28.1733C36.2805 28.6899 36.8814 29.0492 37.5478 29.1978C38.2142 29.3464 38.9107 29.2765 39.5343 28.9985C39.6959 28.8851 39.8803 28.8082 40.0746 28.7733C40.2177 28.7648 40.3609 28.7887 40.4935 28.8433C40.626 28.8979 40.7444 28.9817 40.84 29.0885C41.3824 29.8122 41.7847 30.6309 42.0262 31.5024C42.4408 32.3136 43.4907 32.9967 44.1863 32.6194C43.5171 32.286 43.6227 31.3456 43.3413 30.6702C43.1571 30.2972 42.9212 29.9519 42.6407 29.6447C41.995 28.8583 41.4844 27.97 41.13 27.0162C40.7927 26.8682 40.4206 26.8184 40.0564 26.8725C39.6921 26.9266 39.3505 27.0825 39.0708 27.3221C39.1712 26.7653 39.1394 26.1927 38.978 25.6504C38.8166 25.1081 38.5301 24.6112 38.1416 24.1999C38.9617 23.7707 39.6368 23.1091 40.0823 22.2979C40.3199 21.6086 40.2903 20.7244 40.8333 20.2303C40.9927 20.3113 41.1705 20.3495 41.3491 20.3412C41.5277 20.3329 41.701 20.2784 41.8522 20.1829Z" fill="black"/>
</g>
</svg>
