<svg width="297" height="292" viewBox="0 0 297 292" fill="none" xmlns="http://www.w3.org/2000/svg">
<g clip-path="url(#clip0_4937_7461)">
<path d="M212.328 275.877C202.261 280.861 191.621 284.593 180.646 286.99C175.657 288.13 170.605 288.977 165.517 289.528C152.239 291.097 138.805 290.774 125.617 288.568C123.047 288.119 120.63 287.672 118.08 287.089C112.725 285.985 107.455 284.499 102.311 282.645C98.9816 281.58 95.7102 280.341 92.5104 278.934C87.8537 276.989 83.3085 274.788 78.8957 272.34C73.0386 269.06 67.4132 265.383 62.059 261.333V261.333C55.4645 256.267 49.2938 250.672 43.6084 244.603C26.7213 226.722 14.7609 204.766 8.89543 180.881C8.89543 180.881 8.80032 180.784 8.76228 180.745C7.02341 173.885 5.84723 166.894 5.24545 159.842C4.91354 156.553 4.71593 153.284 4.61459 149.997C4.51325 146.711 4.56793 143.195 4.71772 139.776C4.7798 137.432 4.97696 135.032 5.25174 132.556C5.53272 129.466 5.92899 126.376 6.49837 123.269C7.48704 116.674 8.94626 110.158 10.8648 103.771C11.4396 102.028 11.9764 100.247 12.6082 98.5622C14.5508 92.9136 16.8594 87.3976 19.5194 82.0493C20.5661 79.8821 21.6827 77.7605 22.8694 75.6845C28.3077 66.0581 34.8464 57.0964 42.354 48.9798C44.977 46.1048 47.6568 43.3264 50.5465 40.6847C51.9632 39.2963 53.3605 37.9269 54.9286 36.7706C57.2932 34.7576 59.6958 32.7835 62.1356 30.925C67.1373 27.1648 72.3774 23.7323 77.8228 20.6495C81.3308 18.5943 84.9552 16.7446 88.6776 15.1097C93.0301 13.0126 97.5013 11.1715 102.068 9.59563C110.363 6.7388 118.908 4.66977 127.591 3.41603C132.708 2.5883 137.874 2.08851 143.055 1.91961C149.044 1.66265 155.043 1.78093 161.018 2.27377C167.247 2.80916 173.437 3.73155 179.552 5.0356C187.272 6.6811 194.84 8.97506 202.175 11.8931C207.707 14.0491 213.092 16.5617 218.298 19.4151V19.4151C222.405 21.6455 226.395 24.0844 230.253 26.7222C230.253 26.7222 230.253 26.7222 230.367 26.8386C254.715 43.403 273.385 67.0482 283.851 94.5737C285.349 98.4318 286.654 102.403 287.768 106.334C288.566 109.129 289.286 111.999 289.911 114.811C290.721 118.316 291.301 121.781 291.823 125.302C292.054 127.13 292.305 128.939 292.478 130.785C293.206 137.365 293.454 143.988 293.22 150.603C292.525 172.965 286.619 194.855 275.973 214.531C270.784 224.23 264.483 233.291 257.197 241.531C254.126 244.92 250.883 248.289 247.469 251.483C244.27 254.489 240.913 257.322 237.411 259.97C229.67 266.191 221.256 271.527 212.328 275.877Z" fill="#6E62E5"/>
<path opacity="0.2" d="M212.328 275.877C202.261 280.861 191.621 284.593 180.646 286.99C175.657 288.13 170.605 288.977 165.517 289.528C152.239 291.097 138.805 290.774 125.617 288.568C123.047 288.119 120.63 287.672 118.08 287.089C112.725 285.985 107.455 284.499 102.311 282.645C98.9816 281.58 95.7102 280.341 92.5104 278.934C87.8537 276.989 83.3085 274.788 78.8957 272.34C73.0386 269.06 67.4132 265.383 62.059 261.333V261.333C55.4645 256.267 49.2938 250.672 43.6084 244.603C26.7213 226.722 14.7609 204.766 8.89543 180.881C8.89543 180.881 8.80032 180.784 8.76228 180.745C7.02341 173.885 5.84723 166.894 5.24545 159.842C4.91354 156.553 4.71593 153.284 4.61459 149.997C4.51325 146.711 4.56793 143.195 4.71772 139.776C4.7798 137.432 4.97696 135.032 5.25174 132.556C5.53272 129.466 5.92899 126.376 6.49837 123.269C7.48704 116.674 8.94626 110.158 10.8648 103.771C11.4396 102.028 11.9764 100.247 12.6082 98.5622C14.5508 92.9136 16.8594 87.3976 19.5194 82.0493C20.5661 79.8821 21.6827 77.7605 22.8694 75.6845C28.3077 66.0581 34.8464 57.0964 42.354 48.9798C44.977 46.1048 47.6568 43.3264 50.5465 40.6847C51.9632 39.2963 53.3605 37.9269 54.9286 36.7706C57.2932 34.7576 59.6958 32.7835 62.1356 30.925C67.1373 27.1648 72.3774 23.7323 77.8228 20.6495C81.3308 18.5943 84.9552 16.7446 88.6776 15.1097C93.0301 13.0126 97.5013 11.1715 102.068 9.59563C110.363 6.7388 118.908 4.66977 127.591 3.41603C132.708 2.5883 137.874 2.08851 143.055 1.91961C149.044 1.66265 155.043 1.78093 161.018 2.27377C167.247 2.80916 173.437 3.73155 179.552 5.0356C187.272 6.6811 194.84 8.97506 202.175 11.8931C207.707 14.0491 213.092 16.5617 218.298 19.4151V19.4151C222.405 21.6455 226.395 24.0844 230.253 26.7222C230.253 26.7222 230.253 26.7222 230.367 26.8386C254.715 43.403 273.385 67.0482 283.851 94.5737C285.349 98.4318 286.654 102.403 287.768 106.334C288.566 109.129 289.286 111.999 289.911 114.811C290.721 118.316 291.301 121.781 291.823 125.302C292.054 127.13 292.305 128.939 292.478 130.785C293.206 137.365 293.454 143.988 293.22 150.603C292.525 172.965 286.619 194.855 275.973 214.531C270.784 224.23 264.483 233.291 257.197 241.531C254.126 244.92 250.883 248.289 247.469 251.483C244.27 254.489 240.913 257.322 237.411 259.97C229.67 266.191 221.256 271.527 212.328 275.877Z" fill="white"/>
<path opacity="0.2" d="M212.329 275.877C209.156 272.596 206.309 269.016 203.829 265.184C200.329 259.673 197.701 253.574 194.047 248.138C189.389 241.289 183.164 235.557 178.061 229.03C172.958 222.503 168.773 214.506 169.433 206.173C184.258 219.844 199.923 232.574 216.337 244.289C223.511 249.396 230.742 254.484 237.391 260.104C229.65 266.277 221.244 271.568 212.329 275.877V275.877Z" fill="black"/>
<path opacity="0.2" d="M93.5013 74.1479C83.6647 66.6234 74.3607 58.4269 65.6562 49.6174C61.8123 45.5458 58.1989 41.2626 54.833 36.7878C57.1975 34.7748 59.6001 32.8007 62.04 30.9422L63.01 31.932C75.8794 43.8368 86.2453 58.1886 93.5013 74.1479V74.1479Z" fill="black"/>
<path opacity="0.2" d="M108.865 155.084C106.848 153.899 105.113 152.288 103.783 150.364C97.7279 143.241 91.0626 136.661 83.8627 130.698C77.6912 125.332 71.4781 120.274 65.2467 115.119C60.542 110.98 55.4433 107.311 50.0236 104.166C46.8424 102.684 43.771 100.977 40.8326 99.0582C37.5595 96.2713 34.7288 93.0032 32.4373 89.3659C29.2933 84.8379 26.091 80.3669 22.9664 75.8198C28.4047 66.1934 34.9434 57.2317 42.451 49.1152C44.986 51.8277 47.2534 54.7785 49.2219 57.9264C52.5491 63.3402 54.8125 69.4542 58.7775 74.5094C62.3065 78.9645 66.9794 82.4127 70.7216 86.697C74.5089 91.4038 77.8664 96.4409 80.7537 101.748C91.6806 119.536 106.668 134.829 115.297 153.766C114.587 154.754 113.531 155.439 112.339 155.683C111.147 155.928 109.907 155.714 108.865 155.084Z" fill="black"/>
<path opacity="0.2" d="M125.482 288.7C122.912 288.252 120.495 287.804 117.946 287.222C112.59 286.117 107.321 284.632 102.176 282.777C98.8469 281.712 95.5756 280.474 92.3758 279.066C91.9193 278.6 91.7147 277.926 91.3747 277.346C74.9746 248.238 56.4168 220.4 35.857 194.064C24.8549 179.926 12.9891 165.684 4.61581 149.996C4.53503 146.575 4.56915 143.194 4.71894 139.775C14.1971 155.928 24.9869 171.274 36.9794 185.66C47.3682 197.735 59.114 208.634 69.0965 220.994C78.1687 232.153 85.8254 244.586 96.411 254.3C98.7721 256.438 101.23 258.48 103.61 260.637C111.367 268.033 118.094 276.438 123.611 285.626C124.287 286.618 124.912 287.644 125.482 288.7V288.7Z" fill="black"/>
<path opacity="0.2" d="M79.9645 210.229C67.9978 202.172 58.6787 190.722 49.5878 179.505C39.3985 166.372 28.2446 154.018 16.219 142.544C12.5828 139.183 8.7906 136.051 5.21303 132.595C5.49401 129.504 5.89028 126.414 6.45966 123.307C7.44833 116.712 8.90749 110.196 10.826 103.809C11.4009 102.067 11.9377 100.285 12.5695 98.6003C13.4797 99.8008 14.3713 100.944 15.2256 101.971C20.6745 108.501 26.1432 114.974 31.108 121.865C34.9111 127.114 38.4102 132.577 41.5881 138.227C44.1783 142.72 46.418 147.406 48.2873 152.244C49.8601 156.334 51.0479 160.496 52.6983 164.51C54.6547 169.2 56.8598 173.783 59.3043 178.238C65.224 189.52 71.2963 200.918 79.9645 210.229Z" fill="black"/>
<path opacity="0.2" d="M36.2404 146.665C30.6654 143.112 27.016 137.253 21.5768 133.566C19.4968 132.143 17.2591 131.102 15.101 129.792C11.9842 127.961 9.06902 125.806 6.40378 123.364C7.39245 116.769 8.85161 110.253 10.7702 103.866C15.9823 110.149 20.8427 116.715 25.3289 123.536C27.8081 127.307 30.2286 131.175 32.6887 134.927C34.0499 137.132 39.7465 143.876 39.4926 146.179C39.4212 147.543 37.387 147.292 36.2404 146.665Z" fill="black"/>
<path opacity="0.2" d="M165.422 289.624C158.367 290.451 151.26 290.752 144.161 290.524C139.647 284.935 135.643 278.953 132.197 272.649C129.464 267.554 126.285 262.713 122.697 258.18C117.758 252.519 111.383 248.266 105.999 243.004C100.614 237.743 95.9168 230.97 96.1469 223.401C103.383 229.931 110.676 236.441 117.893 242.99C130.441 254.396 142.775 266.011 154.604 278.197C158.255 281.962 161.887 285.745 165.422 289.624Z" fill="black"/>
<path opacity="0.2" d="M115.832 283.512C116.321 284.478 117.077 285.792 117.946 287.223C112.591 286.118 107.321 284.633 102.177 282.779C98.491 276.397 94.3258 270.304 89.7173 264.552C82.1087 254.964 72.9414 245.61 71.0277 233.408L80.8553 245.882C87.0829 254.451 94.2913 262.262 102.334 269.157C105.575 271.428 108.615 273.972 111.422 276.762C113.14 278.84 114.619 281.104 115.832 283.512V283.512Z" fill="black"/>
<path opacity="0.2" d="M78.7619 272.474C72.9048 269.194 67.2794 265.516 61.9253 261.467V261.467C55.3307 256.401 49.1601 250.805 43.4746 244.736C26.6168 226.803 14.7025 204.8 8.89752 180.881C8.89752 180.881 8.80241 180.784 8.76437 180.746C7.0255 173.885 5.84931 166.894 5.24753 159.842C11.9804 166.713 18.2793 178.497 20.6847 181.961C26.9534 191.036 33.3357 200.266 39.526 209.494C53.2499 230.02 66.3717 251.174 78.7619 272.474Z" fill="black"/>
<path opacity="0.2" d="M61.8462 261.465C55.2516 256.399 49.081 250.804 43.3955 244.735C26.5656 226.793 14.6784 204.791 8.89531 180.881C9.83891 182.603 11.0414 184.171 12.4608 185.528C13.7732 186.868 15.5319 187.769 17.0573 188.937C18.8535 190.563 20.519 192.327 22.0384 194.214C28.0121 201.173 33.4121 208.605 38.1856 216.436C42.4164 223.704 45.2973 231.457 48.8532 238.968C52.6081 246.785 56.9516 254.306 61.8462 261.465V261.465Z" fill="black"/>
<path opacity="0.2" d="M235.11 187.199C233.164 187.66 231.276 186.315 229.517 185.375C222.509 181.058 214.026 180.011 206.37 177.052C194.101 172.297 184.3 162.956 174.842 153.848C169.458 148.853 164.384 143.534 159.65 137.919C155.71 132.81 152.093 127.46 148.82 121.9C141.581 109.971 134.979 97.7991 128.434 85.5699C116.421 63.1015 104.699 40.3478 90.5599 19.0492C89.7768 17.8089 89.0648 16.5251 88.4274 15.2039C92.7799 13.1068 97.2512 11.2656 101.818 9.68977C107.738 15.3027 112.793 22.7899 117.849 28.2212C132.979 44.5914 152.364 56.3737 171.951 67.082C177.805 69.9546 183.297 73.5126 188.311 77.6809C194.804 83.6071 199.067 91.4899 203.197 99.1984C207.948 108.239 212.699 117.28 217.335 126.319C219.877 131.027 222.02 135.94 223.739 141.006C225.02 145.458 225.723 150.058 226.773 154.584C228.548 161.831 231.427 168.762 235.308 175.134C236.683 177.041 237.655 179.209 238.165 181.504C238.423 182.662 238.257 183.874 237.696 184.919C237.135 185.965 236.217 186.774 235.11 187.199V187.199Z" fill="black"/>
<path opacity="0.2" d="M161.332 74.2185C168.873 79.2393 175.668 85.2979 181.518 92.2155C189.784 100.472 197.133 109.597 203.437 119.434C207.815 127.333 211.524 135.585 214.525 144.103C216.472 149.157 218.454 154.595 217.171 159.847C186.622 151.968 164.387 125.631 148.096 98.5651C138.099 81.9584 129.474 64.5778 120.887 47.1975C121.659 48.7617 130.625 51.4655 132.553 52.6955C135.326 54.671 137.728 57.1217 139.647 59.9343C145.707 66.8937 153.673 69.6257 161.332 74.2185Z" fill="black"/>
<path opacity="0.2" d="M275.934 214.838C273.766 212.348 271.776 209.708 269.98 206.938C266.858 202.084 264.644 194.894 269.063 191.172C259.417 181.602 249.167 171.065 246.785 157.648C251.387 160.519 255.989 163.39 260.649 166.204L181.206 54.5117C179.048 51.1045 176.428 48.0129 173.421 45.3252C166.905 39.8023 157.986 38.2328 150.691 33.7781C141.812 28.2122 132.295 15.3574 127.457 3.58732C132.574 2.75959 137.74 2.25972 142.921 2.09082C148.91 1.83386 154.909 1.95214 160.883 2.44498C167.113 2.98037 173.303 3.90276 179.417 5.20681C198.021 27.7225 212.286 53.6532 226.361 79.3513C218.36 72.5069 210.397 65.7012 202.434 58.8187C198.014 55.0848 193.231 51.0974 187.471 50.655C197.204 64.934 207.517 78.7577 218.412 92.1261C224.6 99.6824 231 107.145 237.401 114.569C248.417 127.285 259.408 140.027 270.372 152.794C271.26 154.092 272.504 155.105 273.955 155.712C274.702 155.973 275.521 155.927 276.234 155.585C276.947 155.243 277.496 154.632 277.759 153.887C277.79 153.372 277.719 152.857 277.549 152.37C277.379 151.883 277.114 151.435 276.769 151.052L268.357 137.344C265.767 133.148 263.796 126.595 268.122 124.409C274.361 130.775 280.443 137.408 286.583 143.945C288.789 146.197 291.034 148.487 293.103 150.986C292.42 173.315 286.541 195.178 275.934 214.838V214.838Z" fill="black"/>
<path opacity="0.2" d="M292.419 131.111C286.355 126.528 280.82 121.284 275.917 115.476C264.825 102.644 255.941 88.0277 246.765 73.812C244.429 69.8754 241.627 66.2343 238.42 62.9673C234.728 59.4329 230.122 56.9076 226.508 53.2587C220.898 47.5336 217.939 39.8562 214.631 32.5979C212.637 28.2736 206.055 19.7718 202.022 11.9682C207.553 14.1241 212.939 16.6367 218.145 19.4902V19.4902C218.216 19.6277 218.279 19.7695 218.333 19.9148C222.86 29.9252 228.641 39.3199 235.536 47.8735C249.734 67.1743 264.122 86.5538 282.063 102.376C283.776 103.948 285.641 105.344 287.632 106.544C288.43 109.338 289.151 112.209 289.776 115.02C290.586 118.526 291.166 121.99 291.687 125.512C291.994 127.456 292.245 129.265 292.419 131.111Z" fill="black"/>
<path opacity="0.2" d="M175.987 28.8462C162.37 24.3854 152.007 13.5012 142.957 2.05373C148.946 1.79677 154.945 1.91505 160.92 2.40789C166.994 10.578 172.053 19.4558 175.987 28.8462V28.8462Z" fill="black"/>
<path opacity="0.2" d="M283.773 94.842C266.298 82.2911 252.811 64.9575 241.852 46.5541C237.687 40.2528 233.847 33.7429 230.347 27.0499C254.694 43.6143 273.365 67.2595 283.831 94.7849L283.773 94.842Z" fill="black"/>
<path opacity="0.2" d="M291.763 125.629C290.58 124.81 289.476 123.838 288.371 122.904C280.769 116.391 272.959 109.625 268.09 100.929C271.679 107.037 281.034 111.071 289.89 115.176C290.662 118.643 291.242 122.107 291.763 125.629Z" fill="black"/>
<path opacity="0.2" d="M237.37 260.277C240.872 257.629 244.229 254.796 247.429 251.79C250.767 248.519 254.105 245.247 257.156 241.838C255.189 238.991 252.828 236.437 250.142 234.255C237.991 223.525 225.897 212.816 213.785 202.048C213.362 209.73 219.292 216.131 225.219 221.014C231.146 225.896 237.899 230.73 240.207 238.093C226.689 235.353 214.38 228.417 205.032 218.274C198.627 211.311 193.793 202.923 186.57 196.951C180.302 191.68 172.189 188.216 167.143 181.748C164.826 178.477 162.809 175.003 161.118 171.368C140.767 133.559 92.0373 116.408 75.0074 76.9409C94.3838 92.7007 113.683 108.511 132.904 124.372C132.335 110.358 120.991 99.6368 112.533 88.522C103.179 76.2576 96.6668 62.0678 93.468 46.9786C92.7849 41.5807 91.1667 36.343 88.6859 31.5006C86.3338 28.1496 83.4491 25.2061 80.1462 22.7868C79.3855 22.0105 78.45 21.4054 77.6116 20.7052C72.1662 23.7881 66.9261 27.2205 61.9244 30.9808C59.4846 32.8393 57.082 34.8134 54.7174 36.8264C53.2254 38.0603 51.79 39.3909 50.3353 40.7405C47.4456 43.3822 44.7849 46.18 42.1429 49.0356C34.6353 57.1521 28.0966 66.1138 22.6583 75.7402C21.4587 77.8289 20.342 79.9506 19.3082 82.1051C26.2883 89.2274 34.2175 95.61 39.7832 103.89C42.0927 107.334 44.0722 111.101 46.3251 114.448C49.0245 118.186 52.0082 121.711 55.2498 124.991L118.649 192.672C127.432 202.061 136.177 211.372 144.03 221.52C119.075 206.13 96.6156 187.021 77.4254 164.855C74.4242 161.405 71.2142 157.702 66.787 156.562C69.2861 173.593 85.508 184.594 96.1507 198.171C100.989 204.234 104.801 211.113 110.357 216.55C115.457 221.52 121.703 225.177 127.25 229.633C133.117 234.584 138.551 240.026 143.496 245.899C155.771 259.55 168.026 273.297 180.339 287.026C191.421 284.641 202.166 280.897 212.329 275.877C221.228 271.621 229.627 266.389 237.37 260.277V260.277ZM155.294 243.924C150.128 240.881 145.356 237.213 141.089 233.001L141.12 230.003C150.706 234.058 158.809 240.97 164.324 249.798C161.287 247.942 158.348 245.991 155.294 243.924Z" fill="black"/>
</g>
<defs>
<clipPath id="clip0_4937_7461">
<rect width="297" height="292" fill="white"/>
</clipPath>
</defs>
</svg>
