<svg width="303" height="303" viewBox="0 0 303 303" fill="none" xmlns="http://www.w3.org/2000/svg">
<path opacity="0.2" d="M172.733 20.9267C173.365 25.0545 173.594 29.234 173.417 33.4062C173.112 39.3718 171.845 45.3146 171.694 51.3058C171.545 58.8829 173.158 66.4556 173.511 74.028C173.865 81.6003 172.755 89.7841 167.852 95.6533C164.024 77.6035 159.071 59.8109 153.022 42.3796C150.371 34.7713 147.668 27.1464 145.68 19.4322C154.725 18.923 163.799 19.4242 172.733 20.9267Z" fill="black"/>
<path opacity="0.2" d="M154.638 234.379C157.996 245.201 160.601 256.243 162.434 267.426C163.148 272.499 163.578 277.608 163.721 282.729C160.891 282.98 158.053 283.182 155.248 283.277L155.048 282.025C151.745 266.328 151.605 250.13 154.638 234.379Z" fill="black"/>
<path opacity="0.2" d="M186.014 165.843C186.892 167.795 187.334 169.916 187.308 172.056C188.057 180.577 189.548 189.016 191.765 197.277C193.531 204.549 195.49 211.613 197.412 218.758C198.733 224.338 200.596 229.774 202.976 234.99C204.566 237.78 205.955 240.68 207.132 243.667C208.1 247.48 208.482 251.417 208.267 255.345C208.217 260.388 208.24 265.42 208.165 270.468C199.011 274.773 189.388 278 179.488 280.084C179.032 276.718 178.902 273.315 179.099 269.924C179.481 264.123 181.029 258.361 180.745 252.49C180.47 247.297 178.807 242.25 178.282 237.072C177.947 231.554 178.108 226.018 178.762 220.529C180.022 201.47 176.932 182.123 180.516 163.423C181.569 163.061 182.719 163.109 183.738 163.557C184.757 164.006 185.57 164.822 186.014 165.843Z" fill="black"/>
<path opacity="0.2" d="M235.758 210.568C238.038 216.171 237.66 222.475 239.768 228.105C240.567 230.269 241.686 232.23 242.603 234.35C243.96 237.366 244.995 240.518 245.691 243.751C241.463 248.15 236.925 252.24 232.112 255.991C231.548 248.544 231.396 241.07 231.658 233.606C231.804 229.478 232.045 225.311 232.195 221.208C232.346 218.842 231.665 210.794 233.073 209.209C233.848 208.229 235.234 209.493 235.758 210.568Z" fill="black"/>
<path opacity="0.2" d="M104.052 198.423C101.082 190.684 99.2171 182.565 98.5129 174.306C96.7138 163.769 96.0596 153.068 96.5617 142.391C97.4748 134.178 99.0746 126.056 101.344 118.111C102.566 113.308 103.966 108.2 107.703 104.959C126.332 127.01 128.986 158.436 126.817 187.258C125.488 204.944 122.725 222.481 119.934 239.997C120.186 238.421 114.926 231.658 114.138 229.719C113.114 226.777 112.618 223.676 112.675 220.561C111.836 212.16 107.337 205.905 104.052 198.423Z" fill="black"/>
<path opacity="0.2" d="M69.0978 224.528C76.8992 235.064 78.8716 248.673 79.5665 262.007C74.9608 259.028 70.546 255.764 66.3482 252.234C66.1393 242.921 67.0626 233.618 69.0978 224.528Z" fill="black"/>
<path opacity="0.2" d="M33.9213 91.014C34.3707 92.2514 34.6807 93.5615 35.0113 94.8431C37.2363 103.728 39.4838 112.911 38.5153 121.979C39.0697 115.52 34.2225 107.558 29.7868 99.8068C31.0455 96.811 32.4466 93.9184 33.9213 91.014Z" fill="black"/>
<path d="M172.735 20.9271C182.886 22.5368 192.803 25.3833 202.263 29.4032C206.589 31.1939 210.808 33.2354 214.897 35.5174C225.637 41.3746 235.492 48.7267 244.167 57.3537C245.848 59.0491 247.414 60.6619 249.009 62.4466C252.421 66.1058 255.568 70.0036 258.425 74.1103C260.346 76.6675 262.132 79.3236 263.775 82.0678C266.221 85.9839 268.448 90.0326 270.446 94.1953C273.081 99.7436 275.333 105.466 277.185 111.322C279.425 118.594 281.069 126.036 282.1 133.575C285.238 155.858 282.543 178.575 274.277 199.506C274.277 199.506 274.297 199.629 274.305 199.678C271.971 205.718 269.148 211.558 265.865 217.14C264.372 219.77 262.789 222.314 261.125 224.821C259.461 227.327 257.559 229.922 255.637 232.394C254.351 234.111 252.933 235.797 251.417 237.5C249.572 239.658 247.641 241.754 245.571 243.771C241.342 248.17 236.804 252.261 231.992 256.012C230.64 257.008 229.297 258.054 227.933 258.976C223.494 262.164 218.851 265.059 214.035 267.642C212.106 268.706 210.15 269.698 208.166 270.619C199.011 274.925 189.388 278.152 179.489 280.236C176.009 280.993 172.539 281.648 168.984 282.09C167.191 282.376 165.424 282.659 163.641 282.692C160.811 282.942 157.973 283.144 155.168 283.239C149.445 283.398 143.718 283.186 138.022 282.605C134.316 282.282 130.632 281.744 126.988 280.994C122.63 280.255 118.318 279.262 114.076 278.021C106.373 275.762 98.9004 272.783 91.7568 269.123C87.4993 267.032 83.3799 264.671 79.4236 262.054C74.8178 259.076 70.403 255.812 66.2052 252.282C61.8396 248.585 57.7081 244.621 53.8349 240.411C48.9437 235.096 44.5097 229.378 40.58 223.317C37.5932 218.781 34.9039 214.055 32.5291 209.17C30.6446 205.331 28.9576 201.399 27.4746 197.388C27.4746 197.388 27.4747 197.388 27.4511 197.241C18.0478 171.991 16.6297 144.461 23.3885 118.379C24.3125 114.706 25.4407 111.052 26.6907 107.528C27.5742 105.021 28.5558 102.497 29.5777 100.068C30.8285 97.023 32.2296 94.1303 33.7044 91.2259C34.4992 89.7394 35.2694 88.2567 36.1173 86.7869C39.0571 81.4916 42.3781 76.4171 46.054 71.6036C58.4089 55.2829 74.4033 42.0718 92.7639 33.0223C101.77 28.5305 111.269 25.1035 121.069 22.8105C125.154 21.9061 129.358 21.1088 133.596 20.5324C137.575 19.9821 141.58 19.6449 145.595 19.522C154.666 18.9767 163.769 19.448 172.735 20.9271Z" fill="#6E62E5"/>
<path opacity="0.2" d="M172.735 20.9271C182.886 22.5368 192.803 25.3833 202.263 29.4032C206.589 31.1939 210.808 33.2354 214.897 35.5174C225.637 41.3746 235.492 48.7267 244.167 57.3537C245.848 59.0491 247.414 60.6619 249.009 62.4466C252.421 66.1058 255.568 70.0036 258.425 74.1103C260.346 76.6675 262.132 79.3236 263.775 82.0678C266.221 85.9839 268.448 90.0326 270.446 94.1953C273.081 99.7436 275.333 105.466 277.185 111.322C279.425 118.594 281.069 126.036 282.1 133.575C285.238 155.858 282.543 178.575 274.277 199.506C274.277 199.506 274.297 199.629 274.305 199.678C271.971 205.718 269.148 211.558 265.865 217.14C264.372 219.77 262.789 222.314 261.125 224.821C259.461 227.327 257.559 229.922 255.637 232.394C254.351 234.111 252.933 235.797 251.417 237.5C249.572 239.658 247.641 241.754 245.571 243.771C241.342 248.17 236.804 252.261 231.992 256.012C230.64 257.008 229.297 258.054 227.933 258.976C223.494 262.164 218.851 265.059 214.035 267.642C212.106 268.706 210.15 269.698 208.166 270.619C199.011 274.925 189.388 278.152 179.489 280.236C176.009 280.993 172.539 281.648 168.984 282.09C167.191 282.376 165.424 282.659 163.641 282.692C160.811 282.942 157.973 283.144 155.168 283.239C149.445 283.398 143.718 283.186 138.022 282.605C134.316 282.282 130.632 281.744 126.988 280.994C122.63 280.255 118.318 279.262 114.076 278.021C106.373 275.762 98.9004 272.783 91.7568 269.123C87.4993 267.032 83.3799 264.671 79.4236 262.054C74.8178 259.076 70.403 255.812 66.2052 252.282C61.8396 248.585 57.7081 244.621 53.8349 240.411C48.9437 235.096 44.5097 229.378 40.58 223.317C37.5932 218.781 34.9039 214.055 32.5291 209.17C30.6446 205.331 28.9576 201.399 27.4746 197.388C27.4746 197.388 27.4747 197.388 27.4511 197.241C18.0478 171.991 16.6297 144.461 23.3885 118.379C24.3125 114.706 25.4407 111.052 26.6907 107.528C27.5742 105.021 28.5558 102.497 29.5777 100.068C30.8285 97.023 32.2296 94.1303 33.7044 91.2259C34.4992 89.7394 35.2694 88.2567 36.1173 86.7869C39.0571 81.4916 42.3781 76.4171 46.054 71.6036C58.4089 55.2829 74.4033 42.0718 92.7639 33.0223C101.77 28.5305 111.269 25.1035 121.069 22.8105C125.154 21.9061 129.358 21.1088 133.596 20.5324C137.575 19.9821 141.58 19.6449 145.595 19.522C154.666 18.9767 163.769 19.448 172.735 20.9271Z" fill="#131420"/>
<path opacity="0.2" d="M244.338 57.3267C246.018 59.022 247.585 60.6349 249.18 62.4196C252.592 66.0788 255.738 69.9766 258.596 74.0832C260.517 76.6404 262.303 79.2966 263.946 82.0408C264.04 82.63 263.836 83.2417 263.783 83.8545C260.615 114.259 259.73 144.859 261.134 175.396C261.862 191.771 263.178 208.681 261.124 224.821C259.373 227.417 257.558 229.923 255.636 232.395C257.113 215.323 257.183 198.158 255.847 181.074C254.486 166.563 251.489 152.212 250.581 137.704C249.717 124.573 250.584 111.241 247.825 98.3882C247.195 95.5432 246.441 92.7177 245.806 89.8482C243.932 80.2228 243.36 70.3891 244.107 60.6114C244.127 59.5132 244.204 58.4169 244.338 57.3267Z" fill="black"/>
<path opacity="0.2" d="M236.771 139.985C241.437 152.332 242.331 165.81 243.179 178.994C243.832 194.188 245.617 209.312 248.518 224.241C249.453 228.674 250.625 233.019 251.466 237.492C249.62 239.65 247.689 241.746 245.619 243.763C241.391 248.162 236.853 252.253 232.04 256.004C230.689 257 229.345 258.046 227.982 258.968C227.938 257.591 227.877 256.266 227.783 255.047C227.174 247.289 226.518 239.564 226.46 231.793C226.401 225.862 226.681 219.933 227.3 214.035C227.745 209.31 228.554 204.627 229.72 200.027C230.711 196.142 232.027 192.407 232.92 188.538C233.943 184.002 234.723 179.415 235.257 174.795C236.81 163.243 238.312 151.522 236.771 139.985Z" fill="black"/>
<path opacity="0.2" d="M215.019 35.4969C220.722 38.6138 226.185 42.151 231.363 46.0791C231.773 52.6397 231.595 59.2238 230.83 65.7525C230.173 71.001 229.982 76.2974 230.261 81.5794C230.951 88.4183 233.457 94.967 234.691 101.744C235.924 108.521 235.845 116.062 231.667 121.589C229.723 112.886 227.726 104.166 225.806 95.459C222.479 80.3048 219.422 65.1075 217.044 49.7513C216.312 45.009 215.604 40.2628 215.019 35.4969Z" fill="black"/>
<path opacity="0.2" d="M248.794 66.3074C248.939 65.3274 249.071 63.9467 249.18 62.4188C252.592 66.078 255.738 69.9758 258.596 74.0824C257.969 80.7965 257.852 87.5485 258.247 94.2803C258.85 105.464 260.741 117.297 255.711 127.417L254.979 112.905C254.867 103.214 253.621 93.5682 251.269 84.1658C250.052 80.7554 249.129 77.2471 248.511 73.6793C248.329 71.2191 248.424 68.7464 248.794 66.3074Z" fill="black"/>
<path opacity="0.2" d="M270.617 94.1671C273.253 99.7154 275.504 105.438 277.357 111.294C279.597 118.566 281.24 126.008 282.271 133.547C285.36 155.854 282.605 178.581 274.277 199.505C274.277 199.505 274.296 199.628 274.304 199.677C271.971 205.717 269.148 211.557 265.864 217.139C264.476 208.448 266.013 196.318 266.051 192.46C266.176 182.369 266.299 172.102 266.564 161.938C267.186 139.355 268.59 116.622 270.617 94.1671Z" fill="black"/>
<path opacity="0.2" d="M277.414 111.336C279.654 118.608 281.297 126.05 282.328 133.589C285.391 155.887 282.617 178.6 274.277 199.506C274.484 197.721 274.417 195.914 274.076 194.15C273.805 192.456 272.97 190.852 272.45 189.173C271.97 187.009 271.661 184.81 271.526 182.598C270.751 174.242 270.654 165.837 271.237 157.466C271.926 149.803 273.88 142.491 275.202 135.004C276.538 127.182 277.277 119.27 277.414 111.336Z" fill="black"/>
<path opacity="0.2" d="M108.793 75.0509C110.489 75.7367 111.187 77.7402 112.001 79.3725C114.946 86.3042 120.723 91.5751 124.871 97.8364C131.51 107.879 133.881 120.039 136.119 131.842C137.493 138.42 138.464 145.076 139.026 151.772C139.261 157.67 139.129 163.578 138.629 169.46C137.717 182.194 136.202 194.773 134.613 207.364C131.685 230.492 128.39 253.678 127.668 277.057C127.596 278.398 127.448 279.733 127.224 281.056C122.866 280.317 118.554 279.325 114.312 278.083C112.865 270.761 113.056 262.497 112.157 255.768C109.53 235.541 101.3 216.488 92.3492 198.128C89.5008 192.885 87.2854 187.323 85.7494 181.558C84.0407 173.698 85.0316 165.559 86.0293 157.619C87.2689 148.357 88.5085 139.095 89.8336 129.895C90.4282 125.036 91.43 120.235 92.8283 115.544C94.2287 111.544 96.1386 107.739 97.7511 103.805C100.262 97.457 101.782 90.7604 102.259 83.9501C102.242 81.799 102.664 79.667 103.498 77.6843C103.918 76.6832 104.684 75.8664 105.656 75.383C106.628 74.8996 107.741 74.7817 108.793 75.0509Z" fill="black"/>
<path opacity="0.2" d="M92.957 32.8149C93.2569 35.8208 93.3444 38.844 93.2189 41.8622C92.979 47.1375 90.8258 53.6752 85.5582 54.1138C87.691 66.3619 89.7637 79.652 84.4394 90.9261C82.5246 86.3475 80.6099 81.7689 78.6214 77.202L78.7897 202.61C78.5969 206.296 78.9159 209.99 79.7376 213.587C81.6771 221.158 87.5029 227.051 90.5895 234.237C94.2699 243.091 94.5678 257.722 91.9489 269.067C87.6914 266.976 83.5719 264.615 79.6156 261.998C75.0098 259.02 70.5951 255.756 66.3972 252.226C62.0316 248.529 57.9002 244.564 54.0269 240.355C52.0606 213.703 55.14 186.8 58.238 160.171C60.5866 169.514 62.9274 178.808 65.2269 188.16C66.5494 193.286 68.0082 198.794 72.0729 202.173C72.3675 186.364 71.9875 170.588 70.9328 154.845C70.3143 145.93 69.4877 136.973 68.6405 128.044C67.1497 112.722 65.6916 97.3954 64.2663 82.0633C64.2908 80.6246 63.8986 79.2095 63.137 77.9887C62.7179 77.3989 62.0821 76.9992 61.3689 76.8772C60.6558 76.7552 59.9233 76.9208 59.3319 77.3377C59.0362 77.7051 58.8166 78.1277 58.6858 78.5809C58.555 79.034 58.5157 79.5086 58.5702 79.9771L57.5924 94.6608C57.3045 99.1633 55.3066 105.097 50.9212 104.438C49.6348 96.3853 48.6066 88.2157 47.4843 80.0863C47.0293 77.2384 46.5665 74.3413 46.3453 71.3805C58.6741 55.0774 74.6336 41.8728 92.957 32.8149Z" fill="black"/>
<path opacity="0.2" d="M36.3344 86.5757C38.4338 93.2059 39.7887 100.049 40.3742 106.979C41.8601 122.427 40.7534 138.038 40.0769 153.504C39.7371 157.679 39.9009 161.88 40.5648 166.015C41.4494 170.607 43.5499 174.93 44.3157 179.566C45.4727 186.809 43.6169 194.104 42.2442 201.273C41.4428 205.555 41.8548 215.384 40.7343 223.343C37.7474 218.806 35.0581 214.08 32.6833 209.195C32.7029 209.055 32.7311 208.916 32.7679 208.779C34.6874 198.911 35.346 188.84 34.7276 178.806C34.3481 156.887 33.8675 134.807 28.8527 113.503C28.4069 111.423 27.7537 109.393 26.9029 107.444C27.7864 104.936 28.768 102.413 29.7899 99.9835C31.0408 96.9386 32.4419 94.0459 33.9166 91.1415C34.7163 89.5283 35.4866 88.0456 36.3344 86.5757Z" fill="black"/>
<path opacity="0.2" d="M23.5885 118.22C29.9866 136.837 30.8773 156.912 29.315 176.448C29.0877 183.355 28.5078 190.246 27.5776 197.094C18.1743 171.844 16.7561 144.315 23.5149 118.232L23.5885 118.22Z" fill="black"/>
<path opacity="0.2" d="M145.789 19.3149C141.774 19.4378 137.768 19.775 133.789 20.3253C129.567 20.9999 125.344 21.6745 121.262 22.6034C121.223 25.7697 121.633 28.9255 122.483 31.976C125.872 46.4153 129.229 60.8094 132.569 75.2566C136.951 69.7476 135.913 61.8314 134.074 55.0502C132.236 48.2689 129.754 41.0869 131.929 34.3695C140.567 43.5705 146.083 55.2624 147.69 67.7804C148.784 76.3673 147.953 85.1865 150.182 93.4664C152.07 100.718 156.291 107.597 156.633 115.096C156.631 118.763 156.298 122.424 155.635 126.031C150.811 165.021 178.1 203.615 169.919 242.084C163.8 220.066 157.766 198.051 151.816 176.04C144.823 186.8 147.615 200.806 148.043 213.578C148.533 227.683 145.882 241.72 140.282 254.674C137.935 259.064 136.37 263.83 135.658 268.757C135.64 272.503 136.235 276.227 137.419 279.78C137.576 280.763 137.954 281.709 138.209 282.676C143.905 283.257 149.633 283.469 155.356 283.31C158.161 283.215 160.999 283.013 163.829 282.762C165.595 282.631 167.371 282.398 169.171 282.161C172.726 281.719 176.193 281.039 179.676 280.306C189.575 278.223 199.199 274.996 208.353 270.69C210.354 269.766 212.31 268.774 214.222 267.713C212.783 258.703 210.244 249.742 210.473 240.616C210.572 236.824 211.088 232.965 211.179 229.274C211.143 225.055 210.782 220.845 210.099 216.682L198.607 132.611C197.022 120.956 195.425 109.377 194.936 97.647C205.413 122.342 212.061 148.492 214.65 175.192C215.063 179.356 215.499 183.818 218.2 187.013C225.349 172.979 219.066 156.183 218.309 140.416C217.908 133.33 218.704 126.178 217.435 119.18C216.26 112.771 213.534 106.736 211.753 100.474C209.995 93.6737 208.819 86.7357 208.238 79.7356C206.303 63.0499 204.433 46.3032 202.511 29.5399C192.978 25.4537 182.977 22.5609 172.735 20.9271C163.84 19.3932 154.803 18.8525 145.789 19.3149ZM198.387 74.9645C200.633 79.9698 202.252 85.2334 203.207 90.6356L201.598 92.8565C196.589 84.7561 194.2 75.3081 194.758 65.8005C196.042 68.793 197.203 71.8051 198.387 74.9645Z" fill="black"/>
</svg>
