<svg width="110" height="165" viewBox="0 0 110 165" fill="none" xmlns="http://www.w3.org/2000/svg">
<g id="Group 11">
<path id="Vector" d="M78.2382 67.0139C52.683 28.8733 21.5917 4.93601 8.76457 13.5313C-4.06258 22.1266 6.26858 60.0051 31.8198 98.1212C57.371 136.237 88.4908 160.195 101.293 151.604C114.096 143.012 103.789 105.13 78.2382 67.0139ZM37.4614 94.3498C15.1114 60.9845 5.48105 28.2812 15.9431 21.2723C26.4052 14.2633 52.9809 35.6236 75.327 68.9644C97.6732 102.305 107.328 135.005 96.8698 142.038C86.4117 149.072 59.8076 127.691 37.4614 94.3498Z" fill="#6E62E5"/>
<path id="Vector_2" opacity="0.6" d="M78.2382 67.0139C52.683 28.8733 21.5917 4.93601 8.76457 13.5313C-4.06258 22.1266 6.26858 60.0051 31.8198 98.1212C57.371 136.237 88.4908 160.195 101.293 151.604C114.096 143.012 103.789 105.13 78.2382 67.0139ZM37.4614 94.3498C15.1114 60.9845 5.48105 28.2812 15.9431 21.2723C26.4052 14.2633 52.9809 35.6236 75.327 68.9644C97.6732 102.305 107.328 135.005 96.8698 142.038C86.4117 149.072 59.8076 127.691 37.4614 94.3498Z" fill="#131420"/>
<path id="Vector_3" d="M76.2584 68.3364C55.6321 37.566 30.8588 18.0326 20.9222 24.7058C10.9856 31.379 19.6306 61.6968 40.2569 92.4672C60.8832 123.238 85.6564 142.771 95.593 136.098C105.53 129.425 96.8847 99.1069 76.2584 68.3364ZM44.6217 89.5291C26.6016 62.6225 18.5134 36.4206 26.6556 30.9656C34.7978 25.5106 55.9636 42.9514 74.0082 69.854C92.0528 96.7567 100.116 122.963 91.9742 128.418C83.832 133.873 62.6663 116.432 44.6217 89.5291Z" fill="#6E62E5"/>
<path id="Vector_4" opacity="0.5" d="M76.2584 68.3364C55.6321 37.566 30.8588 18.0326 20.9222 24.7058C10.9856 31.379 19.6306 61.6968 40.2569 92.4672C60.8832 123.238 85.6564 142.771 95.593 136.098C105.53 129.425 96.8847 99.1069 76.2584 68.3364ZM44.6217 89.5291C26.6016 62.6225 18.5134 36.4206 26.6556 30.9656C34.7978 25.5106 55.9636 42.9514 74.0082 69.854C92.0528 96.7567 100.116 122.963 91.9742 128.418C83.832 133.873 62.6663 116.432 44.6217 89.5291Z" fill="#131420"/>
<path id="Vector_5" d="M74.2806 69.6604C58.0854 45.5088 38.5933 30.1925 30.8322 35.5111C23.071 40.8297 29.8351 64.5744 46.0303 88.7259C62.2255 112.878 81.6439 128.206 89.4698 122.977C97.2957 117.749 90.4512 93.8159 74.2806 69.6604ZM49.4316 86.2187C35.2803 65.0893 28.9445 44.4989 35.3129 40.2337C41.6813 35.9685 58.3191 49.651 72.4911 70.752C86.6631 91.8529 92.9536 112.476 86.5852 116.741C80.2168 121.006 63.5251 107.458 49.4473 86.3169L49.4316 86.2187Z" fill="#6E62E5"/>
<path id="Vector_6" opacity="0.7" d="M74.2806 69.6604C58.0854 45.5088 38.5933 30.1925 30.8322 35.5111C23.071 40.8297 29.8351 64.5744 46.0303 88.7259C62.2255 112.878 81.6439 128.206 89.4698 122.977C97.2957 117.749 90.4512 93.8159 74.2806 69.6604ZM49.4316 86.2187C35.2803 65.0893 28.9445 44.4989 35.3129 40.2337C41.6813 35.9685 58.3191 49.651 72.4911 70.752C86.6631 91.8529 92.9536 112.476 86.5852 116.741C80.2168 121.006 63.5251 107.458 49.4473 86.3169L49.4316 86.2187Z" fill="#131420"/>
<path id="Vector_7" d="M48.1298 121.632C69.7115 125.439 90.293 111.03 94.1 89.4479C97.907 67.8662 83.4977 47.2846 61.916 43.4776C40.3343 39.6706 19.7527 54.08 15.9457 75.6617C12.1388 97.2434 26.548 117.825 48.1298 121.632Z" fill="#6E62E5"/>
<path id="Vector_8" opacity="0.2" d="M77.3484 49.7824C82.3094 53.1819 86.435 57.6619 89.415 62.8856C92.3951 68.1093 94.152 73.9407 94.5536 79.9412C94.7026 80.8742 94.6346 81.8669 94.6324 82.7988C94.6001 92.0521 91.3146 100.999 85.3511 108.074C84.6713 108.863 83.9876 109.627 83.1979 110.357C81.0559 112.556 78.6609 114.494 76.0632 116.13C74.719 117.005 73.3105 117.777 71.8498 118.439C67.5931 120.487 62.9956 121.734 58.2873 122.116C58.0465 122.181 57.7997 122.22 57.5508 122.234C56.3773 122.296 55.2529 122.349 54.1128 122.305C50.2041 122.239 46.3283 121.576 42.6199 120.339C41.2422 119.923 39.8972 119.406 38.596 118.791C32.0541 115.829 26.4361 111.152 22.3379 105.255C18.2397 99.3576 15.8143 92.4612 15.319 85.2971C15.0313 80.9884 15.4723 76.662 16.6233 72.4999C16.6831 72.1555 16.7813 71.8189 16.9161 71.4964C18.037 67.5156 19.8289 63.7553 22.2148 60.3774C22.2148 60.3774 22.3515 60.129 22.4585 60.0112C24.9192 56.4152 27.9875 53.2754 31.5258 50.7325C32.3041 50.1116 33.1338 49.558 34.0057 49.0774C34.7735 48.5376 35.58 48.0554 36.4189 47.6345C37.7364 46.9267 39.1023 46.3131 40.5064 45.7982C44.2692 44.2926 48.2447 43.3856 52.2882 43.1104C61.1559 42.4355 69.9903 44.7875 77.3484 49.7824Z" fill="#131420"/>
<g id="Group" opacity="0.2">
<path id="Vector_9" d="M38.1942 118.479C31.771 115.482 26.2704 110.816 22.2669 104.967C18.2633 99.118 15.9037 92.3015 15.4346 85.2292C15.1602 81.3511 15.4802 77.4537 16.3832 73.6722C19.2142 86.0354 24.267 104.112 38.1942 118.479Z" fill="#6E62E5"/>
<path id="Vector_10" d="M62.821 82.0898C67.3707 89.9234 73.8538 106.235 80.467 112.959C80.0167 113.392 79.5329 113.789 79.0202 114.147C75.4261 110.396 71.5087 106.969 67.3133 103.906C58.312 96.7333 50.5706 93.6646 47.8028 79.8058C45.035 65.9471 57.701 73.3653 62.821 82.0898Z" fill="#6E62E5"/>
<path id="Vector_11" d="M20.104 63.7114C23.6117 75.7399 33.62 104.505 52.8669 122.228C51.4165 122.132 50.0035 121.955 48.5335 121.736C39.9232 109.919 23.427 87.9806 18.1123 68.1084C18.6749 66.5989 19.3404 65.1298 20.104 63.7114Z" fill="#6E62E5"/>
<path id="Vector_12" d="M28.9458 52.7063C31.3301 60.4678 34.2256 68.063 37.6133 75.442C44.8489 90.4754 59.5014 110.644 69.8083 119.37C67.6608 120.252 65.4315 120.921 63.1528 121.365C52.6913 110.095 29.2596 82.5673 24.5414 57.2873C25.873 55.6347 27.3468 54.1018 28.9458 52.7063Z" fill="#6E62E5"/>
<path id="Vector_13" d="M69.4112 45.6384C70.507 46.0067 71.5726 46.4594 72.5984 46.9924C77.9996 58.2652 87.0895 80.178 94.027 89.72C93.7478 91.3737 93.3433 93.0038 92.817 94.5963C87.7794 82.1324 73.9914 56.8158 69.4112 45.6384Z" fill="#6E62E5"/>
<path id="Vector_14" d="M62.6395 43.5978C66.9907 52.1135 70.3136 61.1164 72.5383 70.4169C73.5502 76.7511 83.9119 94.3316 90.6176 100.058C90.3544 100.641 90.0487 101.203 89.7029 101.74C80.2568 86.5817 60.176 69.4711 53.8068 61.1225C49.833 55.9765 46.3634 50.4601 43.4459 44.6497C46.345 43.7144 49.3487 43.1416 52.3885 42.9442C55.8194 42.7234 59.2644 42.9431 62.6395 43.5978Z" fill="#6E62E5"/>
</g>
<path id="Vector_15" opacity="0.2" d="M40.6062 45.6321C41.7389 48.3784 43.0086 51.0662 44.4104 53.6854C49.7579 63.8338 68.4875 80.6819 78.4145 96.6449C82.1182 102.65 84.2532 106.085 85.433 108.113C84.7533 108.901 84.0696 109.665 83.2799 110.395C79.632 105.949 76.2774 101.271 73.2374 96.3893C66.9296 86.218 58.8837 75.5691 52.2153 69.7609C47.1483 65.3082 39.5044 53.2355 36.4773 47.5253C37.8065 46.7963 39.1864 46.1636 40.6062 45.6321Z" fill="black"/>
<path id="Vector_16" opacity="0.2" d="M34.0314 48.9219C38.0561 58.4019 41.5 68.118 44.3441 78.0164C49.0222 94.692 57.587 99.9204 65.8658 105.723C69.7974 108.64 73.2539 112.147 76.1125 116.121C74.7683 116.996 73.3598 117.768 71.8991 118.431C64.1442 111.654 57.2958 103.904 51.5232 95.3752C41.4171 80.4982 34.1901 58.741 31.6497 50.5612C32.3973 49.9504 33.1939 49.4021 34.0314 48.9219Z" fill="black"/>
<path id="Vector_17" opacity="0.2" d="M22.5581 59.8448C26.8079 74.2713 33.383 87.9078 42.0243 100.217C49.1463 110.283 54.6369 117.388 58.4105 122.097C58.1697 122.162 57.9229 122.201 57.674 122.215C56.5004 122.276 55.376 122.33 54.2359 122.286C45.7198 111.057 27.6584 84.8371 22.3223 60.2601C22.3194 60.0843 22.4511 59.9626 22.5581 59.8448Z" fill="black"/>
<path id="Vector_18" opacity="0.2" d="M77.3978 49.7752C82.3588 53.1747 86.4845 57.6547 89.4645 62.8784C92.4445 68.1021 94.2014 73.9335 94.6029 79.934C94.752 80.867 94.684 81.8597 94.6818 82.7916C89.4692 75.0639 80.6603 60.584 77.3978 49.7752Z" fill="black"/>
<path id="Vector_19" opacity="0.2" d="M17.0158 71.33C20.917 80.7779 31.2348 104.861 38.7841 114.608C40.2216 116.408 41.5414 118.3 42.7352 120.271C41.3575 119.855 40.0126 119.338 38.7113 118.723C34.1526 111.621 25.6823 97.8424 23.0025 89.7353C20.6474 82.5582 18.3197 76.1824 16.7308 72.3826C16.7844 72.0218 16.8801 71.6686 17.0158 71.33Z" fill="black"/>
<path id="Vector_20" opacity="0.2" d="M89.4584 93.7484C89.4584 93.7484 78.2765 80.8057 76.1647 74.5213C74.8716 70.7087 73.8691 66.8036 73.1657 62.8396C73.1657 62.8396 87.1389 81.9078 89.4584 93.7484Z" fill="black"/>
<path id="Vector_21" d="M100.536 136.139C100.081 138.526 98.7242 140.645 96.7477 142.057C86.2856 149.066 59.6853 127.71 37.3392 94.3688C14.993 61.028 5.35881 28.3002 15.8209 21.2913C17.8793 20.0616 20.3316 19.6698 22.6707 20.197L17.2118 12.0303C14.2621 11.4716 11.2101 12.031 8.65025 13.5994C-4.17689 22.1947 6.15427 60.0733 31.7055 98.1894C57.2567 136.305 88.3764 160.263 101.179 151.672C103.61 149.909 105.287 147.295 105.876 144.35L100.536 136.139Z" fill="#6E62E5"/>
<path id="Vector_22" opacity="0.6" d="M100.536 136.139C100.081 138.526 98.7242 140.645 96.7477 142.057C86.2856 149.066 59.6853 127.71 37.3392 94.3688C14.993 61.028 5.35881 28.3002 15.8209 21.2913C17.8793 20.0616 20.3316 19.6698 22.6707 20.197L17.2118 12.0303C14.2621 11.4716 11.2101 12.031 8.65025 13.5994C-4.17689 22.1947 6.15427 60.0733 31.7055 98.1894C57.2567 136.305 88.3764 160.263 101.179 151.672C103.61 149.909 105.287 147.295 105.876 144.35L100.536 136.139Z" fill="#131420"/>
<path id="Vector_23" d="M93.8789 126.15C93.4323 127.029 92.7741 127.783 91.9635 128.345C83.8419 133.771 62.6555 116.359 44.6109 89.4561C26.5663 62.5534 18.5026 36.3475 26.6448 30.8925C27.4782 30.3586 28.4284 30.0341 29.4143 29.9466L24.9871 23.3523C23.5372 23.3996 22.1278 23.8424 20.9114 24.6328C10.967 31.2569 19.6198 61.6237 40.2461 92.3942C60.8724 123.165 85.6456 142.698 95.5822 136.025C96.7752 135.203 97.7179 134.068 98.3061 132.745L93.8789 126.15Z" fill="#6E62E5"/>
<path id="Vector_24" opacity="0.5" d="M93.8789 126.15C93.4323 127.029 92.7741 127.783 91.9635 128.345C83.8419 133.771 62.6555 116.359 44.6109 89.4561C26.5663 62.5534 18.5026 36.3475 26.6448 30.8925C27.4782 30.3586 28.4284 30.0341 29.4143 29.9466L24.9871 23.3523C23.5372 23.3996 22.1278 23.8424 20.9114 24.6328C10.967 31.2569 19.6198 61.6237 40.2461 92.3942C60.8724 123.165 85.6456 142.698 95.5822 136.025C96.7752 135.203 97.7179 134.068 98.3061 132.745L93.8789 126.15Z" fill="#131420"/>
<path id="Vector_25" d="M87.2124 116.263C87.0201 116.467 86.8155 116.66 86.5995 116.839C80.2311 121.104 63.5973 107.446 49.4459 86.3168C35.2946 65.1873 28.9588 44.5971 35.3272 40.3318C35.5791 40.2012 35.8378 40.0842 36.1022 39.9814L32.5329 34.66C31.922 34.8124 31.3412 35.067 30.8151 35.4128C23.0137 40.6371 29.8181 64.476 46.0132 88.6276C62.2084 112.779 81.6268 128.107 89.4527 122.879C89.9565 122.523 90.4055 122.095 90.7856 121.609L87.2124 116.263Z" fill="#6E62E5"/>
<path id="Vector_26" opacity="0.7" d="M87.2124 116.263C87.0201 116.467 86.8155 116.66 86.5995 116.839C80.2311 121.104 63.5973 107.446 49.4459 86.3168C35.2946 65.1873 28.9588 44.5971 35.3272 40.3318C35.5791 40.2012 35.8378 40.0842 36.1022 39.9814L32.5329 34.66C31.922 34.8124 31.3412 35.067 30.8151 35.4128C23.0137 40.6371 29.8181 64.476 46.0132 88.6276C62.2084 112.779 81.6268 128.107 89.4527 122.879C89.9565 122.523 90.4055 122.095 90.7856 121.609L87.2124 116.263Z" fill="#131420"/>
</g>
</svg>
