<svg width="185" height="186" viewBox="0 0 185 186" fill="none" xmlns="http://www.w3.org/2000/svg">
<path d="M81.2592 121.244C128.156 139.088 171.008 140.769 177.009 124.996C183.009 109.224 149.85 81.9879 102.972 64.1636C56.0938 46.3393 13.2033 44.6576 7.22217 60.4114C1.24103 76.1651 34.3812 103.42 81.2592 121.244ZM100.327 71.0928C141.348 86.7058 170.61 109.771 165.715 122.634C160.82 135.497 123.623 133.258 82.6212 117.665C41.6197 102.071 12.3378 79.0247 17.2139 66.1421C22.09 53.2595 59.3255 55.4991 100.327 71.0928Z" fill="#6E62E5"/>
<path opacity="0.6" d="M81.2592 121.244C128.156 139.088 171.008 140.769 177.009 124.996C183.009 109.224 149.85 81.9879 102.972 64.1636C56.0938 46.3393 13.2033 44.6576 7.22217 60.4114C1.24103 76.1651 34.3812 103.42 81.2592 121.244ZM100.327 71.0928C141.348 86.7058 170.61 109.771 165.715 122.634C160.82 135.497 123.623 133.258 82.6212 117.665C41.6197 102.071 12.3378 79.0247 17.2139 66.1421C22.09 53.2595 59.3255 55.4991 100.327 71.0928Z" fill="white"/>
<path d="M82.1874 118.814C120.031 133.203 154.466 134.954 159.105 122.722C163.744 110.49 136.868 88.9286 99.0247 74.5389C61.1815 60.1493 26.7464 58.3992 22.1074 70.6308C17.4684 82.8625 44.3442 104.424 82.1874 118.814ZM96.9912 79.9179C130.068 92.5109 153.845 110.755 150.036 120.766C146.226 130.778 116.33 128.612 83.2338 116.038C50.1377 103.464 26.3799 85.2006 30.1894 75.1895C33.999 65.1784 63.8951 67.344 96.9912 79.9179Z" fill="#6E62E5"/>
<path opacity="0.5" d="M82.1874 118.814C120.031 133.203 154.466 134.954 159.105 122.722C163.744 110.49 136.868 88.9286 99.0247 74.5389C61.1815 60.1493 26.7464 58.3992 22.1074 70.6308C17.4684 82.8625 44.3442 104.424 82.1874 118.814ZM96.9912 79.9179C130.068 92.5109 153.845 110.755 150.036 120.766C146.226 130.778 116.33 128.612 83.2338 116.038C50.1377 103.464 26.3799 85.2006 30.1894 75.1895C33.999 65.1784 63.8951 67.344 96.9912 79.9179Z" fill="white"/>
<path d="M83.113 116.382C112.821 127.673 139.882 129.003 143.438 119.354C146.994 109.706 125.951 92.8147 96.2428 81.5239C66.5348 70.2331 39.5323 68.8462 35.8614 78.4552C32.1904 88.0642 53.4244 105.072 83.113 116.382ZM94.7959 85.9096C120.771 95.7984 139.438 110.148 136.457 117.977C133.477 125.806 109.994 124.128 84.0181 114.278C58.0426 104.427 39.3956 90.0199 42.3761 82.191C45.3565 74.3621 68.8029 75.8861 94.7198 85.832L94.7959 85.9096Z" fill="#6E62E5"/>
<path opacity="0.7" d="M83.113 116.382C112.821 127.673 139.882 129.003 143.438 119.354C146.994 109.706 125.951 92.8147 96.2428 81.5239C66.5348 70.2331 39.5323 68.8462 35.8614 78.4552C32.1904 88.0642 53.4244 105.072 83.113 116.382ZM94.7959 85.9096C120.771 95.7984 139.438 110.148 136.457 117.977C133.477 125.806 109.994 124.128 84.0181 114.278C58.0426 104.427 39.3956 90.0199 42.3761 82.191C45.3565 74.3621 68.8029 75.8861 94.7198 85.832L94.7959 85.9096Z" fill="white"/>
<path d="M73.5664 53.5167C51.9197 63.7684 42.6823 89.627 52.934 111.274C63.1857 132.92 89.0444 142.158 110.691 131.906C132.338 121.654 141.575 95.7956 131.323 74.149C121.072 52.5024 95.213 43.265 73.5664 53.5167Z" fill="#6E62E5"/>
<path opacity="0.2" d="M92.947 136.043C86.375 136.149 79.8645 134.764 73.9051 131.991C67.9457 129.219 62.6924 125.131 58.5404 120.035C57.8177 119.298 57.2506 118.37 56.6634 117.538C50.8416 109.268 48.1135 99.2149 48.9564 89.1369C49.0639 88.0043 49.1905 86.8911 49.4326 85.7406C49.9518 82.4259 50.8617 79.1842 52.1433 76.0834C52.7883 74.4534 53.5558 72.8746 54.4392 71.3605C56.9389 66.8432 60.2493 62.8251 64.2047 59.5072C64.3787 59.2975 64.5738 59.1063 64.7869 58.9366C65.7942 58.1397 66.7626 57.3809 67.8071 56.6997C71.3333 54.287 75.2076 52.4275 79.2957 51.1856C80.7868 50.6852 82.3129 50.296 83.8615 50.0211C91.5662 48.5255 99.5322 49.1434 106.914 51.8093C114.296 54.4751 120.819 59.0896 125.79 65.163C128.771 68.8222 131.113 72.9579 132.718 77.396C132.883 77.7409 133.008 78.1031 133.092 78.4758C134.61 82.7333 135.39 87.2185 135.398 91.7384C135.398 91.7384 135.434 92.0462 135.413 92.2189C135.493 96.9804 134.743 101.72 133.196 106.224C132.895 107.269 132.505 108.287 132.032 109.267C131.689 110.234 131.275 111.174 130.793 112.079C130.066 113.543 129.236 114.954 128.31 116.301C125.907 120.022 122.937 123.344 119.506 126.146C112.028 132.355 102.665 135.843 92.947 136.043Z" fill="white"/>
<g opacity="0.2">
<path d="M84.4174 50.0458C92.0382 48.6561 99.8923 49.3383 107.159 52.021C114.427 54.7038 120.84 59.2886 125.73 65.2968C128.426 68.5806 130.605 72.2573 132.191 76.1993C121.851 66.9678 105.917 54.0481 84.4174 50.0458Z" fill="#6E62E5"/>
<path d="M85.4704 98.0569C76.4615 93.95 60.3684 83.5076 50.2219 81.695C50.3493 81.024 50.5294 80.364 50.7606 79.7213C56.336 80.7924 61.9949 81.3703 67.6717 81.4484C80.2313 82.1515 89.0728 79.9926 100.303 90.5974C111.533 101.202 95.5509 102.597 85.4704 98.0569Z" fill="#6E62E5"/>
<path d="M135.172 87.4322C124.439 78.9269 97.3294 59.6111 68.9661 55.9815C70.3195 55.1497 71.6912 54.4142 73.1397 53.6794C88.2875 58.7705 116.864 67.8977 134.167 82.2531C134.62 83.9544 134.956 85.6849 135.172 87.4322Z" fill="#6E62E5"/>
<path d="M134.247 102.833C127.215 97.4214 119.831 92.4812 112.145 88.0449C96.1899 79.2179 70.3758 70.5028 55.6698 69.24C57.0265 67.0957 58.5914 65.0906 60.3418 63.2536C76.7937 66.6861 115.087 76.4111 135.277 95.9644C135.135 98.2797 134.791 100.578 134.247 102.833Z" fill="#6E62E5"/>
<path d="M102.644 134.719C101.434 135.083 100.198 135.353 98.9463 135.527C87.0038 128.892 65.0455 115.105 52.8278 110.985C52.031 109.334 51.3609 107.625 50.8233 105.873C63.1948 113.799 91.4934 127.65 102.644 134.719Z" fill="#6E62E5"/>
<path d="M109.97 132.257C100.707 127.416 92.0524 121.491 84.1886 114.607C79.2816 109.6 58.9287 100.479 49.3299 99.6131C49.1964 98.9276 49.1134 98.2331 49.0818 97.5353C67.0872 105.076 95.8073 107.634 106.764 111.049C113.56 113.124 120.141 115.848 126.416 119.183C124.423 121.85 122.107 124.26 119.522 126.358C116.603 128.724 113.393 130.706 109.97 132.257Z" fill="#6E62E5"/>
</g>
<path opacity="0.2" d="M128.326 116.512C125.58 114.78 122.749 113.186 119.843 111.738C108.659 106.072 81.3096 102.894 62.3669 94.9402C55.2684 91.9286 51.1929 90.2158 48.8594 89.1546C48.9669 88.022 49.0934 86.9088 49.3355 85.7583C55.3985 87.4151 61.3472 89.4649 67.1437 91.8947C79.198 96.9738 93.1038 101.38 102.721 102.342C110.053 103.107 124.501 109.037 130.81 112.213C130.086 113.704 129.256 115.14 128.326 116.512Z" fill="black"/>
<path opacity="0.2" d="M132.107 109.421C122.525 103.515 113.312 97.0308 104.518 90.0049C89.804 78.0967 78.8629 78.851 67.8136 78.9125C62.4646 78.7983 57.1655 77.8568 52.1045 76.1215C52.7495 74.4915 53.517 72.9126 54.4004 71.3985C65.5988 72.5372 76.6036 75.1153 87.1425 79.0691C105.558 85.9417 125.757 100.768 133.194 106.454C132.914 107.471 132.55 108.464 132.107 109.421Z" fill="black"/>
<path opacity="0.2" d="M135.429 92.4301C122.519 82.2561 108.035 74.2568 92.549 68.7471C79.8353 64.2762 70.4487 61.4145 64.1068 59.602C64.2807 59.3923 64.4759 59.201 64.689 59.0313C65.6963 58.2345 66.6647 57.4756 67.7092 56.7944C82.4005 61.4198 115.08 73.3747 135.376 91.9107C135.49 92.0656 135.45 92.2573 135.429 92.4301Z" fill="black"/>
<path opacity="0.2" d="M92.9079 136.081C86.3359 136.187 79.8254 134.802 73.866 132.029C67.9065 129.257 62.6533 125.169 58.5013 120.073C57.7786 119.336 57.2115 118.408 56.6243 117.576C66.1572 121.169 83.1653 128.508 92.9079 136.081Z" fill="black"/>
<path opacity="0.2" d="M133.108 78.6877C123.657 72.7318 99.2312 57.7857 86.3389 53.8702C83.9188 53.1739 81.5462 52.3219 79.2358 51.3198C80.7269 50.8194 82.253 50.4302 83.8016 50.1554C92.356 53.6043 108.619 60.5321 116.134 66.065C122.771 70.9742 128.878 75.1863 132.697 77.5691C132.877 77.9247 133.015 78.3001 133.108 78.6877Z" fill="black"/>
<path opacity="0.2" d="M54.3532 104.505C54.3532 104.505 72.505 108.973 78.361 113.24C81.9244 115.822 85.2871 118.669 88.4206 121.758C88.4206 121.758 63.9075 113.594 54.3532 104.505Z" fill="black"/>
<path d="M17.6749 73.7187C16.5718 71.3038 16.4413 68.5568 17.3104 66.0482C22.2055 53.185 59.4221 55.4051 100.424 70.9988C141.425 86.5925 170.707 109.677 165.811 122.54C164.754 124.938 162.816 126.838 160.397 127.847L170.427 131.676C173.41 130.309 175.777 127.88 177.067 124.864C183.068 109.091 149.908 81.8551 103.03 64.0308C56.1522 46.2066 13.2618 44.5248 7.28063 60.2785C6.228 63.387 6.3859 66.7781 7.72283 69.7753L17.6749 73.7187Z" fill="#6E62E5"/>
<path opacity="0.6" d="M17.6749 73.7187C16.5718 71.3038 16.4413 68.5568 17.3104 66.0482C22.2055 53.185 59.4221 55.4051 100.424 70.9988C141.425 86.5925 170.707 109.677 165.811 122.54C164.754 124.938 162.816 126.838 160.397 127.847L170.427 131.676C173.41 130.309 175.777 127.88 177.067 124.864C183.068 109.091 149.908 81.8551 103.03 64.0308C56.1522 46.2066 13.2618 44.5248 7.28063 60.2785C6.228 63.387 6.3859 66.7781 7.72283 69.7753L17.6749 73.7187Z" fill="white"/>
<path d="M29.9258 78.4149C29.7682 77.3489 29.8782 76.2605 30.246 75.2476C34.0552 65.275 63.9517 67.4021 97.0478 79.9761C130.144 92.55 153.902 110.814 150.092 120.825C149.687 121.828 149.045 122.718 148.221 123.419L156.338 126.498C157.6 125.54 158.577 124.254 159.161 122.78C163.838 110.587 136.924 88.9867 99.0812 74.5971C61.2381 60.2074 26.803 58.4573 22.164 70.689C21.6198 72.1756 21.4972 73.7836 21.8097 75.3355L29.9258 78.4149Z" fill="#6E62E5"/>
<path opacity="0.5" d="M29.9258 78.4149C29.7682 77.3489 29.8782 76.2605 30.246 75.2476C34.0552 65.275 63.9517 67.4021 97.0478 79.9761C130.144 92.55 153.902 110.814 150.092 120.825C149.687 121.828 149.045 122.718 148.221 123.419L156.338 126.498C157.6 125.54 158.577 124.254 159.161 122.78C163.838 110.587 136.924 88.9867 99.0812 74.5971C61.2381 60.2074 26.803 58.4573 22.164 70.689C21.6198 72.1756 21.4972 73.7836 21.8097 75.3355L29.9258 78.4149Z" fill="white"/>
<path d="M42.1202 83.0146C42.1623 82.7107 42.2231 82.4097 42.3022 82.1133C45.2827 74.2844 68.7469 75.9431 94.7221 85.832C120.697 95.7208 139.364 110.071 136.384 117.9C136.242 118.175 136.085 118.443 135.914 118.702L142.461 121.189C142.909 120.667 143.266 120.073 143.516 119.432C147.168 109.842 126.029 92.8923 96.3212 81.6015C66.6132 70.3107 39.6106 68.9238 35.9396 78.5327C35.7159 79.1689 35.5862 79.8344 35.5547 80.508L42.1202 83.0146Z" fill="#6E62E5"/>
<path opacity="0.7" d="M42.1202 83.0146C42.1623 82.7107 42.2231 82.4097 42.3022 82.1133C45.2827 74.2844 68.7469 75.9431 94.7221 85.832C120.697 95.7208 139.364 110.071 136.384 117.9C136.242 118.175 136.085 118.443 135.914 118.702L142.461 121.189C142.909 120.667 143.266 120.073 143.516 119.432C147.168 109.842 126.029 92.8923 96.3212 81.6015C66.6132 70.3107 39.6106 68.9238 35.9396 78.5327C35.7159 79.1689 35.5862 79.8344 35.5547 80.508L42.1202 83.0146Z" fill="white"/>
</svg>
