<svg width="391" height="386" viewBox="0 0 391 386" fill="none" xmlns="http://www.w3.org/2000/svg">
<path d="M53.5106 290.449L54.6249 288.897L53.0724 290.011L52.7594 288.121L52.4464 290.011L50.8939 288.897L52.0082 290.449L50.1177 290.762L52.0082 291.075L50.8939 292.628L52.4464 291.514L52.7594 293.404L53.0724 291.514L54.6249 292.628L53.5106 291.075L55.4011 290.762L53.5106 290.449Z" fill="#263238"/>
<path d="M388.182 254.517L389.309 252.952L387.744 254.079L387.431 252.188L387.118 254.079L385.566 252.952L386.68 254.517L384.79 254.83L386.68 255.143L385.566 256.695L387.118 255.581L387.431 257.471L387.744 255.581L389.309 256.695L388.182 255.143L390.073 254.83L388.182 254.517Z" fill="#263238"/>
<path d="M222.618 316.316L223.732 314.763L222.18 315.877L221.867 313.987L221.554 315.877L219.989 314.763L221.116 316.316L219.225 316.629L221.116 316.942L219.989 318.507L221.554 317.38L221.867 319.283L222.18 317.38L223.732 318.507L222.618 316.942L224.509 316.629L222.618 316.316Z" fill="#263238"/>
<path d="M65.5171 244.488L67.4326 241.809L64.7533 243.737L64.215 240.482L63.6766 243.737L60.9973 241.809L62.9129 244.488L59.6577 245.027L62.9129 245.565L60.9973 248.244L63.6766 246.329L64.215 249.584L64.7533 246.329L67.4326 248.244L65.5171 245.565L68.7723 245.027L65.5171 244.488Z" fill="#263238"/>
<path d="M22.4484 159.853L24.364 157.161L21.6847 159.089L21.1463 155.834L20.608 159.089L17.9287 157.161L19.8568 159.853L16.6016 160.391L19.8568 160.917L17.9287 163.609L20.608 161.681L21.1463 164.936L21.6847 161.681L24.364 163.609L22.4484 160.917L25.7036 160.391L22.4484 159.853Z" fill="#263238"/>
<path d="M243.013 4.01892L244.928 1.32712L242.249 3.2552L241.711 0L241.172 3.2552L238.493 1.32712L240.421 4.01892L237.153 4.55728L240.421 5.08312L238.493 7.77492L241.172 5.84684L241.711 9.10204L242.249 5.84684L244.928 7.77492L243.013 5.08312L246.268 4.55728L243.013 4.01892Z" fill="#263238"/>
<path d="M282.551 159.54L284.48 156.848L281.8 158.776L281.262 155.521L280.724 158.776L278.032 156.848L279.96 159.54L276.705 160.078L279.96 160.604L278.032 163.296L280.724 161.368L281.262 164.623L281.8 161.368L284.48 163.296L282.551 160.604L285.819 160.078L282.551 159.54Z" fill="#263238"/>
<path d="M183.994 9.32751L185.922 6.64823L183.243 8.56379L182.705 5.30859L182.166 8.56379L179.487 6.64823L181.415 9.32751L178.147 9.86587L181.415 10.4042L179.487 13.0835L182.166 11.1554L182.705 14.4232L183.243 11.1554L185.922 13.0835L183.994 10.4042L187.262 9.86587L183.994 9.32751Z" fill="#263238"/>
<path d="M189.177 261.353L192.47 256.758L187.875 260.051L186.961 254.479L186.047 260.051L181.452 256.758L184.745 261.353L179.173 262.267L184.745 263.181L181.452 267.776L186.047 264.483L186.961 270.054L187.875 264.483L192.47 267.776L189.177 263.181L194.748 262.267L189.177 261.353Z" fill="#263238"/>
<path d="M351.237 43.3792L345.666 42.4653L348.958 37.8704L344.363 41.1632L343.45 35.5918L342.536 41.1632L337.941 37.8704L341.233 42.4653L335.662 43.3792L341.233 44.2932L337.941 48.888L342.536 45.5953L343.45 51.1667L344.363 45.5953L348.958 48.888L345.666 44.2932L351.237 43.3792Z" fill="#263238"/>
<path d="M176.044 80.0758L179.336 75.4935L174.741 78.7862L173.827 73.2148L172.914 78.7862L168.319 75.4935L171.611 80.0758L166.04 81.0023L171.611 81.9162L168.319 86.5111L172.914 83.2183L173.827 88.7897L174.741 83.2183L179.336 86.5111L176.044 81.9162L181.615 81.0023L176.044 80.0758Z" fill="#263238"/>
<path d="M339.029 301.128L342.322 296.534L337.74 299.826L336.813 294.255L335.899 299.826L331.305 296.534L334.597 301.128L329.026 302.042L334.597 302.956L331.305 307.551L335.899 304.258L336.813 309.83L337.74 304.258L342.322 307.551L339.029 302.956L344.613 302.042L339.029 301.128Z" fill="#263238"/>
<path d="M82.2441 58.9793L76.6727 58.0529L79.9655 53.4705L75.3707 56.7633L74.4442 51.1919L73.5302 56.7633L68.9354 53.4705L72.2281 58.0529L66.6567 58.9793L72.2281 59.8933L68.9354 64.4881L73.5302 61.1954L74.4442 66.7668L75.3707 61.1954L79.9655 64.4881L76.6727 59.8933L82.2441 58.9793Z" fill="#263238"/>
<path opacity="0.2" d="M53.135 290.387L55.4011 290.762L53.135 291.138L52.7594 293.404L52.3838 291.138L50.1177 290.762L52.3838 290.387L52.7594 288.121L53.135 290.387Z" fill="white"/>
<path opacity="0.2" d="M53.2854 290.762L54.625 292.627L52.7595 291.288L50.894 292.627L52.2337 290.762L50.894 288.896L52.7595 290.236L54.625 288.896L53.2854 290.762Z" fill="white"/>
<path d="M53.2856 290.762C53.2856 290.866 53.2547 290.968 53.1969 291.054C53.1392 291.141 53.057 291.208 52.961 291.248C52.8649 291.288 52.7591 291.298 52.6571 291.278C52.5551 291.258 52.4614 291.208 52.3879 291.134C52.3144 291.06 52.2643 290.967 52.244 290.865C52.2237 290.763 52.2341 290.657 52.2739 290.561C52.3137 290.465 52.3811 290.383 52.4676 290.325C52.5541 290.267 52.6557 290.236 52.7597 290.236C52.8992 290.236 53.0329 290.292 53.1316 290.39C53.2302 290.489 53.2856 290.623 53.2856 290.762Z" fill="white"/>
<path opacity="0.2" d="M387.807 254.454L390.073 254.83L387.807 255.205L387.431 257.471L387.056 255.205L384.79 254.83L387.056 254.454L387.431 252.188L387.807 254.454Z" fill="white"/>
<path opacity="0.2" d="M387.957 254.83L389.309 256.695L387.431 255.356L385.566 256.695L386.906 254.83L385.566 252.952L387.431 254.291L389.309 252.952L387.957 254.83Z" fill="white"/>
<path d="M387.957 254.83C387.957 254.969 387.902 255.103 387.803 255.201C387.705 255.3 387.571 255.355 387.432 255.355C387.292 255.355 387.158 255.3 387.06 255.201C386.961 255.103 386.906 254.969 386.906 254.83C386.906 254.69 386.961 254.556 387.06 254.458C387.158 254.359 387.292 254.304 387.432 254.304C387.571 254.304 387.705 254.359 387.803 254.458C387.902 254.556 387.957 254.69 387.957 254.83Z" fill="white"/>
<path opacity="0.2" d="M222.242 316.253L224.509 316.629L222.242 317.004L221.867 319.283L221.491 317.004L219.225 316.629L221.491 316.253L221.867 313.987L222.242 316.253Z" fill="white"/>
<path opacity="0.2" d="M222.393 316.629L223.732 318.507L221.867 317.167L219.989 318.507L221.341 316.629L219.989 314.763L221.867 316.103L223.732 314.763L222.393 316.629Z" fill="white"/>
<path d="M222.393 316.628C222.393 316.768 222.337 316.902 222.239 317C222.14 317.099 222.006 317.154 221.867 317.154C221.727 317.154 221.593 317.099 221.495 317C221.396 316.902 221.341 316.768 221.341 316.628C221.341 316.559 221.354 316.491 221.381 316.427C221.407 316.363 221.446 316.305 221.495 316.257C221.544 316.208 221.602 316.169 221.665 316.143C221.729 316.116 221.798 316.103 221.867 316.103C221.936 316.103 222.004 316.116 222.068 316.143C222.132 316.169 222.19 316.208 222.239 316.257C222.287 316.305 222.326 316.363 222.352 316.427C222.379 316.491 222.393 316.559 222.393 316.628Z" fill="white"/>
<path opacity="0.2" d="M64.8535 244.388L68.7723 245.027L64.8535 245.678L64.215 249.584L63.5765 245.678L59.6577 245.027L63.5765 244.388L64.215 240.482L64.8535 244.388Z" fill="white"/>
<path opacity="0.2" d="M65.1287 245.027L67.4323 248.244L64.2147 245.941L60.9971 248.244L63.3008 245.027L60.9971 241.809L64.2147 244.113L67.4323 241.809L65.1287 245.027Z" fill="white"/>
<path d="M64.2154 245.928C64.7133 245.928 65.1168 245.524 65.1168 245.026C65.1168 244.529 64.7133 244.125 64.2154 244.125C63.7176 244.125 63.314 244.529 63.314 245.026C63.314 245.524 63.7176 245.928 64.2154 245.928Z" fill="white"/>
<path opacity="0.2" d="M21.7974 159.74L25.7036 160.391L21.7974 161.03L21.1463 164.936L20.5078 161.03L16.6016 160.391L20.5078 159.74L21.1463 155.834L21.7974 159.74Z" fill="white"/>
<path opacity="0.2" d="M22.0603 160.391L24.364 163.609L21.1464 161.293L17.9287 163.609L20.2324 160.391L17.9287 157.161L21.1464 159.477L24.364 157.161L22.0603 160.391Z" fill="white"/>
<path d="M22.06 160.391C22.0567 160.632 21.959 160.861 21.788 161.03C21.6169 161.198 21.3863 161.293 21.1461 161.293C20.907 161.293 20.6777 161.198 20.5087 161.029C20.3396 160.86 20.2446 160.631 20.2446 160.391C20.2446 160.151 20.3392 159.921 20.5079 159.75C20.6766 159.579 20.9058 159.481 21.1461 159.478C21.3885 159.478 21.6209 159.574 21.7923 159.745C21.9637 159.917 22.06 160.149 22.06 160.391Z" fill="white"/>
<path opacity="0.2" d="M242.349 3.90623L246.268 4.55728L242.349 5.19579L241.711 9.10204L241.072 5.19579L237.153 4.55728L241.072 3.90623L241.711 0L242.349 3.90623Z" fill="white"/>
<path opacity="0.2" d="M242.625 4.55731L244.928 7.77495L241.711 5.45874L238.493 7.77495L240.797 4.55731L238.493 1.32715L241.711 3.64335L244.928 1.32715L242.625 4.55731Z" fill="white"/>
<path d="M241.711 5.45864C242.209 5.45864 242.612 5.05505 242.612 4.5572C242.612 4.05935 242.209 3.65576 241.711 3.65576C241.213 3.65576 240.81 4.05935 240.81 4.5572C240.81 5.05505 241.213 5.45864 241.711 5.45864Z" fill="white"/>
<path opacity="0.2" d="M281.9 159.427L285.819 160.078L281.9 160.717L281.262 164.623L280.611 160.717L276.705 160.078L280.611 159.427L281.262 155.521L281.9 159.427Z" fill="white"/>
<path opacity="0.2" d="M282.163 160.078L284.479 163.296L281.261 160.98L278.031 163.296L280.347 160.078L278.031 156.848L281.261 159.164L284.479 156.848L282.163 160.078Z" fill="white"/>
<path d="M281.262 160.98C281.76 160.98 282.163 160.576 282.163 160.078C282.163 159.58 281.76 159.177 281.262 159.177C280.764 159.177 280.36 159.58 280.36 160.078C280.36 160.576 280.764 160.98 281.262 160.98Z" fill="white"/>
<path opacity="0.2" d="M183.343 9.21483L187.262 9.86587L183.343 10.5044L182.705 14.4232L182.066 10.5044L178.147 9.86587L182.066 9.21483L182.705 5.30859L183.343 9.21483Z" fill="white"/>
<path opacity="0.2" d="M183.618 9.86559L185.922 13.0832L182.704 10.7795L179.487 13.0832L181.791 9.86559L179.487 6.64795L182.704 8.95162L185.922 6.64795L183.618 9.86559Z" fill="white"/>
<path d="M182.704 10.9152C183.202 10.9152 183.606 10.5116 183.606 10.0137C183.606 9.51589 183.202 9.1123 182.704 9.1123C182.206 9.1123 181.803 9.51589 181.803 10.0137C181.803 10.5116 182.206 10.9152 182.704 10.9152Z" fill="white"/>
<path opacity="0.2" d="M188.063 261.165L194.748 262.267L188.063 263.369L186.961 270.054L185.859 263.369L179.173 262.267L185.859 261.165L186.961 254.479L188.063 261.165Z" fill="white"/>
<path opacity="0.2" d="M188.526 262.267L192.47 267.775L186.961 263.819L181.452 267.775L185.408 262.267L181.452 256.758L186.961 260.702L192.47 256.758L188.526 262.267Z" fill="white"/>
<path d="M188.514 262.242C188.514 262.549 188.423 262.849 188.252 263.104C188.081 263.36 187.839 263.559 187.555 263.676C187.272 263.794 186.959 263.824 186.658 263.765C186.357 263.705 186.081 263.557 185.863 263.34C185.646 263.123 185.498 262.846 185.439 262.545C185.379 262.244 185.409 261.932 185.527 261.648C185.644 261.364 185.843 261.122 186.099 260.951C186.354 260.78 186.654 260.689 186.961 260.689C187.373 260.689 187.768 260.853 188.059 261.144C188.35 261.435 188.514 261.83 188.514 262.242Z" fill="white"/>
<path opacity="0.2" d="M344.551 42.2775L351.237 43.3792L344.551 44.481L343.45 51.1667L342.348 44.481L335.662 43.3792L342.348 42.2775L343.45 35.5918L344.551 42.2775Z" fill="white"/>
<path opacity="0.2" d="M345.001 43.3794L348.957 48.8882L343.448 44.9444L337.939 48.8882L341.896 43.3794L337.939 37.8706L343.448 41.8269L348.957 37.8706L345.001 43.3794Z" fill="white"/>
<path d="M345.001 43.3796C345.001 43.6867 344.91 43.9868 344.74 44.2421C344.569 44.4974 344.327 44.6964 344.043 44.8139C343.759 44.9314 343.447 44.9622 343.146 44.9023C342.845 44.8424 342.568 44.6945 342.351 44.4774C342.134 44.2603 341.986 43.9837 341.926 43.6825C341.866 43.3814 341.897 43.0692 342.015 42.7855C342.132 42.5018 342.331 42.2594 342.586 42.0888C342.842 41.9182 343.142 41.8271 343.449 41.8271C343.86 41.8304 344.253 41.995 344.543 42.2855C344.834 42.5759 344.998 42.9689 345.001 43.3796Z" fill="white"/>
<path opacity="0.2" d="M174.929 79.9005L181.615 81.0023L174.929 82.104L173.827 88.7897L172.726 82.104L166.04 81.0023L172.726 79.9005L173.827 73.2148L174.929 79.9005Z" fill="white"/>
<path opacity="0.2" d="M175.393 81.002L179.336 86.5108L173.828 82.5544L168.319 86.5108L172.275 81.002L168.319 75.4932L173.828 79.437L179.336 75.4932L175.393 81.002Z" fill="white"/>
<path d="M175.38 81.0022C175.38 81.3092 175.289 81.6094 175.118 81.8647C174.948 82.12 174.705 82.319 174.421 82.4365C174.138 82.554 173.826 82.5847 173.525 82.5248C173.223 82.4649 172.947 82.3171 172.73 82.0999C172.512 81.8828 172.365 81.6062 172.305 81.3051C172.245 81.0039 172.276 80.6918 172.393 80.4081C172.511 80.1244 172.71 79.8819 172.965 79.7114C173.22 79.5408 173.52 79.4497 173.827 79.4497C174.238 79.453 174.631 79.6176 174.922 79.908C175.212 80.1985 175.377 80.5915 175.38 81.0022Z" fill="white"/>
<path opacity="0.2" d="M337.915 300.941L344.613 302.042L337.915 303.144L336.813 309.83L335.712 303.144L329.026 302.042L335.712 300.941L336.813 294.255L337.915 300.941Z" fill="white"/>
<path opacity="0.2" d="M338.378 302.043L342.322 307.552L336.813 303.608L331.305 307.552L335.261 302.043L331.305 296.534L336.813 300.49L342.322 296.534L338.378 302.043Z" fill="white"/>
<path d="M338.365 302.043C338.365 302.454 338.202 302.849 337.911 303.14C337.619 303.432 337.224 303.595 336.813 303.595C336.401 303.595 336.006 303.432 335.715 303.14C335.424 302.849 335.26 302.454 335.26 302.043C335.26 301.631 335.424 301.236 335.715 300.945C336.006 300.654 336.401 300.49 336.813 300.49C337.224 300.49 337.619 300.654 337.911 300.945C338.202 301.236 338.365 301.631 338.365 302.043Z" fill="white"/>
<path opacity="0.2" d="M94.8892 54.6857L101.587 55.7874L94.8892 56.8892L93.7874 63.5749L92.6982 56.8892L86 55.7874L92.6982 54.6857L93.7874 48L94.8892 54.6857Z" fill="white"/>
<path opacity="0.2" d="M95.3526 55.5088L99.3089 61.0176L93.7876 57.0613L88.2788 61.0176L92.2351 55.5088L88.2788 50L93.7876 53.9438L99.3089 50L95.3526 55.5088Z" fill="white"/>
<path d="M95.3393 55.7869C95.3393 56.0945 95.2479 56.3951 95.0768 56.6507C94.9056 56.9063 94.6624 57.1052 94.378 57.2224C94.0936 57.3395 93.7808 57.3695 93.4794 57.3086C93.1779 57.2476 92.9013 57.0985 92.6846 56.8802C92.468 56.6618 92.3212 56.384 92.2627 56.082C92.2042 55.7801 92.2367 55.4675 92.3562 55.1841C92.4756 54.9006 92.6765 54.659 92.9335 54.49C93.1904 54.3209 93.4918 54.2319 93.7994 54.2344C94.2089 54.2377 94.6006 54.4027 94.8891 54.6935C95.1775 54.9843 95.3394 55.3773 95.3393 55.7869Z" fill="white"/>
<path d="M248.509 377.876L242.938 376.962L246.231 372.367L241.636 375.66L240.722 370.089L239.808 375.66L235.213 372.367L238.506 376.962L232.935 377.876L238.506 378.79L235.213 383.385L239.808 380.092L240.722 385.664L241.636 380.092L246.231 383.385L242.938 378.79L248.509 377.876Z" fill="#263238"/>
<path opacity="0.2" d="M241.824 376.775L248.509 377.876L241.824 378.978L240.722 385.664L239.62 378.978L232.935 377.876L239.62 376.775L240.722 370.089L241.824 376.775Z" fill="white"/>
<path opacity="0.2" d="M242.275 377.876L246.231 383.385L240.722 379.429L235.213 383.385L239.157 377.876L235.213 372.368L240.722 376.311L246.231 372.368L242.275 377.876Z" fill="white"/>
<path d="M242.275 377.876C242.275 378.288 242.111 378.683 241.82 378.974C241.529 379.265 241.134 379.429 240.722 379.429C240.311 379.429 239.916 379.265 239.625 378.974C239.333 378.683 239.17 378.288 239.17 377.876C239.17 377.464 239.333 377.07 239.625 376.778C239.916 376.487 240.311 376.324 240.722 376.324C241.134 376.324 241.529 376.487 241.82 376.778C242.111 377.07 242.275 377.464 242.275 377.876Z" fill="white"/>
<path d="M3.39292 227.811L4.51972 226.246L2.95472 227.373L2.64172 225.482L2.32872 227.373L0.776243 226.246L1.89052 227.811L0 228.124L1.89052 228.437L0.776243 229.99L2.32872 228.875L2.64172 230.766L2.95472 228.875L4.51972 229.99L3.39292 228.437L5.29596 228.124L3.39292 227.811Z" fill="#263238"/>
<path opacity="0.2" d="M3.01732 227.749L5.29596 228.124L3.01732 228.5L2.64172 230.766L2.27864 228.5L0 228.124L2.27864 227.749L2.64172 225.482L3.01732 227.749Z" fill="white"/>
<path opacity="0.2" d="M3.18021 228.125L4.51984 229.99L2.64184 228.65L0.776367 229.99L2.11601 228.125L0.776367 226.247L2.64184 227.599L4.51984 226.247L3.18021 228.125Z" fill="white"/>
<path d="M3.16789 228.124C3.16789 228.264 3.11248 228.398 3.01387 228.496C2.91526 228.595 2.78151 228.65 2.64205 228.65C2.50259 228.65 2.36884 228.595 2.27023 228.496C2.17161 228.398 2.11621 228.264 2.11621 228.124C2.11621 227.985 2.17161 227.851 2.27023 227.753C2.36884 227.654 2.50259 227.599 2.64205 227.599C2.78151 227.599 2.91526 227.654 3.01387 227.753C3.11248 227.851 3.16789 227.985 3.16789 228.124Z" fill="white"/>
<path d="M153.733 197.751L154.848 196.186L153.295 197.3L152.982 195.41L152.669 197.3L151.117 196.186L152.231 197.751L150.34 198.051L152.231 198.364L151.117 199.929L152.669 198.803L152.982 200.706L153.295 198.803L154.848 199.929L153.733 198.364L155.624 198.051L153.733 197.751Z" fill="#263238"/>
<path opacity="0.2" d="M153.358 197.688L155.624 198.051L153.358 198.427L152.982 200.706L152.606 198.427L150.34 198.051L152.606 197.688L152.982 195.41L153.358 197.688Z" fill="white"/>
<path opacity="0.2" d="M153.508 198.051L154.848 199.929L152.982 198.589L151.117 199.929L152.456 198.051L151.117 196.186L152.982 197.525L154.848 196.186L153.508 198.051Z" fill="white"/>
<path d="M153.508 198.052C153.508 198.191 153.452 198.325 153.354 198.424C153.255 198.522 153.121 198.578 152.982 198.578C152.842 198.578 152.709 198.522 152.61 198.424C152.511 198.325 152.456 198.191 152.456 198.052C152.456 197.912 152.511 197.779 152.61 197.68C152.709 197.581 152.842 197.526 152.982 197.526C153.121 197.526 153.255 197.581 153.354 197.68C153.452 197.779 153.508 197.912 153.508 198.052Z" fill="white"/>
<path d="M102.364 130.093L103.49 128.54L101.925 129.655L101.612 127.764L101.299 129.655L99.747 128.54L100.861 130.093L98.9707 130.406L100.861 130.719L99.747 132.271L101.299 131.157L101.612 133.048L101.925 131.157L103.49 132.271L102.364 130.719L104.254 130.406L102.364 130.093Z" fill="#263238"/>
<path opacity="0.2" d="M101.988 130.03L104.254 130.406L101.988 130.781L101.612 133.048L101.237 130.781L98.9707 130.406L101.237 130.03L101.612 127.764L101.988 130.03Z" fill="white"/>
<path opacity="0.2" d="M102.151 130.406L103.491 132.271L101.613 130.932L99.7471 132.271L101.087 130.406L99.7471 128.541L101.613 129.88L103.491 128.541L102.151 130.406Z" fill="white"/>
<path d="M102.138 130.406C102.138 130.545 102.083 130.679 101.984 130.778C101.885 130.876 101.752 130.932 101.612 130.932C101.473 130.932 101.339 130.876 101.24 130.778C101.142 130.679 101.086 130.545 101.086 130.406C101.086 130.266 101.142 130.133 101.24 130.034C101.339 129.935 101.473 129.88 101.612 129.88C101.752 129.88 101.885 129.935 101.984 130.034C102.083 130.133 102.138 130.266 102.138 130.406Z" fill="white"/>
</svg>
