<svg xmlns="http://www.w3.org/2000/svg" width="146" height="146" viewBox="0 0 146 146" fill="none">
    <path
        d="M25.2482 137.767C13.7221 123.771 9.87979 85.3497 36.2256 78.4888C48.5469 58.4606 90.14 37.3829 121.301 58.4551C152.462 79.5273 115.812 137.767 115.812 137.767"
        fill="#EFEFEF" fill-opacity="0.996078" />
    <path
        d="M25.2482 137.767C13.7221 123.771 9.87979 85.3497 36.2256 78.4888C48.5469 58.4606 90.14 37.3829 121.301 58.4551C152.462 79.5273 115.812 137.767 115.812 137.767"
        stroke="#CCDDE2" stroke-width="2" stroke-miterlimit="10" />
    <path d="M99.6538 76.4312C99.7671 77.0191 100.064 77.5559 100.502 77.9642" stroke="#CCDDE2"
        stroke-width="2" stroke-miterlimit="10" />
    <path
        d="M75.19 87.7114C74.9739 87.7683 74.7914 87.8092 74.6469 87.8428C74.5388 87.8618 74.4498 87.8808 74.3885 87.8895H74.3753L74.2906 87.9041C74.2906 87.9041 74.2819 87.8939 74.276 87.8939C72.816 86.8223 73.2643 84.8279 73.2643 84.8279C77.6297 85.5156 78.5349 81.9794 78.5349 81.9794C78.4779 80.2844 78.1553 79.4872 77.4107 79.0288C76.6325 78.5411 75.3915 78.4156 73.4949 78.0068L73.181 77.9367C70.3603 77.2958 69.0449 74.4006 68.5251 72.7946C68.4041 72.4388 68.3065 72.0754 68.2331 71.7069C65.0386 72.907 63.0384 74.6064 61.8865 75.881C61.431 66.8451 70.5005 68.143 70.5005 68.143C72.0266 68.1649 73.5434 68.3867 75.0119 68.8029C75.3448 68.9489 75.663 69.0949 75.9667 69.2409C76.1127 69.3154 76.2675 69.3957 76.4047 69.4789C76.542 69.5621 76.6967 69.6439 76.831 69.7271C76.9289 69.7841 77.0281 69.8454 77.123 69.9096C79.1181 71.1757 80.7129 72.9822 81.722 75.1189C81.7363 75.1478 81.749 75.1776 81.76 75.208C81.806 75.3068 81.8464 75.4083 81.8812 75.5116C83.9339 84.4936 77.6005 87.0646 75.19 87.7114Z"
        fill="#131420" />
    <path
        d="M74.245 87.1531C73.6085 86.0946 73.9034 84.8171 73.9034 84.8171C78.2644 85.5062 79.1725 81.9701 79.1725 81.9701C79.0791 79.3698 78.3768 78.8822 76.4657 78.4661C75.7576 78.3069 74.8874 78.1609 73.8187 77.9229C73.3749 77.8232 72.9477 77.6606 72.55 77.4397C69.646 75.8483 68.8635 71.6887 68.8635 71.6887C68.4138 71.8566 67.9875 72.0391 67.5801 72.2275C67.4591 71.8717 67.3615 71.5084 67.2881 71.1398C64.0936 72.3399 62.0769 74.7444 60.9249 76.0189C60.1017 66.688 69.5555 67.5759 69.5555 67.5759C71.0816 67.5978 72.5984 67.8197 74.0669 68.2358C74.3998 68.3818 74.7181 68.5278 75.0217 68.6738C75.1677 68.7483 75.3225 68.8286 75.4597 68.9118C75.597 68.995 75.7517 69.0768 75.886 69.16C75.9839 69.217 76.0831 69.2783 76.178 69.3425C78.1731 70.6088 79.7679 72.4152 80.777 74.5518C80.7914 74.5809 80.8041 74.6105 80.815 74.6409C80.861 74.7399 80.9014 74.8412 80.9362 74.9445C82.989 83.9352 76.6555 86.5063 74.245 87.1531Z"
        fill="#131420" />
    <path
        d="M90.4952 127.702C91.1697 132.105 91.9946 136.437 92.856 138.7H54.1353C49.4735 125.464 51.684 111.004 51.684 111.004L44.8074 111.22C48.9436 103.964 47.4719 97.8289 46.774 95.782C52.176 94.8636 57.578 94.1424 63.0369 94.0811C62.8909 97.2055 66.3015 100.797 71.2202 99.8524C73.2146 99.4728 75.6455 98.6844 75.698 95.1907L76.9814 95.4155C78.7568 95.7075 80.3627 96.0199 81.8855 96.3718C85.8275 97.2799 89.2147 98.4158 93.4356 99.8524C87.5956 104.175 90.4981 114.16 90.4981 114.16L90.6441 114.493L88.7797 114.16C88.7797 114.16 89.4702 121.009 90.4952 127.702Z"
        fill="#6E62E5" />
    <path
        d="M50.322 31.4731C54.1827 31.4731 57.3125 28.3433 57.3125 24.4827C57.3125 20.6218 54.1827 17.4922 50.322 17.4922C46.4613 17.4922 43.3315 20.6218 43.3315 24.4827C43.3315 28.3433 46.4613 31.4731 50.322 31.4731Z"
        fill="#111A26" />
    <path
        d="M52.62 22.1498C52.5218 21.9222 52.3893 21.711 52.2273 21.5235C51.951 21.1949 51.5643 20.9785 51.1397 20.9151C50.7153 20.8516 50.2821 20.9455 49.9219 21.1789C49.6864 21.3311 49.4898 21.5361 49.3473 21.7777C49.2049 22.0192 49.1207 22.2906 49.1014 22.5703C48.7338 22.4373 48.3329 22.4272 47.9591 22.5416C47.5852 22.6559 47.2586 22.8883 47.0282 23.2043C46.7978 23.5201 46.6761 23.9021 46.6813 24.293C46.6866 24.6838 46.8186 25.0625 47.0574 25.3721C47.5582 26.0247 48.4094 26.4539 49.1803 26.7036C49.5847 26.8322 50.0009 26.9208 50.4227 26.9678C50.6359 26.9912 51.855 27.1547 51.9689 26.9678C52.7135 25.7809 53.2537 23.6011 52.62 22.1498Z"
        fill="white" />
    <path
        d="M38.5602 22.2109C38.1018 22.1598 37.6375 22.1277 37.1747 22.1029C36.6783 22.1277 36.1819 22.1642 35.6855 22.2255C34.1177 22.4004 32.5819 22.7936 31.123 23.3935C30.4695 23.6623 29.8395 23.9851 29.2396 24.3586C28.8067 24.6188 28.3922 24.908 27.9986 25.2244C27.708 24.8078 27.4749 24.3541 27.3051 23.8753C27.0161 23.0675 26.9101 22.2058 26.9944 21.352C27.0788 20.4982 27.3513 19.6739 27.7927 18.9382C28.2341 18.2025 28.8329 17.5738 29.5466 17.0976C30.2601 16.6213 31.0704 16.3092 31.9191 16.1839C32.7678 16.0585 33.6337 16.1229 34.4545 16.3724C35.2752 16.622 36.0305 17.0506 36.6657 17.6273C37.3008 18.2038 37.8003 18.9141 38.1279 19.707C38.4555 20.5 38.6031 21.3557 38.5602 22.2124V22.2109Z"
        fill="#111A26" />
    <path
        d="M35.6853 22.2256C34.1175 22.4005 32.5818 22.7936 31.1228 23.3936C31.0381 23.1687 30.968 22.9556 30.9447 22.8826C30.8276 22.5508 30.743 22.2086 30.6921 21.8606C30.603 21.1948 30.6162 20.4006 30.9257 19.7947C31.0702 19.5037 31.3056 19.2677 31.5961 19.1223C31.8867 18.9769 32.2166 18.93 32.5362 18.9887C32.8558 19.0474 33.1475 19.2086 33.3674 19.4478C33.5873 19.6869 33.7235 19.991 33.7552 20.3144C33.9721 20.2299 34.2056 20.196 34.4376 20.2156C34.6697 20.235 34.8941 20.3073 35.094 20.4268C35.3902 20.6076 35.6124 20.8878 35.7208 21.2174C35.8291 21.547 35.8165 21.9044 35.6853 22.2256Z"
        fill="white" />
    <path
        d="M29.2394 24.3573C28.8065 24.6173 28.392 24.9067 27.9984 25.2231C27.7346 25.4273 27.4813 25.6446 27.2392 25.8742C26.9291 26.17 26.6559 26.5025 26.426 26.8641C26.2108 27.2006 26.0242 27.5548 25.8683 27.9226C25.6326 28.485 25.4446 29.0662 25.3062 29.66C25.0286 30.9409 24.8611 32.243 24.8054 33.5524C23.7787 33.0396 22.9547 32.1962 22.4657 31.158C21.9768 30.1197 21.8516 28.9472 22.1102 27.8292C22.3689 26.7112 22.9963 25.7127 23.8916 24.9947C24.7867 24.2767 25.8975 23.8809 27.045 23.8711C27.1341 23.8711 27.2173 23.8711 27.3064 23.8711C27.9766 23.9032 28.6338 24.0685 29.2394 24.3573Z"
        fill="#6E62E5" />
    <path
        d="M26.4261 26.8641C26.2109 27.2008 26.0243 27.5549 25.8684 27.9226C25.6327 28.485 25.4447 29.0663 25.3063 29.66C25.0026 29.2381 24.7442 28.7329 24.7033 28.2278C24.689 28.0462 24.7124 27.8637 24.7719 27.6914C24.8313 27.5192 24.9257 27.3611 25.049 27.2269C25.1723 27.0928 25.3219 26.9856 25.4885 26.9119C25.6551 26.8381 25.8351 26.7996 26.0173 26.7984C26.1563 26.7967 26.2946 26.819 26.4261 26.8641Z"
        fill="white" />
    <g opacity="0.72">
        <path opacity="0.72"
            d="M58.403 23.6026C60.5285 23.6026 62.2516 21.8797 62.2516 19.7541C62.2516 17.6286 60.5285 15.9055 58.403 15.9055C56.2775 15.9055 54.5544 17.6286 54.5544 19.7541C54.5544 21.8797 56.2775 23.6026 58.403 23.6026Z"
            fill="#111A26" />
        <path opacity="0.72"
            d="M60.0732 20.4403C60.1678 20.3424 60.2475 20.2313 60.3097 20.1103C60.4195 19.9008 60.4489 19.6584 60.3924 19.4288C60.336 19.1991 60.1975 18.9981 60.0031 18.8635C59.8767 18.7763 59.732 18.7193 59.58 18.6973C59.428 18.6754 59.2731 18.6887 59.1271 18.7364C59.1191 18.5206 59.0411 18.3133 58.9049 18.1459C58.7687 17.9784 58.5817 17.8598 58.372 17.808C58.1624 17.7563 57.9416 17.7741 57.7432 17.8588C57.5446 17.9437 57.3791 18.0908 57.2715 18.278C57.0437 18.6707 57.0028 19.1934 57.0379 19.6387C57.0564 19.8716 57.0985 20.102 57.1634 20.3264C57.1956 20.4403 57.3664 21.0943 57.4832 21.1148C58.2424 21.2433 59.4659 21.0637 60.0732 20.4403Z"
            fill="#111A26" />
    </g>
    <g opacity="0.72">
        <path opacity="0.72"
            d="M56.6874 62.8426C58.2049 62.8426 59.4351 61.6124 59.4351 60.0949C59.4351 58.5774 58.2049 57.3472 56.6874 57.3472C55.1699 57.3472 53.9397 58.5774 53.9397 60.0949C53.9397 61.6124 55.1699 62.8426 56.6874 62.8426Z"
            fill="#111A26" />
        <path opacity="0.72"
            d="M57.8787 60.59C57.9463 60.5202 58.0029 60.4405 58.0466 60.3534C58.1248 60.2042 58.1458 60.0315 58.1058 59.8678C58.0657 59.704 57.9673 59.5607 57.829 59.4643C57.7384 59.4015 57.6343 59.3605 57.5251 59.3449C57.4158 59.3291 57.3045 59.339 57.1998 59.3738C57.1932 59.2203 57.1371 59.0732 57.0399 58.9542C56.9428 58.8353 56.8097 58.7509 56.6606 58.714C56.5115 58.6771 56.3544 58.6893 56.213 58.749C56.0715 58.8088 55.9531 58.9127 55.8755 59.0453C55.7268 59.3465 55.6685 59.6842 55.7076 60.0176C55.7211 60.1838 55.7514 60.3482 55.7982 60.5082C55.8215 60.5885 55.9442 61.0572 56.0259 61.0703C56.572 61.1579 57.445 61.028 57.8787 60.59Z"
            fill="#111A26" />
    </g>
    <path
        d="M50.5754 27.1107L48.7466 30.9778C48.0829 32.381 48.6825 34.0565 50.0857 34.72L53.9528 36.5488C55.356 37.2124 57.0315 36.6128 57.6951 35.2097L59.524 31.3425C60.1876 29.9393 59.588 28.2638 58.1848 27.6002L54.3177 25.7714C52.9145 25.1078 51.239 25.7075 50.5754 27.1107Z"
        fill="#111A26" />
    <path
        d="M58.4819 32.0205L57.1577 34.8207C56.8806 35.4056 56.383 35.8571 55.7739 36.0759C55.1648 36.2948 54.4938 36.2635 53.9077 35.9887L50.5497 34.4003C49.965 34.1229 49.514 33.6253 49.2952 33.0163C49.0763 32.4074 49.1074 31.7365 49.3817 31.1503L49.4708 30.9605C50.3833 30.2305 51.9616 29.2494 52.5368 30.5882C53.3661 32.5154 54.4436 31.892 55.8218 31.0861C56.9781 30.4042 58.3593 30.1779 58.4819 32.0205Z"
        fill="white" />
    <path
        d="M53.2768 29.0427C53.8477 29.0427 54.3105 28.5799 54.3105 28.009C54.3105 27.4382 53.8477 26.9753 53.2768 26.9753C52.706 26.9753 52.2432 27.4382 52.2432 28.009C52.2432 28.5799 52.706 29.0427 53.2768 29.0427Z"
        fill="white" />
    <path
        d="M63.3365 39.7514L60.9278 44.8447C60.0543 46.6918 60.8435 48.8974 62.6907 49.7709L67.7839 52.1796C69.6311 53.0531 71.8366 52.2639 72.7101 50.4167L75.1188 45.3235C75.9924 43.4763 75.2031 41.2708 73.356 40.3973L68.2627 37.9886C66.4155 37.1151 64.21 37.9043 63.3365 39.7514Z"
        fill="#111A26" />
    <path
        d="M73.7447 46.2177L71.9927 49.9042C71.6267 50.6732 70.971 51.266 70.1692 51.553C69.3672 51.8399 68.4844 51.7978 67.7135 51.4356L63.2984 49.348C62.5294 48.9818 61.9367 48.3261 61.6496 47.5243C61.3626 46.7224 61.4048 45.8396 61.7669 45.0687L61.8851 44.819C63.0867 43.8613 65.1629 42.5663 65.9206 44.3285C67.0141 46.866 68.4318 46.0453 70.2466 44.9839C71.7635 44.0918 73.5841 43.7912 73.7447 46.2177Z"
        fill="white" />
    <path
        d="M66.8915 42.2961C67.6429 42.2961 68.2522 41.6869 68.2522 40.9354C68.2522 40.1838 67.6429 39.5747 66.8915 39.5747C66.14 39.5747 65.5308 40.1838 65.5308 40.9354C65.5308 41.6869 66.14 42.2961 66.8915 42.2961Z"
        fill="white" />
    <path
        d="M73.2323 25.2405C73.4351 25.614 73.5827 26.0147 73.6703 26.4304C73.8258 27.1956 73.7801 27.9878 73.5378 28.7299C73.2954 29.472 72.8647 30.1386 72.2877 30.6644C71.8307 31.0688 71.2482 31.3856 70.7839 31.809C70.4465 32.101 70.1982 32.4821 70.0671 32.9084C70.0425 33.054 69.9841 33.1915 69.8962 33.3099C69.6247 33.6019 69.3604 33.1435 69.1254 33.0602C68.7482 32.9379 68.3394 32.9582 67.9763 33.1172C67.0222 33.5105 65.9618 33.5631 64.9734 33.2661C63.9851 32.9691 63.1293 32.3408 62.55 31.4868C61.9706 30.6327 61.7033 29.6052 61.7928 28.577C61.8823 27.549 62.3234 26.5831 63.0415 25.842C63.7569 25.112 64.6943 24.6492 65.598 24.1703C66.3952 23.7469 67.1879 23.2943 68.0523 23.0446C70.0875 22.4402 72.2498 23.4491 73.2323 25.2405Z"
        fill="#111A26" />
    <path
        d="M65.0678 30.5197C65.6057 30.5197 66.0416 30.0837 66.0416 29.5458C66.0416 29.008 65.6057 28.572 65.0678 28.572C64.53 28.572 64.094 29.008 64.094 29.5458C64.094 30.0837 64.53 30.5197 65.0678 30.5197Z"
        fill="white" />
    <path
        d="M67.6916 29.1168C68.2295 29.1168 68.6654 28.6809 68.6654 28.143C68.6654 27.6051 68.2295 27.1692 67.6916 27.1692C67.1537 27.1692 66.7178 27.6051 66.7178 28.143C66.7178 28.6809 67.1537 29.1168 67.6916 29.1168Z"
        fill="white" />
    <path
        d="M70.153 27.7999C70.6909 27.7999 71.1268 27.364 71.1268 26.8261C71.1268 26.2884 70.6909 25.8523 70.153 25.8523C69.6152 25.8523 69.1792 26.2884 69.1792 26.8261C69.1792 27.364 69.6152 27.7999 70.153 27.7999Z"
        fill="white" />
    <path
        d="M103.47 90.8205V90.8439L103.11 99.1338L102.908 103.676C102.908 103.508 102.917 103.334 102.927 103.166C100.435 102.333 97.2332 101.147 94.7629 100.309C89.9011 98.6505 86.238 97.3759 81.8828 96.3744C81.62 95.1056 81.3718 92.3842 82.5938 88.4115C84.3458 82.7438 84.9225 76.9929 84.0319 75.8818C84.0235 75.8691 84.0127 75.8581 83.9998 75.8497C83.3662 73.5648 81.6901 75.0438 81.6901 75.0438C81.6901 75.0438 81.7003 75.0671 81.7047 75.0803C81.3559 74.5021 80.9726 73.9453 80.5571 73.4129C80.571 73.3303 80.5929 73.2491 80.6228 73.1706C81.1616 71.55 84.0319 71.1602 84.0319 71.1602C88.2338 71.4697 90.4442 73.3429 91.5597 75.803C92.5423 78.9084 91.9626 82.2751 91.8356 85.4609C91.7845 86.842 91.5874 88.9649 92.6416 90.0832C93.6154 91.9243 96.0653 91.1286 96.7296 90.9271C96.9456 90.8658 97.5063 90.8278 98.2421 90.8045C99.7415 90.768 101.948 90.7957 103.292 90.8191C103.358 90.8205 103.415 90.8205 103.47 90.8205Z"
        fill="#3FBDF1" />
    <path
        d="M45.3184 16.3098C45.0124 16.378 44.6982 16.4015 44.3855 16.3799C43.812 16.3347 43.26 16.1411 42.7837 15.8184C42.3073 15.4956 41.9231 15.0547 41.6684 14.5388C41.4743 14.1315 41.3764 13.6541 41.1647 13.2394C41.0266 12.9417 40.8075 12.6887 40.5326 12.5094C40.4343 12.4627 40.3487 12.3931 40.2829 12.3065C40.1369 12.0554 40.5107 11.9619 40.6172 11.813C40.78 11.5707 40.8491 11.2775 40.8114 10.9881C40.7247 10.2306 40.9022 9.46641 41.3141 8.82476C41.726 8.18314 42.3468 7.70344 43.0716 7.46682C43.7964 7.2302 44.5807 7.25119 45.2917 7.52623C46.0029 7.80126 46.5971 8.31347 46.9741 8.97623C47.3449 9.63177 47.4807 10.3895 47.6355 11.1268C47.7727 11.7765 47.9275 12.4291 47.9275 13.0934C47.9406 14.6542 46.7857 15.9799 45.3184 16.3098Z"
        fill="#111A26" />
    <path
        d="M43.9344 10.3688C44.3303 10.3688 44.6512 10.0478 44.6512 9.65192C44.6512 9.25601 44.3303 8.93506 43.9344 8.93506C43.5384 8.93506 43.2175 9.25601 43.2175 9.65192C43.2175 10.0478 43.5384 10.3688 43.9344 10.3688Z"
        fill="white" />
    <path
        d="M44.3929 12.5121C44.7888 12.5121 45.1097 12.1911 45.1097 11.7952C45.1097 11.3993 44.7888 11.0784 44.3929 11.0784C43.9969 11.0784 43.676 11.3993 43.676 11.7952C43.676 12.1911 43.9969 12.5121 44.3929 12.5121Z"
        fill="white" />
    <path
        d="M44.8235 14.5241C45.2195 14.5241 45.5404 14.2031 45.5404 13.8072C45.5404 13.4113 45.2195 13.0903 44.8235 13.0903C44.4276 13.0903 44.1067 13.4113 44.1067 13.8072C44.1067 14.2031 44.4276 14.5241 44.8235 14.5241Z"
        fill="white" />
    <g opacity="0.72">
        <path opacity="0.72"
            d="M88.0615 42.3735C91.0707 42.3735 93.5102 39.934 93.5102 36.9248C93.5102 33.9156 91.0707 31.4761 88.0615 31.4761C85.0523 31.4761 82.6128 33.9156 82.6128 36.9248C82.6128 39.934 85.0523 42.3735 88.0615 42.3735Z"
            fill="#111A26" />
        <path opacity="0.72"
            d="M88.2659 39.4695C88.4495 39.5281 88.6411 39.5581 88.8338 39.5586C89.1684 39.563 89.4933 39.445 89.7472 39.227C90.0012 39.009 90.1671 38.7059 90.2135 38.3745C90.2436 38.1581 90.2228 37.9378 90.1532 37.7308C90.0836 37.5238 89.9668 37.3359 89.812 37.1817C90.079 37.0334 90.2904 36.8022 90.4147 36.5232C90.5389 36.2442 90.5692 35.9325 90.5008 35.6348C90.4323 35.3371 90.2691 35.0698 90.0357 34.873C89.8022 34.6762 89.5111 34.5606 89.2061 34.5435C88.5652 34.507 87.879 34.7888 87.3373 35.1158C87.0554 35.2882 86.7913 35.4882 86.5489 35.7129C86.4248 35.8268 85.7065 36.4619 85.7561 36.6211C86.0773 37.6679 87.0862 39.1031 88.2659 39.4695Z"
            fill="#111A26" />
    </g>
    <path
        d="M90.5916 59.1636C90.2509 59.6587 89.8397 60.1014 89.3711 60.4776C88.5034 61.1631 87.4726 61.6117 86.3797 61.7796C85.2867 61.9475 84.1688 61.8288 83.1354 61.4354C82.3309 61.1156 81.5601 60.5798 80.7279 60.2674C80.1436 60.0276 79.5037 59.9568 78.881 60.063C78.6817 60.125 78.4706 60.139 78.2648 60.1039C77.7246 59.9462 78.1334 59.3213 78.0882 58.9709C78.0018 58.4165 77.7157 57.9128 77.2837 57.5547C76.1699 56.6015 75.4197 55.2926 75.1603 53.8498C74.901 52.4069 75.1483 50.9187 75.8604 49.6373C76.5726 48.3558 77.7057 47.3598 79.0678 46.8181C80.4302 46.2763 81.9378 46.2222 83.3354 46.6645C84.7166 47.1025 85.8977 47.9917 87.0803 48.8283C88.1228 49.5656 89.1959 50.2883 90.0689 51.211C92.1261 53.4025 92.2297 56.7809 90.5916 59.1636Z"
        fill="#111A26" />
    <path
        d="M79.941 52.973C80.7022 52.973 81.3192 52.356 81.3192 51.5948C81.3192 50.8337 80.7022 50.2166 79.941 50.2166C79.1797 50.2166 78.5627 50.8337 78.5627 51.5948C78.5627 52.356 79.1797 52.973 79.941 52.973Z"
        fill="white" />
    <path
        d="M83.388 55.3942C84.1493 55.3942 84.7662 54.7772 84.7662 54.0159C84.7662 53.2548 84.1493 52.6377 83.388 52.6377C82.6268 52.6377 82.0098 53.2548 82.0098 54.0159C82.0098 54.7772 82.6268 55.3942 83.388 55.3942Z"
        fill="white" />
    <path
        d="M86.6234 57.664C87.3846 57.664 88.0016 57.047 88.0016 56.2857C88.0016 55.5246 87.3846 54.9075 86.6234 54.9075C85.8621 54.9075 85.2451 55.5246 85.2451 56.2857C85.2451 57.047 85.8621 57.664 86.6234 57.664Z"
        fill="white" />
    <g opacity="0.54">
        <path opacity="0.54"
            d="M48.7378 18.2648C48.7195 18.5028 48.6829 18.739 48.6283 18.9715L48.018 21.6185C47.8311 22.4288 47.6209 23.2829 47.0412 23.8785C45.9608 24.9838 44.1519 24.7312 42.6437 24.3954L38.9412 23.5734C38.0914 23.3836 37.2271 23.1909 36.4592 22.7675C35.6912 22.3441 35.0371 21.6564 34.8532 20.8023C34.7232 20.1731 34.8634 19.5234 34.9992 18.8956L35.5759 16.3522C35.7613 15.52 35.9715 14.6397 36.5716 14.0352C37.6418 12.9563 39.4142 13.2016 40.899 13.5228L44.6848 14.3448C46.9712 14.8455 48.9203 15.9055 48.7378 18.2648Z"
            fill="#111A26" />
        <path opacity="0.54"
            d="M43.6321 18.3361C43.7905 18.4837 43.9072 18.6703 43.9707 18.8773C44.0341 19.0843 44.0419 19.3043 43.9935 19.5153C43.9448 19.7263 43.8416 19.9208 43.6942 20.0792C43.5467 20.2376 43.3601 20.3545 43.1532 20.418L42.0247 20.764L40.8975 21.1086C40.6901 21.1724 40.4696 21.1803 40.2582 21.1315C40.0466 21.0828 39.8519 20.9791 39.6933 20.8311C39.5346 20.683 39.418 20.4957 39.3549 20.2881C39.2917 20.0805 39.2845 19.8599 39.3339 19.6486L39.5981 18.4981L39.8624 17.3491C39.9113 17.1381 40.0147 16.9437 40.1624 16.7854C40.31 16.627 40.4968 16.5102 40.7038 16.4468C40.911 16.3833 41.131 16.3754 41.3421 16.4239C41.5531 16.4724 41.7477 16.5755 41.9064 16.7228L42.7693 17.5272L43.6321 18.3361Z"
            fill="#111A26" />
    </g>
    <g opacity="0.54">
        <path opacity="0.54"
            d="M90.3449 23.3599C90.3265 23.5978 90.29 23.8342 90.2354 24.0665L89.6252 26.7179C89.4383 27.5282 89.228 28.3823 88.6484 28.9765C87.568 30.0832 85.7591 29.8291 84.2509 29.4948L80.5483 28.6713C79.6986 28.483 78.8343 28.2888 78.0663 27.8669C77.2984 27.4449 76.6443 26.7544 76.4603 25.9017C76.3304 25.2725 76.4706 24.6228 76.6063 23.995L77.1845 21.4619C77.3685 20.6282 77.5787 19.7493 78.1788 19.1434C79.2489 18.0659 81.0214 18.3097 82.5062 18.6324L86.2861 19.4485C88.5783 19.9435 90.5274 21.0049 90.3449 23.3599Z"
            fill="#111A26" />
        <path opacity="0.54"
            d="M85.2393 23.4341C85.3976 23.5818 85.5144 23.7686 85.5777 23.9756C85.6411 24.1826 85.6488 24.4028 85.6003 24.6138C85.5519 24.8249 85.4487 25.0193 85.3013 25.178C85.1539 25.3366 84.9673 25.4537 84.7604 25.5175L83.6318 25.8621L82.5047 26.2081C82.2972 26.2717 82.0768 26.2796 81.8654 26.2309C81.6538 26.1822 81.4591 26.0786 81.3005 25.9305C81.1418 25.7823 81.0251 25.5952 80.9621 25.3876C80.8989 25.1799 80.8917 24.9593 80.9411 24.7481L81.2053 23.5991L81.4696 22.45C81.5185 22.2391 81.6219 22.0446 81.7696 21.8862C81.9172 21.7278 82.1039 21.6111 82.311 21.5476C82.518 21.4842 82.7382 21.4762 82.9493 21.5247C83.1603 21.5732 83.3549 21.6762 83.5136 21.8237L84.3764 22.6282L85.2393 23.4341Z"
            fill="#111A26" />
    </g>
    <g opacity="0.54">
        <path opacity="0.54"
            d="M72.8731 58.8788C72.8639 58.9894 72.8464 59.0994 72.8205 59.2073L72.5373 60.4439C72.4497 60.8206 72.3519 61.2177 72.0818 61.4951C71.5795 62.0105 70.7371 61.8922 70.0378 61.736L68.3135 61.3535C67.9132 61.284 67.5248 61.1575 67.1601 60.9782C66.9782 60.8871 66.8179 60.7584 66.6896 60.6005C66.5611 60.4427 66.4678 60.2595 66.4155 60.0628C66.3758 59.7654 66.3992 59.4629 66.4841 59.1751L66.747 57.9926C66.8331 57.6057 66.9309 57.1954 67.2112 56.9136C67.7091 56.4114 68.534 56.5252 69.2246 56.6756L70.9882 57.0581C72.0497 57.2859 72.9578 57.7794 72.8731 58.8788Z"
            fill="#111A26" />
        <path opacity="0.54"
            d="M70.4948 58.9121C70.5687 58.9808 70.6233 59.0676 70.6529 59.1641C70.6826 59.2606 70.6862 59.3631 70.6636 59.4614C70.6409 59.5598 70.5928 59.6503 70.5239 59.7242C70.4551 59.7979 70.3679 59.8522 70.2714 59.8816L69.7473 60.0422L69.2217 60.2028C69.1252 60.2328 69.0225 60.2369 68.9238 60.2147C68.8253 60.1924 68.7343 60.1444 68.6603 60.0756C68.5861 60.0068 68.5315 59.9198 68.5021 59.8232C68.4724 59.7265 68.4688 59.6237 68.4917 59.5253L68.6202 58.9837L68.7428 58.4479C68.7651 58.3493 68.813 58.2583 68.8818 58.1843C68.9506 58.1102 69.0376 58.0556 69.1341 58.0259C69.2307 57.9963 69.3335 57.9928 69.4319 58.0155C69.5303 58.0383 69.621 58.0868 69.6947 58.1559L70.0962 58.5296L70.4948 58.9121Z"
            fill="#111A26" />
    </g>
    <g opacity="0.54">
        <path opacity="0.54"
            d="M54.6976 7.61091C54.8174 7.67321 54.9326 7.74396 55.0422 7.82261L56.2686 8.71905C56.6453 8.99207 57.038 9.28845 57.2161 9.71769C57.5476 10.5163 57.019 11.3909 56.5153 12.0917L55.2787 13.8145C55.014 14.2246 54.6914 14.5944 54.321 14.9124C53.9355 15.2044 53.4362 15.4 52.9588 15.3022C52.6069 15.2321 52.3032 15.0102 52.0112 14.8073L50.8286 13.959C50.4417 13.6816 50.0359 13.375 49.8563 12.937C49.5365 12.1486 50.0519 11.2916 50.5439 10.601L51.7981 8.83439C52.55 7.76859 53.5238 6.99917 54.6976 7.61091Z"
            fill="#111A26" />
        <path opacity="0.54"
            d="M53.6115 10.2522C53.7217 10.2034 53.8427 10.1843 53.9626 10.1969C54.0825 10.2094 54.1969 10.2532 54.2946 10.3238C54.3923 10.3944 54.4697 10.4894 54.5192 10.5993C54.5687 10.7092 54.5884 10.8302 54.5765 10.9501L54.5065 11.6071L54.4364 12.2641C54.4235 12.3845 54.3793 12.4994 54.3079 12.5972C54.2365 12.6951 54.1407 12.7724 54.0301 12.8213C53.9192 12.8703 53.7976 12.8893 53.6772 12.8763C53.5569 12.8633 53.442 12.8189 53.3443 12.7474L52.8114 12.359L52.2785 11.9721C52.1804 11.9009 52.1027 11.8051 52.0535 11.6943C52.0043 11.5835 51.9852 11.4617 51.998 11.3411C52.0109 11.2206 52.0554 11.1056 52.1269 11.0077C52.1985 10.9098 52.2946 10.8325 52.4055 10.7837L53.0085 10.5165L53.6115 10.2522Z"
            fill="#111A26" />
    </g>
    <path
        d="M112.5 117.822C112.5 117.848 112.497 117.873 112.492 117.898C112.489 117.904 112.489 117.911 112.492 117.917C112.286 119.281 111.72 120.564 110.852 121.636C110.842 121.645 110.837 121.659 110.829 121.668C109.494 123.331 107.56 124.531 105.602 125.284C103.602 126.063 101.574 126.376 100.13 126.268H100.098C98.3311 126.137 96.3922 126.366 94.6957 126.684C94.5176 126.718 94.3395 126.75 94.1614 126.788C93.0415 127.013 91.9363 127.293 90.8413 127.603L90.6355 127.66L90.4982 127.696C89.4762 121.004 88.7842 114.15 88.7842 114.15L109.662 117.86C110.602 118.031 111.566 118.018 112.5 117.822Z"
        fill="#131420" />
    <path
        d="M69.6246 86.0084C68.5267 87.0976 67.0564 87.3078 65.6125 87.629C62.3319 88.359 59.5812 87.5297 59.4367 83.7586C59.3433 81.332 59.6002 78.9041 61.069 76.8893C62.8283 74.4759 65.5307 72.8684 68.223 71.6946C68.223 71.6946 69.4581 78.0135 75.085 78.2879C80.7118 78.5624 79.3423 85.9807 72.749 84.7441"
        stroke="black" stroke-width="2" stroke-miterlimit="10" />
    <path
        d="M73.8542 87.9039C74.0002 87.9039 74.1346 87.9039 74.2703 87.8937C74.3033 87.8915 74.3366 87.8915 74.3696 87.8937H74.3828L74.6412 87.8704"
        stroke="black" stroke-width="2" stroke-miterlimit="10" />
    <path
        d="M80.0884 72.4701C79.1658 71.3735 78.0634 70.4419 76.8282 69.7151C76.6908 69.6246 76.5485 69.5418 76.4019 69.4669C76.2559 69.3837 76.1099 69.3034 75.9639 69.2289C75.6558 69.0698 75.3361 68.9194 75.009 68.7909C73.0783 67.9825 71.0053 67.5691 68.9121 67.5748C57.6526 67.5748 60.7813 77.3173 60.7813 77.3173"
        stroke="black" stroke-width="2" stroke-miterlimit="10" />
    <path
        d="M81.9571 96.2785C81.5688 94.2083 82.0549 90.986 82.5937 88.4091C83.0769 86.114 83.6055 84.3344 83.6055 84.3344C84.4026 79.6506 84.369 77.1394 83.9997 75.8473C83.366 73.5653 81.6899 75.0443 81.6899 75.0443"
        stroke="black" stroke-width="2" stroke-miterlimit="10" />
    <path
        d="M83.9998 75.8473C83.3661 73.5653 81.69 75.0443 81.69 75.0443C81.4004 74.3845 81.0427 73.7567 80.6228 73.1711C80.4534 72.9356 80.2753 72.7058 80.0884 72.482C80.5892 71.1519 81.9251 70.3592 83.3004 70.2526C86.911 69.9752 90.4705 72.3652 91.5582 75.8006C92.5407 78.906 91.9611 82.2728 91.8341 85.4585C91.783 86.8396 91.5859 88.9625 92.64 90.0808C92.6955 90.1378 92.7481 90.1889 92.8079 90.24C93.6839 90.9948 95.0797 91.0371 96.7339 90.9247C97.2157 90.8911 97.7223 90.8503 98.2464 90.8021C99.8524 90.6561 101.604 90.5305 103.297 90.8167L103.464 90.8444C103.413 93.6038 103.244 96.372 103.104 99.1314C103.029 100.475 102.958 101.819 102.921 103.164C100.429 102.33 97.2274 101.145 94.757 100.307L93.4401 99.8526C89.2192 98.4145 85.8379 97.2801 81.8901 96.372C80.3673 96.0201 78.7613 95.7062 76.9859 95.4157L75.0981 95.0843C74.9715 95.0622 74.8569 94.9959 74.7746 94.8972C74.6922 94.7987 74.6476 94.674 74.6485 94.5455V87.866C75.9092 87.759 77.128 87.3616 78.2094 86.7052C79.291 86.0486 80.2059 85.1507 80.8826 84.0817C82.7091 81.1442 82.8828 78.138 81.8842 75.4998C81.8486 75.3944 81.8073 75.291 81.7601 75.1903C81.7492 75.1599 81.7365 75.1301 81.7221 75.1012C81.7221 75.0925 81.7134 75.0779 81.709 75.0677"
        fill="#131420" />
    <path
        d="M83.9998 75.8473C83.3661 73.5653 81.69 75.0443 81.69 75.0443C81.4004 74.3845 81.0427 73.7567 80.6228 73.1711C80.4534 72.9356 80.2753 72.7058 80.0884 72.482C80.5892 71.1519 81.9251 70.3592 83.3004 70.2526C86.911 69.9752 90.4705 72.3652 91.5582 75.8006C92.5407 78.906 91.9611 82.2728 91.8341 85.4585C91.783 86.8396 91.5859 88.9625 92.64 90.0808C92.6955 90.1378 92.7481 90.1889 92.8079 90.24C93.6839 90.9948 95.0797 91.0371 96.7339 90.9247C97.2157 90.8911 97.7223 90.8503 98.2464 90.8021C99.8524 90.6561 101.604 90.5305 103.297 90.8167L103.464 90.8444C103.413 93.6038 103.244 96.372 103.104 99.1314C103.029 100.475 102.958 101.819 102.921 103.164C100.429 102.33 97.2274 101.145 94.757 100.307L93.4401 99.8526C89.2192 98.4145 85.8379 97.2801 81.8901 96.372C80.3673 96.0201 78.7613 95.7062 76.9859 95.4157L75.0981 95.0843C74.9715 95.0622 74.8569 94.9959 74.7746 94.8972C74.6922 94.7987 74.6476 94.674 74.6485 94.5455V87.866C75.9092 87.759 77.128 87.3616 78.2094 86.7052C79.291 86.0486 80.2059 85.1507 80.8826 84.0817C82.7091 81.1442 82.8828 78.138 81.8842 75.4998C81.8486 75.3944 81.8073 75.291 81.7601 75.1903C81.7492 75.1599 81.7365 75.1301 81.7221 75.1012C81.7221 75.0925 81.7134 75.0779 81.709 75.0677"
        stroke="black" stroke-width="2" stroke-miterlimit="10" />
    <path d="M35.2678 99.8526C35.8518 95.3266 36.1205 90.7232 36.6869 86.1709" stroke="black"
        stroke-width="2" stroke-miterlimit="10" />
    <path
        d="M33.4814 85.6242C33.7025 84.3962 33.9641 83.1682 34.2927 81.9547C34.3049 81.8951 34.3191 81.8383 34.3373 81.783C34.5198 81.0643 34.7226 80.3499 34.9457 79.6354C35.6231 77.498 37.9879 75.9339 39.6692 74.1923L39.7726 74.006C43.3998 70.2201 45.4081 65.757 45.5506 61.1641C45.5912 59.5025 45.4999 56.2171 42.8452 55.5391C41.3545 55.1564 39.7726 55.9043 38.9472 56.7584C38.6081 57.1109 38.3355 57.494 38.1359 57.8976"
        fill="#EFEFEF" fill-opacity="0.996078" />
    <path
        d="M33.4814 85.6242C33.7025 84.3962 33.9641 83.1682 34.2927 81.9547C34.3049 81.8951 34.3191 81.8383 34.3373 81.783C34.5198 81.0643 34.7226 80.3499 34.9457 79.6354C35.6231 77.498 37.9879 75.9339 39.6692 74.1923L39.7726 74.006C43.3998 70.2201 45.4081 65.757 45.5506 61.1641C45.5912 59.5025 45.4999 56.2171 42.8452 55.5391C41.3545 55.1564 39.7726 55.9043 38.9472 56.7584C38.6081 57.1109 38.3355 57.494 38.1359 57.8976"
        stroke="black" stroke-width="2" stroke-miterlimit="10" />
    <path
        d="M54.1355 138.7C49.4737 125.463 51.6841 111.004 51.6841 111.004L44.809 111.22L26.6729 111.795C25.6077 111.83 24.5474 111.636 23.5637 111.226C22.5798 110.816 21.6955 110.2 20.9704 109.419C20.2452 108.638 19.6963 107.711 19.3605 106.699C19.0247 105.688 18.9099 104.616 19.0239 103.556L24.4113 83.8884"
        stroke="black" stroke-width="2" stroke-miterlimit="10" />
    <path d="M24.6726 82.928L25.1456 81.2052L25.6946 79.2517" stroke="black" stroke-width="2"
        stroke-miterlimit="10" />
    <path
        d="M26.1618 77.5699L26.4757 76.4413C26.8915 74.9429 26.7885 73.348 26.1837 71.9153L25.5602 70.4261C25.1529 69.1851 25.0259 68.5851 25.5369 67.3718C25.7787 66.7993 26.1181 66.2733 26.5399 65.8169C27.7707 64.4591 29.5037 63.7846 31.2893 63.5539C33.0749 63.3232 35.0459 63.5028 36.4825 64.6606C37.4578 65.4461 38.3805 67.3163 37.7425 68.5383C37.2797 69.4275 36.3 69.6859 35.4663 69.3676C35.1746 69.2584 34.9118 69.0837 34.6984 68.8566C33.7143 67.8259 31.6324 67.601 30.9024 68.604"
        fill="#EFEFEF" fill-opacity="0.996078" />
    <path
        d="M26.1618 77.5699L26.4757 76.4413C26.8915 74.9429 26.7885 73.348 26.1837 71.9153L25.5602 70.4261C25.1529 69.1851 25.0259 68.5851 25.5369 67.3718C25.7787 66.7993 26.1181 66.2733 26.5399 65.8169C27.7707 64.4591 29.5037 63.7846 31.2893 63.5539C33.0749 63.3232 35.0459 63.5028 36.4825 64.6606C37.4578 65.4461 38.3805 67.3163 37.7425 68.5383C37.2797 69.4275 36.3 69.6859 35.4663 69.3676C35.1746 69.2584 34.9118 69.0837 34.6984 68.8566C33.7143 67.8259 31.6324 67.601 30.9024 68.604"
        stroke="black" stroke-width="2" stroke-miterlimit="10" />
    <path
        d="M102.88 104.803C102.88 104.437 102.894 104.073 102.908 103.703V103.673C102.908 103.505 102.917 103.332 102.927 103.164"
        stroke="black" stroke-width="2" stroke-miterlimit="10" />
    <path
        d="M101.007 69.7339C99.2975 70.6478 97.198 72.9459 100.74 78.3479C101.908 80.1276 103.142 82.0519 103.315 84.2492C103.477 86.4449 103.529 88.6475 103.47 90.8484"
        stroke="black" stroke-width="2" stroke-miterlimit="10" />
    <path
        d="M84.426 113.384L88.4907 114.105L88.7827 114.156L90.6471 114.489L109.658 117.866C110.599 118.037 111.564 118.024 112.5 117.828C114.126 117.486 115.591 116.61 116.662 115.341C117.734 114.071 118.351 112.48 118.415 110.82L115.606 87.8237L114.984 82.9152C114.786 81.3714 115.118 79.8064 115.924 78.4753L116.758 77.0883C116.758 77.0883 118.209 74.9713 115.67 74.8165C114.302 74.7362 112.879 75.1085 111.642 75.6692C110.935 75.9831 109.942 76.5452 109.544 77.3175C109.382 77.6098 109.327 77.9497 109.389 78.2782C109.681 79.7864 111.579 80.4229 112.832 79.7864"
        stroke="black" stroke-width="2" stroke-miterlimit="10" />
    <path
        d="M116.508 74.926C116.508 74.926 117.943 74.0719 116.972 71.971C116.628 71.2235 115.584 70.7052 113.337 70.8483C107.351 71.2293 105.006 77.3847 109.551 77.3175"
        stroke="black" stroke-width="2" stroke-miterlimit="10" />
    <path
        d="M115.144 70.8379C116.473 69.0071 114.122 67.2551 112.41 67.315C110.795 67.3719 109.161 67.969 107.747 68.7166C105.778 69.7561 103.238 71.7694 103.965 74.3171C104.18 75.0676 105.878 75.9947 106.987 75.4588"
        stroke="black" stroke-width="2" stroke-miterlimit="10" />
    <path
        d="M103.84 73.4116C103.84 73.4116 103.84 73.4116 103.84 73.4204C102.913 75.1913 98.5238 73.4204 101.001 69.7339C101.58 68.9183 102.274 68.1909 103.062 67.5745C109.24 62.5258 110.621 67.6592 110.613 67.3541"
        stroke="black" stroke-width="2" stroke-miterlimit="10" />
    <path d="M106.529 75.4998C106.529 75.4998 108.789 77.1058 108.096 79.7819" stroke="black"
        stroke-width="2" stroke-miterlimit="10" />
    <path
        d="M26.9589 62.6532C26.8129 62.0779 26.8319 61.3523 27.1735 60.4238C27.6655 59.0893 29.0993 58.2133 30.495 57.6366C31.0046 57.4264 31.517 57.2526 31.955 57.1169C33.4778 56.6497 35.1495 56.4015 36.773 56.565C37.3202 56.618 37.8612 56.7216 38.3892 56.8745C38.9983 57.0501 39.5812 57.3065 40.1223 57.6366C41.4567 58.4571 42.3604 59.7025 42.9036 61.3377C43.3766 62.7481 43.5591 64.4242 42.3882 65.3045"
        fill="#EFEFEF" fill-opacity="0.996078" />
    <path
        d="M26.9589 62.6532C26.8129 62.0779 26.8319 61.3523 27.1735 60.4238C27.6655 59.0893 29.0993 58.2133 30.495 57.6366C31.0046 57.4264 31.517 57.2526 31.955 57.1169C33.4778 56.6497 35.1495 56.4015 36.773 56.565C37.3202 56.618 37.8612 56.7216 38.3892 56.8745C38.9983 57.0501 39.5812 57.3065 40.1223 57.6366C41.4567 58.4571 42.3604 59.7025 42.9036 61.3377C43.3766 62.7481 43.5591 64.4242 42.3882 65.3045"
        stroke="black" stroke-width="2" stroke-miterlimit="10" />
    <path
        d="M42.4949 84.0715L42.0642 86.1564C42.0499 86.2266 42.0218 86.293 41.9812 86.352C41.9406 86.411 41.8886 86.4611 41.8283 86.4996C41.7679 86.538 41.7004 86.5638 41.6299 86.5757C41.5592 86.5873 41.487 86.5849 41.4175 86.5681C39.7604 86.1753 38.3077 85.8103 36.7805 85.4585C36.0228 85.2804 35.2402 85.1125 34.4109 84.9387C31.1697 84.2686 27.9329 83.5123 24.6742 82.9283C23.312 82.6845 21.9484 82.4728 20.576 82.3136C19.808 82.2246 19.0298 82.1881 18.2575 82.1311C18.0887 82.1273 17.925 82.0719 17.7888 81.972C17.0588 81.4376 17.7888 79.7002 17.948 78.979C17.948 78.9702 17.948 78.96 17.948 78.9513C18.0604 78.3979 21.2403 78.5571 25.686 79.2506C27.2365 79.4944 28.9403 79.7981 30.7259 80.1645C33.2356 80.6799 35.4986 81.2362 37.3484 81.7705C37.6667 81.864 37.9719 81.953 38.2624 82.0421C38.2624 82.0421 38.2624 82.0421 38.2712 82.0421C38.6405 82.1589 38.988 82.2713 39.3151 82.3837C41.381 83.0889 42.5709 83.7021 42.4949 84.0715Z"
        fill="#111A26" />
    <path
        d="M42.4949 84.0715L42.0642 86.1564C42.0499 86.2266 42.0218 86.293 41.9812 86.352C41.9406 86.411 41.8886 86.4611 41.8283 86.4996C41.7679 86.538 41.7004 86.5638 41.6299 86.5757C41.5592 86.5873 41.487 86.5849 41.4175 86.5681C39.7604 86.1753 38.3077 85.8103 36.7805 85.4585C36.0228 85.2804 35.2402 85.1125 34.4109 84.9387C31.1697 84.2686 27.9329 83.5123 24.6742 82.9283C23.312 82.6845 21.9484 82.4728 20.576 82.3136C19.808 82.2246 19.0298 82.1881 18.2575 82.1311C18.0887 82.1273 17.925 82.0719 17.7888 81.972C17.0588 81.4376 17.7888 79.7002 17.948 78.979C17.948 78.9702 17.948 78.96 17.948 78.9513C18.0604 78.3979 21.2403 78.5571 25.686 79.2506C27.2365 79.4944 28.9403 79.7981 30.7259 80.1645C33.2356 80.6799 35.4986 81.2362 37.3484 81.7705C37.6667 81.864 37.9719 81.953 38.2624 82.0421C38.2624 82.0421 38.2624 82.0421 38.2712 82.0421C38.6405 82.1589 38.988 82.2713 39.3151 82.3837C41.381 83.0889 42.5709 83.7021 42.4949 84.0715Z"
        stroke="black" stroke-width="2" stroke-miterlimit="10" />
    <path
        d="M37.9483 67.4154L38.363 68.2462C38.8842 68.817 39.6054 69.1776 40.5939 68.9294C42.5327 68.4476 42.724 66.8402 42.3867 65.3043C42.3288 65.0254 42.2537 64.7503 42.1619 64.4808C41.7078 63.1259 41.0056 62.0353 40.0215 61.2396C39.3223 60.6736 38.5144 60.2572 37.6476 60.0161C36.9414 59.8122 36.2127 59.696 35.478 59.6701C34.0345 59.6203 32.5932 59.8179 31.2163 60.2541C29.8395 60.6761 27.9561 61.4017 26.9545 62.6471C26.7301 62.9207 26.5526 63.2295 26.4289 63.561C26.1209 64.3991 26.0683 65.078 26.1764 65.6269L26.28 66.1379"
        fill="#EFEFEF" fill-opacity="0.996078" />
    <path
        d="M37.9483 67.4154L38.363 68.2462C38.8842 68.817 39.6054 69.1776 40.5939 68.9294C42.5327 68.4476 42.724 66.8402 42.3867 65.3043C42.3288 65.0254 42.2537 64.7503 42.1619 64.4808C41.7078 63.1259 41.0056 62.0353 40.0215 61.2396C39.3223 60.6736 38.5144 60.2572 37.6476 60.0161C36.9414 59.8122 36.2127 59.696 35.478 59.6701C34.0345 59.6203 32.5932 59.8179 31.2163 60.2541C29.8395 60.6761 27.9561 61.4017 26.9545 62.6471C26.7301 62.9207 26.5526 63.2295 26.4289 63.561C26.1209 64.3991 26.0683 65.078 26.1764 65.6269L26.28 66.1379"
        stroke="black" stroke-width="2" stroke-miterlimit="10" />
    <path
        d="M38.4857 56.9067L38.9675 54.9108L39.5398 52.5602C39.6206 52.2212 39.6308 51.8694 39.5696 51.5263C39.5084 51.1833 39.3772 50.8566 39.1842 50.5665C38.9912 50.2764 38.7405 50.029 38.4478 49.8401C38.155 49.651 37.8265 49.5245 37.4827 49.468C37.3481 49.4456 37.2119 49.435 37.0754 49.4358C36.4976 49.4344 35.9368 49.6312 35.4867 49.9934C35.0368 50.3556 34.7245 50.8612 34.6021 51.4258C34.4561 52.1062 34.2736 52.934 34.0721 53.8669C33.8809 54.7517 33.6692 55.7211 33.4443 56.7431"
        stroke="black" stroke-width="2" stroke-miterlimit="10" />
    <path d="M32.7668 59.8816V59.876" stroke="black" stroke-width="2" stroke-miterlimit="10" />
    <path
        d="M30.9069 68.6023C30.7609 69.3192 30.6777 69.7703 30.6821 69.8477C30.6821 69.8477 30.6821 69.8477 30.6821 69.8579C30.0499 74.1065 28.1898 76.3783 26.1663 77.5623C24.9286 78.2665 23.5463 78.6785 22.125 78.7668"
        stroke="black" stroke-width="2" stroke-miterlimit="10" />
    <path
        d="M35.4781 69.366C35.4781 69.366 32.088 78.4019 37.3893 81.6052C37.6696 81.7735 37.9625 81.9199 38.2653 82.0432C38.6281 82.1938 39.0026 82.3144 39.3851 82.4038"
        stroke="black" stroke-width="2" stroke-miterlimit="10" />
    <path
        d="M41.7839 86.5257C41.7839 86.5257 41.8073 86.9432 36.6871 86.1709C34.9351 85.9081 32.5801 85.5051 29.4133 84.8963C27.4277 84.5167 25.7779 84.1794 24.4114 83.8889C17.2311 82.353 17.7874 81.9734 17.7874 81.9734"
        stroke="black" stroke-width="2" stroke-miterlimit="10" />
    <path
        d="M55.2101 35.7334C54.118 41.5223 50.5205 47.6163 46.1581 51.5276C44.3739 53.1336 42.2993 54.2534 40.0597 54.6944C39.3724 54.8341 38.6731 54.9061 37.9718 54.909L38.5398 52.5598C38.6792 51.9813 38.6112 51.3721 38.3477 50.8385C38.084 50.3049 37.6416 49.8807 37.0973 49.6398C36.9006 49.5555 36.6949 49.4941 36.4841 49.4573C36.3491 49.435 36.2123 49.4242 36.0753 49.4252C35.4964 49.4244 34.9348 49.6223 34.4843 49.9862C34.0341 50.3501 33.7227 50.8578 33.6021 51.424C33.513 51.8503 33.405 52.3335 33.2882 52.8621C27.7402 49.1945 25.3341 41.35 25.6013 34.98C25.6859 32.863 25.8027 30.0759 26.7298 27.9209C27.0427 27.1529 27.5098 26.4572 28.1022 25.8769C30.7302 23.4037 34.3277 22.2751 38.0375 22.1057C40.885 22.24 43.6873 22.8694 46.3187 23.9658C51.2243 26.0375 56.343 29.7109 55.2101 35.7334Z"
        fill="#D9D9D9" />
    <path
        d="M56.2101 35.735C55.1195 41.5239 51.5221 47.6179 47.1581 51.5293C44.8221 53.6229 42.0029 54.896 38.9675 54.9106L39.5398 52.56C39.6206 52.2212 39.6308 51.8692 39.5696 51.5261C39.5083 51.1831 39.3772 50.8563 39.1842 50.5662C38.9912 50.2761 38.7405 50.0288 38.4478 49.8399C38.155 49.6508 37.8265 49.5242 37.4827 49.4677C37.3481 49.4454 37.2119 49.4347 37.0754 49.4356C36.4976 49.4342 35.9369 49.6311 35.4867 49.9932C35.0366 50.3554 34.7245 50.861 34.6021 51.4256C34.4561 52.106 34.2736 52.9338 34.0721 53.8667C27.2247 50.8314 24.2682 42.0115 24.5646 34.9816C24.6478 32.8646 24.7646 30.0775 25.6932 27.9225C26.0055 27.1543 26.4727 26.4584 27.0656 25.8785C32.2355 21.0167 41.1312 21.3525 47.3187 23.9674C52.2229 26.0391 57.3431 29.711 56.2101 35.735Z"
        stroke="black" stroke-width="2" stroke-miterlimit="10" />
    <path
        d="M56.1809 35.9438C57.362 37.3571 58.4702 39.7252 57.4949 43.2438C57.345 43.7991 57.1303 44.3346 56.8554 44.8396C55.3049 47.6136 52.3119 48.0998 50.2942 48.0706"
        stroke="black" stroke-width="2" stroke-miterlimit="10" />
    <path
        d="M55.2815 38.9033C56.3035 40.1268 57.2481 42.0642 56.8539 44.8426C56.7913 45.2886 56.6991 45.73 56.578 46.1639C55.118 51.4082 49.7583 51.1498 47.9187 50.8943"
        stroke="black" stroke-width="2" stroke-miterlimit="10" />
    <path
        d="M26.6582 46.1358C25.5165 46.3708 19.056 45.0451 18.9771 39.6592C18.9539 38.9292 19.0916 38.203 19.3801 37.532C20.3919 35.2515 23.0607 34.5302 24.5981 34.2952"
        stroke="black" stroke-width="2" stroke-miterlimit="10" />
    <path
        d="M25.4962 43.4365C24.3282 43.508 18.1217 41.2932 18.7948 35.9481C18.8751 35.2241 19.1128 34.5265 19.4912 33.9041C20.8052 31.7857 23.5558 31.4455 25.1093 31.4221"
        stroke="black" stroke-width="2" stroke-miterlimit="10" />
    <path d="M51.6841 111.005C51.6841 111.005 51.8169 109.991 52.5469 107.698" stroke="black"
        stroke-width="2" stroke-miterlimit="10" />
    <path
        d="M75.6952 95.1814V95.1916C75.6426 98.6825 73.2132 99.4738 71.2174 99.8534C66.2986 100.794 62.8837 97.2064 63.0341 94.082"
        stroke="black" stroke-width="2" stroke-miterlimit="10" />
    <path
        d="M63.9671 75.9741C63.9671 75.9741 64.1131 77.5801 62.7159 79.6519C62.3421 80.2096 63.6357 80.4388 63.9437 80.5425"
        stroke="black" stroke-width="2" stroke-miterlimit="10" />
    <path
        d="M69.6002 79.4498C70.4299 78.0125 70.1555 76.3008 68.9872 75.6263C67.8189 74.9518 66.1993 75.57 65.3696 77.0072C64.5399 78.4443 64.8142 80.1561 65.9825 80.8306C67.1508 81.505 68.7705 80.8868 69.6002 79.4498Z"
        fill="white" stroke="black" stroke-width="2" stroke-miterlimit="10" />
    <path
        d="M63.8043 77.5907C64.6341 76.1469 64.3553 74.4298 63.1816 73.7553C62.0081 73.0808 60.384 73.7044 59.5543 75.1482C58.7246 76.5918 59.0034 78.3089 60.177 78.9834C61.3507 79.658 62.9746 79.0344 63.8043 77.5907Z"
        stroke="black" stroke-width="2" stroke-miterlimit="10" />
    <path
        d="M61.7829 74.5244C62.0267 74.5222 62.2666 74.5852 62.4778 74.7069C62.6742 74.8275 62.8408 74.9912 62.965 75.1854C63.0891 75.3795 63.1677 75.5994 63.1947 75.8282C63.274 76.3992 63.155 76.98 62.8574 77.4736C62.4194 78.2255 61.6894 78.7102 60.9667 78.7102C60.7231 78.7132 60.483 78.6507 60.2718 78.5292C60.0756 78.4085 59.9091 78.2448 59.785 78.0506C59.6609 77.8564 59.5822 77.6368 59.5549 77.4079C59.4756 76.8366 59.5946 76.2553 59.8922 75.761C60.3302 75.0106 61.0602 74.5244 61.7829 74.5244ZM61.7829 74.0864C60.939 74.0864 60.044 74.6237 59.5155 75.5464C58.7855 76.8108 59.0264 78.3204 60.0542 78.9044C60.3316 79.0643 60.6466 79.1475 60.9667 79.1453C61.8106 79.1453 62.7056 78.6066 63.2356 77.6853C63.9656 76.4224 63.7232 74.9113 62.6954 74.3273C62.4177 74.1685 62.1028 74.086 61.7829 74.0879V74.0864Z"
        fill="white" />
    <path
        d="M63.2349 77.6873C63.9646 76.4234 63.7234 74.918 62.6962 74.325C61.6691 73.7319 60.2447 74.2758 59.515 75.5397C58.7853 76.8036 59.0265 78.309 60.0536 78.9021C61.0808 79.4951 62.5051 78.9513 63.2349 77.6873Z"
        fill="white" fill-opacity="0.9" />
    <path
        d="M69.6643 79.0343C70.3942 77.7645 70.1492 76.2544 69.1173 75.6614C68.0853 75.0683 66.6572 75.6169 65.9275 76.8866C65.1978 78.1564 65.4427 79.6665 66.4747 80.2595C67.5066 80.8526 68.9346 80.304 69.6643 79.0343Z"
        fill="white" fill-opacity="0.9" />
    <path d="M63.948 76.504C63.948 76.504 64.386 75.8514 65.3744 77.0063" stroke="black"
        stroke-width="2" stroke-miterlimit="10" />
    <path
        d="M68.2457 78.0993C68.4836 77.7879 68.4623 77.3719 68.1983 77.1703C67.9342 76.9688 67.5274 77.0579 67.2896 77.3693C67.0518 77.6809 67.0731 78.0967 67.3372 78.2983C67.6012 78.4999 68.0081 78.4109 68.2457 78.0993Z"
        fill="#353642" />
    <path
        d="M63.3203 76.6814C63.558 76.3699 63.5369 75.954 63.2728 75.7524C63.0086 75.5509 62.6019 75.6399 62.3641 75.9514C62.1262 76.2629 62.1475 76.6787 62.4116 76.8803C62.6756 77.082 63.0825 76.9929 63.3203 76.6814Z"
        fill="#353642" />
    <path d="M66.9456 83.1453C63.9555 85.6857 62.386 83.4227 62.386 83.4227" stroke="black"
        stroke-width="2" stroke-miterlimit="10" />
    <path
        d="M35.2678 97.7484C37.8535 97.2856 40.4625 96.9235 43.0248 96.4505C44.2746 96.2208 45.5233 95.9979 46.7712 95.7818C52.3308 94.8357 57.8818 94.0999 63.5028 94.0765C63.7742 94.0766 64.0365 93.9785 64.2412 93.8004C64.4461 93.6221 64.5794 93.376 64.6167 93.1071L64.7204 92.3289L65.3759 87.4773"
        stroke="black" stroke-width="2" stroke-miterlimit="10" />
    <path d="M74.6411 87.8657V87.8424V87.7256" stroke="black" stroke-width="2"
        stroke-miterlimit="10" />
    <path d="M17.7771 138.7H49.8022H53.4245H84.4538H90.2676H129.022" stroke="#131420"
        stroke-width="2" stroke-miterlimit="10" stroke-linecap="round" />
    <path
        d="M88.7812 114.156C88.7812 114.156 89.4704 121.009 90.4953 127.702C91.1698 132.105 91.9947 136.437 92.8561 138.7"
        stroke="black" stroke-width="2" stroke-miterlimit="10" />
    <path
        d="M90.4954 127.702L90.6311 127.665L90.8385 127.608C91.9335 127.299 93.0387 127.024 94.1585 126.794C94.3366 126.756 94.5147 126.723 94.6929 126.69C95.9416 126.46 97.2076 126.336 98.4772 126.32C99.0393 126.32 99.578 126.301 100.093 126.274H100.126C102.285 126.151 104.089 125.805 105.598 125.29C108.061 124.452 109.724 123.164 110.824 121.673C110.833 121.665 110.838 121.65 110.848 121.641C111.649 120.53 112.207 119.263 112.487 117.923C112.485 117.916 112.485 117.91 112.487 117.904L112.502 117.833"
        stroke="black" stroke-width="2" stroke-miterlimit="10" />
</svg>