<svg width="645" height="645" viewBox="0 0 645 645" fill="none" xmlns="http://www.w3.org/2000/svg">
<g clip-path="url(#clip0_4350_11320)">
<path d="M121.75 528.566C122.988 525.296 124.227 522.026 125.439 518.756L125.575 518.421C139.334 481.87 153.114 445.34 166.913 408.829C171.247 397.315 175.794 385.447 184.392 376.656C202.31 358.364 233.928 360.105 254.368 375.708L254.523 375.837L254.658 375.927C256.984 377.729 259.157 379.72 261.154 381.881C268.73 390.04 274.284 399.865 277.369 410.564C282.651 428.791 282.871 448.522 278.981 467.814C278.214 471.723 277.24 475.586 276.137 479.424C270.4 499.131 260.716 517.465 247.673 533.314C257.929 535.52 268.225 537.627 278.562 539.635C334.243 550.427 390.108 560.193 446.159 568.931C479.879 574.213 515.606 579.896 549.417 584.411L562.317 586.004C563.729 586.181 565.165 586.042 566.517 585.595C567.869 585.15 569.105 584.407 570.134 583.424L591.239 562.661C593.832 560.197 597.243 558.774 600.819 558.667C604.395 558.56 607.885 559.775 610.621 562.081L615.613 567.241C600.72 582.998 591 594.44 576.107 610.198C573.94 612.494 571.708 614.835 568.812 616.093C565.916 617.351 562.652 617.383 559.492 617.383H541.019C525.397 617.383 509.767 617.383 494.128 617.383L177.478 617.447C164.507 617.447 151.097 617.364 139.203 612.171C133.465 609.635 128.302 605.959 124.027 601.368" fill="#44B5FF"/>
<path d="M121.75 528.566C122.988 525.296 124.226 522.026 125.439 518.756L125.575 518.421C139.334 481.87 153.114 445.34 166.913 408.829C171.247 397.315 175.794 385.447 184.392 376.656C202.31 358.364 233.928 360.105 254.368 375.708L254.523 375.837L254.658 375.927C256.984 377.729 259.157 379.72 261.154 381.881C268.73 390.04 274.284 399.865 277.369 410.564C282.651 428.791 282.871 448.522 278.981 467.814C278.214 471.723 277.24 475.586 276.137 479.424C270.4 499.131 260.716 517.465 247.673 533.314C257.929 535.52 268.225 537.627 278.562 539.635C334.243 550.427 390.108 560.193 446.159 568.931C479.879 574.213 515.606 579.896 549.417 584.411L562.317 586.004C563.729 586.181 565.165 586.042 566.517 585.595C567.869 585.15 569.105 584.407 570.134 583.424L591.239 562.661C593.832 560.197 597.243 558.774 600.819 558.667C604.395 558.56 607.885 559.775 610.621 562.081L615.613 567.241C600.72 582.998 591 594.44 576.107 610.198C573.94 612.494 571.708 614.835 568.812 616.093C565.916 617.351 562.652 617.383 559.492 617.383H541.019C525.397 617.383 509.767 617.383 494.128 617.383L177.478 617.447C164.507 617.447 151.097 617.364 139.203 612.171C133.465 609.635 128.302 605.959 124.027 601.368" stroke="#252525" stroke-width="5.14" stroke-miterlimit="10"/>
<path d="M305.255 161.764C305.255 161.764 224.63 117.117 182.647 173.548C140.664 229.979 203.442 274.052 148.288 307.256C93.1337 340.461 135.73 404.18 85.7227 425.349C35.7158 446.518 50.5637 537.986 109.175 559.09" stroke="white" stroke-width="5.14" stroke-miterlimit="10"/>
<path d="M535.403 494.313C535.558 494.958 535.687 495.551 535.797 496.19C536.061 497.518 536.306 498.866 536.481 500.234C540.351 528.762 527.825 557.374 510.281 579.272" stroke="#CCDDE2" stroke-width="5.14" stroke-miterlimit="10"/>
<path d="M255.093 167.661H500.2C530.254 167.661 554.618 192.025 554.618 222.08V452.828C554.618 482.883 530.254 507.247 500.2 507.247H255.093C225.039 507.247 200.674 482.883 200.674 452.828V222.08C200.674 192.025 225.039 167.661 255.093 167.661Z" fill="#3D6CC9"/>
<path d="M258.698 162.7H501.754C533.803 162.7 559.784 188.681 559.784 220.731V449.215C559.784 481.265 533.803 507.246 501.754 507.246H258.698C226.649 507.246 200.667 481.265 200.667 449.215V220.731C200.667 188.681 226.649 162.7 258.698 162.7Z" stroke="#3D6CC9" stroke-width="5.14" stroke-miterlimit="10"/>
<path d="M262.052 174.335H493.24C523.294 174.335 547.658 198.699 547.658 228.754V446.145C547.658 476.199 523.294 500.563 493.24 500.563H262.052C231.998 500.563 207.634 476.199 207.634 446.145V228.754C207.634 198.699 231.998 174.335 262.052 174.335Z" fill="white"/>
<path d="M247.804 191.46H319C328.675 191.46 336.537 199.909 336.537 210.313V400.504C336.537 410.928 328.675 419.384 319 419.384H247.804C238.129 419.384 230.235 410.928 230.235 400.504V210.313C230.235 199.909 238.104 191.46 247.804 191.46ZM238.523 395.209C238.523 403.904 245.063 410.928 253.151 410.928H313.64C321.728 410.928 328.268 403.904 328.268 395.209V215.654C328.268 206.966 321.728 199.935 313.64 199.935H253.164C245.076 199.935 238.536 206.966 238.536 215.654L238.523 395.209Z" fill="#3D6CC9"/>
<path d="M408.294 431.544L512.636 430.041C513.758 430.022 514.828 429.558 515.609 428.752C516.391 427.945 516.82 426.861 516.802 425.739C516.803 425.352 516.746 424.967 516.635 424.597C516.367 423.714 515.821 422.94 515.076 422.394C514.331 421.849 513.43 421.561 512.507 421.572L408.165 423.107C408.957 424.314 409.403 425.715 409.455 427.158C409.497 428.701 409.094 430.223 408.294 431.544Z" fill="#3D6CC9"/>
<path d="M383.003 428.809C383.269 429.693 383.814 430.468 384.558 431.017C385.301 431.566 386.201 431.859 387.125 431.853L394.658 431.744C393.852 430.483 393.413 429.023 393.39 427.527C393.367 426.032 393.762 424.559 394.529 423.275L386.996 423.385C385.873 423.405 384.803 423.868 384.022 424.675C383.24 425.481 382.808 426.564 382.822 427.687C382.827 428.067 382.888 428.446 383.003 428.809Z" fill="#D7E8F0"/>
<path d="M383.248 445.611C383.512 446.493 384.057 447.266 384.799 447.811C385.541 448.357 386.441 448.646 387.363 448.636L491.06 447.12C489.908 445.758 489.254 444.045 489.202 442.263C489.152 441.027 489.398 439.799 489.918 438.677L387.247 440.16C386.125 440.182 385.058 440.647 384.277 441.453C383.496 442.259 383.066 443.34 383.08 444.463C383.079 444.851 383.136 445.238 383.248 445.611Z" fill="#D7E8F0"/>
<path d="M503.527 446.934L512.873 446.811C513.994 446.796 515.064 446.336 515.846 445.533C516.629 444.73 517.06 443.649 517.047 442.528C517.045 442.135 516.986 441.743 516.872 441.367C516.611 440.485 516.068 439.712 515.326 439.168C514.584 438.624 513.684 438.338 512.764 438.355L504.437 438.491C504.917 439.501 505.189 440.598 505.237 441.716C505.308 443.603 504.702 445.454 503.527 446.934Z" fill="#3D6CC9"/>
<path d="M415.679 465.206L512.493 463.8C513.614 463.772 514.678 463.306 515.458 462.502C516.237 461.697 516.669 460.618 516.66 459.497C516.656 459.116 516.595 458.738 516.479 458.375C516.214 457.49 515.669 456.715 514.926 456.166C514.183 455.617 513.282 455.324 512.358 455.331L415.692 456.756C416.482 458.024 416.902 459.487 416.902 460.981C416.902 462.475 416.482 463.938 415.692 465.206H415.679Z" fill="#3D6CC9"/>
<path d="M382.842 462.607C383.106 463.493 383.654 464.267 384.401 464.812C385.148 465.357 386.052 465.643 386.976 465.626L402.153 465.393L415.698 465.206C416.489 463.939 416.908 462.475 416.908 460.982C416.908 459.488 416.489 458.024 415.698 456.757L401.921 456.963L386.854 457.176C385.734 457.195 384.668 457.655 383.887 458.458C383.106 459.261 382.675 460.339 382.687 461.459C382.679 461.847 382.732 462.234 382.842 462.607Z" fill="#D7E8F0"/>
<path d="M394.658 431.743C395.605 433.227 397.014 434.359 398.668 434.962C400.323 435.566 402.129 435.609 403.809 435.083C405.49 434.557 406.951 433.494 407.967 432.055C408.982 430.617 409.496 428.884 409.429 427.125C409.393 426.071 409.149 425.035 408.713 424.075C408.276 423.116 407.654 422.252 406.884 421.533C406.112 420.814 405.207 420.254 404.22 419.885C403.232 419.517 402.181 419.347 401.128 419.385C400.074 419.419 399.036 419.661 398.076 420.097C397.116 420.533 396.251 421.155 395.532 421.926C394.812 422.698 394.253 423.604 393.885 424.592C393.517 425.581 393.348 426.632 393.388 427.686C393.442 429.128 393.88 430.528 394.658 431.743Z" fill="white"/>
<g opacity="0.72">
<path opacity="0.72" d="M397.683 426.815C397.86 427.78 398.307 428.675 398.973 429.395C399.296 429.761 399.653 430.095 400.038 430.395C400.244 430.543 401.328 431.427 401.56 431.317C403.005 430.588 404.837 428.737 405.062 426.95C405.098 426.67 405.098 426.386 405.062 426.105C404.982 425.616 404.726 425.172 404.342 424.857C403.959 424.541 403.475 424.375 402.979 424.39C402.658 424.404 402.346 424.493 402.065 424.649C401.784 424.804 401.543 425.022 401.36 425.286C401.077 424.933 400.688 424.682 400.251 424.571C399.813 424.46 399.351 424.495 398.934 424.67C398.517 424.844 398.17 425.151 397.943 425.541C397.716 425.932 397.623 426.385 397.677 426.834L397.683 426.815Z" fill="white"/>
</g>
<path d="M491.06 447.119C491.826 448.036 492.787 448.77 493.873 449.268C494.959 449.767 496.143 450.016 497.338 449.998C498.533 449.98 499.709 449.695 500.78 449.165C501.85 448.634 502.79 447.871 503.527 446.932C504.706 445.447 505.313 443.589 505.237 441.694C505.189 440.577 504.917 439.48 504.437 438.469C503.757 437.073 502.688 435.904 501.358 435.102C500.028 434.301 498.494 433.903 496.942 433.954C495.447 433.999 493.995 434.466 492.753 435.3C491.512 436.134 490.531 437.302 489.924 438.669C489.405 439.791 489.159 441.02 489.208 442.255C489.257 444.039 489.91 445.754 491.06 447.119Z" fill="white"/>
<g opacity="0.72">
<path opacity="0.72" d="M493.485 441.398C493.661 442.363 494.108 443.258 494.775 443.978C495.096 444.347 495.456 444.681 495.846 444.977C496.052 445.126 497.136 446.016 497.362 445.9C498.813 445.171 500.638 443.32 500.864 441.533C500.899 441.253 500.899 440.969 500.864 440.688C500.781 440.199 500.525 439.756 500.143 439.441C499.76 439.125 499.276 438.959 498.781 438.972C498.46 438.987 498.147 439.076 497.867 439.232C497.585 439.387 497.344 439.605 497.162 439.869C496.879 439.516 496.489 439.264 496.05 439.153C495.612 439.041 495.149 439.076 494.732 439.252C494.315 439.428 493.967 439.735 493.741 440.128C493.515 440.519 493.423 440.975 493.479 441.423L493.485 441.398Z" fill="white"/>
</g>
<path d="M402.153 465.393C403.118 466.852 404.531 467.957 406.181 468.54C407.831 469.123 409.625 469.152 411.292 468.622C412.96 468.092 414.408 467.033 415.419 465.605C416.43 464.177 416.946 462.459 416.892 460.71C416.837 459.311 416.425 457.949 415.692 456.756C414.957 455.581 413.932 454.615 412.715 453.952C411.498 453.29 410.131 452.953 408.745 452.973C407.359 452.994 406.003 453.372 404.806 454.071C403.609 454.77 402.613 455.766 401.915 456.963C401.147 458.269 400.771 459.77 400.831 461.284C400.887 462.749 401.344 464.17 402.153 465.393Z" fill="white"/>
<g opacity="0.72">
<path opacity="0.72" d="M405.126 460.413C405.3 461.38 405.747 462.275 406.416 462.993C406.739 463.361 407.098 463.696 407.487 463.993C407.693 464.148 408.777 465.032 409.003 464.915C410.454 464.187 412.279 462.335 412.505 460.549C412.544 460.268 412.544 459.984 412.505 459.704C412.441 459.3 412.257 458.925 411.977 458.627C411.697 458.33 411.334 458.124 410.935 458.037C410.535 457.948 410.119 457.983 409.74 458.136C409.361 458.288 409.036 458.551 408.809 458.891C408.525 458.54 408.135 458.291 407.698 458.181C407.261 458.071 406.799 458.106 406.383 458.28C405.967 458.455 405.62 458.76 405.391 459.149C405.164 459.538 405.068 459.991 405.12 460.439L405.126 460.413Z" fill="white"/>
</g>
<path d="M517.601 211.462L517.421 236.198C517.376 240.51 515.666 244.638 512.646 247.718C509.628 250.798 505.535 252.591 501.225 252.723L476.715 253.148C474.612 253.175 472.526 252.781 470.579 251.987C468.632 251.195 466.863 250.019 465.378 248.531C463.893 247.043 462.721 245.272 461.931 243.323C461.143 241.374 460.752 239.287 460.783 237.185L460.97 212.455C461.008 208.138 462.716 204.004 465.735 200.918C468.755 197.833 472.851 196.036 477.166 195.905L501.676 195.472C503.78 195.446 505.868 195.843 507.816 196.637C509.765 197.433 511.533 198.61 513.018 200.102C514.503 201.592 515.673 203.366 516.461 205.317C517.248 207.269 517.636 209.358 517.601 211.462Z" fill="#3D6CC9"/>
<path d="M513.835 217.667L513.706 235.572C513.666 239.319 512.179 242.905 509.556 245.581C506.933 248.257 503.378 249.815 499.632 249.93L478.347 250.298C476.519 250.325 474.705 249.984 473.011 249.297C471.317 248.61 469.778 247.591 468.486 246.298C467.193 245.005 466.173 243.466 465.486 241.773C464.799 240.079 464.459 238.264 464.486 236.437V235.224C467.472 229.116 473.29 219.976 479.495 225.439C488.441 233.302 492.537 227.316 497.749 219.602C502.141 213.146 508.759 208.431 513.835 217.667Z" fill="white"/>
<path d="M473.826 215.199C471.126 213.405 470.43 209.704 472.271 206.933C474.113 204.162 477.794 203.37 480.494 205.164C483.194 206.957 483.89 210.658 482.049 213.429C480.208 216.201 476.526 216.993 473.826 215.199Z" fill="white"/>
<path d="M381.758 244.75C385.585 244.747 389.319 245.929 392.447 248.134C395.576 250.339 397.944 253.459 399.228 257.064C400.51 260.67 400.645 264.584 399.613 268.27C398.581 271.955 396.433 275.231 393.464 277.645L435.609 353.239C435.908 353.193 436.209 353.163 436.512 353.149C437.286 353.161 438.054 353.28 438.795 353.504L470.374 314.288C468.977 312.341 468.19 310.021 468.115 307.626C468.04 305.23 468.679 302.866 469.951 300.834C471.223 298.803 473.071 297.195 475.259 296.217C477.447 295.239 479.877 294.933 482.24 295.34C484.602 295.747 486.79 296.846 488.525 298.5C490.26 300.154 491.464 302.286 491.984 304.626C492.503 306.967 492.315 309.409 491.443 311.641C490.57 313.874 489.054 315.797 487.086 317.165L509.203 380.117C511.138 380.23 512.974 381.01 514.398 382.324C515.823 383.638 516.748 385.404 517.017 387.324C517.286 389.243 516.883 391.196 515.874 392.851C514.865 394.506 513.314 395.76 511.485 396.401C509.657 397.042 507.662 397.029 505.841 396.365C504.021 395.701 502.486 394.427 501.499 392.759C500.511 391.092 500.132 389.134 500.425 387.218C500.719 385.302 501.666 383.547 503.108 382.252L480.985 319.3C480.714 319.3 480.449 319.338 480.178 319.338C478.53 319.339 476.9 319.004 475.386 318.351L443.833 357.561C444.52 358.827 444.866 360.25 444.837 361.69C444.808 363.131 444.404 364.539 443.665 365.776C442.926 367.012 441.878 368.035 440.624 368.744C439.37 369.452 437.952 369.822 436.512 369.816C434.946 369.824 433.411 369.39 432.082 368.563C430.753 367.737 429.684 366.551 428.999 365.144C428.314 363.736 428.041 362.164 428.211 360.608C428.38 359.052 428.987 357.575 429.959 356.348L387.814 280.78C385.27 281.661 382.563 281.977 379.885 281.705C377.205 281.433 374.618 280.58 372.302 279.206C369.986 277.833 367.998 275.97 366.476 273.749C364.953 271.528 363.933 269.002 363.487 266.346C363.04 263.69 363.178 260.97 363.891 258.373C364.603 255.776 365.873 253.366 367.613 251.31C369.352 249.255 371.518 247.603 373.962 246.47C376.404 245.337 379.065 244.75 381.758 244.75Z" fill="#3D6CC9"/>
<path d="M95.8104 456.562C95.8556 456.362 95.9007 456.169 95.9652 455.969C98.0499 448.516 102.34 441.867 108.272 436.896C108.343 436.857 108.427 436.786 108.498 436.741C109.046 436.348 109.62 435.967 110.194 435.593C110.968 435.109 111.768 434.645 112.561 434.18C112.629 434.134 112.702 434.097 112.78 434.071C115.851 432.64 118.774 430.912 121.507 428.911L121.643 428.821C125.332 426.37 128.667 423.519 130.969 419.565C131.022 419.482 131.065 419.393 131.098 419.3C131.143 419.3 131.144 419.229 131.163 419.21C133.285 415.985 134.568 412.45 134.304 408.78V408.671C134.949 402.685 134.304 396.384 134.549 390.308C134.549 389.934 134.549 389.559 134.614 389.179C134.678 388.798 134.678 388.34 134.704 387.966C134.681 387.843 134.681 387.716 134.704 387.592C134.792 386.391 134.947 385.197 135.168 384.012C137.265 372.654 144.56 362.534 153.486 355.4C153.688 355.228 153.904 355.073 154.131 354.936C164.142 347.596 175.1 344.745 182.279 343.642C182.346 343.633 182.413 343.633 182.479 343.642C185.175 343.442 187.736 343.487 190.103 342.952C190.148 342.952 190.193 342.952 190.213 342.952C192.862 342.438 195.226 340.958 196.843 338.798C197.455 338.013 198.001 337.178 198.475 336.302C198.541 336.253 198.589 336.182 198.61 336.102C200.469 333.209 201.696 329.956 202.21 326.556C202.274 326.227 202.364 325.911 202.41 325.582C203.958 318.229 204.003 310.231 204.041 303.62C204.641 293.435 209.169 280.309 217.038 270.963C217.038 270.963 217.038 270.918 217.083 270.918C219.365 268.636 221.934 266.661 224.727 265.042C231.788 261.088 239.894 259.4 247.947 260.205C247.947 260.205 247.947 260.205 247.992 260.205C248.005 260.201 248.018 260.201 248.03 260.205C252.984 260.623 257.783 262.133 262.085 264.623C263.666 265.532 265.162 266.58 266.555 267.758C274.94 274.956 279.745 286.205 281.074 297.299C281.183 298.156 281.248 299.001 281.293 299.879C281.316 299.981 281.316 300.086 281.293 300.188C282.339 301.614 282.959 303.307 283.08 305.071C283.198 307.028 282.727 308.975 281.726 310.661C280.726 312.347 279.243 313.694 277.468 314.527V314.701C277.468 315.275 277.468 315.875 277.468 316.449C277.339 320.373 276.484 324.24 274.946 327.852C272.366 333.948 267.767 340.907 259.969 342.01C258.583 342.208 257.189 342.335 255.79 342.391L252.1 358.167L248.94 371.841C235.156 363.998 218.096 361.631 203.538 366.21H203.493C196.678 368.275 190.487 372.012 185.485 377.079C169.308 390.269 151.1 453.047 150.01 456.936C150.005 456.983 149.99 457.027 149.965 457.065C149.965 457.065 149.965 457.065 149.965 457.11C149.965 457.155 149.965 457.175 149.919 457.22C149.873 457.404 149.806 457.581 149.719 457.749C149.655 457.949 149.584 458.149 149.5 458.349L149.036 459.542C145.811 467.869 135.401 495.017 133.085 501.718C130.318 509.633 128.157 510.252 128.157 510.252C128.039 510.225 127.926 510.18 127.822 510.116L127.383 509.942C120.398 507.113 113.919 503.165 108.201 498.255C108.156 498.255 108.156 498.255 108.156 498.21C102.862 492.828 99.0225 486.19 96.9972 478.918C94.7635 471.678 94.3553 463.998 95.8104 456.562Z" fill="white"/>
<path d="M274.03 294.739C274.03 294.739 272.347 266.539 246.011 259.909C219.676 253.278 203.977 283.89 202.796 303.517C201.616 323.144 202.796 336.696 188.955 342.862C188.955 342.862 148.965 342.378 134.246 379.13C134.246 379.13 132.253 397.126 133.065 408.71C133.878 420.294 119.424 430.453 111.548 434.033C103.673 437.613 89.9795 452.157 93.7012 475.913C97.4228 499.668 126.919 510.233 126.919 510.233C126.919 510.233 129.092 509.588 131.853 501.687C134.613 493.786 148.745 457.13 148.745 457.13C148.745 457.13 167.573 390.695 184.285 377.099C193.483 369.604 203.345 366.211 209.84 362.264C216.683 358.103 219.973 353.517 222.256 350.576C226.713 344.842 234.614 336.18 228.9 315.746C223.185 295.313 228.945 305.613 234.324 302.737C234.324 302.737 240.993 292.417 251.055 299.718C261.117 307.019 258.666 289.243 258.666 289.243L263.085 295.19C263.085 295.19 270.012 296.564 274.03 294.739Z" fill="#2C2C2C"/>
<path d="M339.813 333.168C339.53 332.768 339.168 332.349 338.865 331.929C338.562 331.51 338.182 331.11 337.827 330.71C336.673 329.467 335.425 328.316 334.092 327.266C333.673 326.931 333.254 326.621 332.835 326.318L339.813 333.168Z" fill="#3FBDF1"/>
<path d="M538.784 617.734H559.385C562.546 617.734 565.79 617.734 568.705 616.444C571.621 615.154 573.865 612.845 576 610.549C590.887 594.837 600.607 583.394 615.5 567.637L610.508 562.477C607.772 560.172 604.282 558.957 600.706 559.064C597.13 559.171 593.719 560.593 591.125 563.057L570.028 583.781L538.784 617.734Z" fill="#111A26"/>
<path d="M247.611 534.239C257.859 536.454 268.155 538.561 278.5 540.56C290.699 542.926 302.903 545.239 315.111 547.501L326.495 533.575L345.2 552.977C378.766 558.997 412.396 564.638 446.091 569.901L445.936 569.747L357.848 480.859C351.829 474.779 344.245 470.481 335.937 468.438C327.628 466.394 318.917 466.687 310.763 469.281L276.069 480.35C270.335 500.057 260.653 518.392 247.611 534.239Z" fill="#44B5FF"/>
<path d="M273.365 411.509C277.719 426.583 278.738 442.624 276.945 458.639C276.515 462.746 275.87 466.831 275.01 470.894C274.217 474.958 273.198 478.957 272.05 482.956C266.841 500.838 258.501 517.653 247.417 532.621C247.856 532.711 248.275 532.821 248.656 532.904C261.162 517.362 270.475 499.502 276.062 480.35C277.171 476.48 278.138 472.61 278.912 468.74C279.686 464.87 280.331 460.877 280.77 456.923C282.492 441.476 281.499 426.009 277.3 411.49C274.214 400.793 268.66 390.971 261.085 382.813C259.195 380.762 257.141 378.868 254.944 377.15L254.835 377.066L254.48 376.801L254.325 376.666C252.252 375.091 250.073 373.66 247.804 372.383C242.846 369.559 237.513 367.453 231.963 366.127C235.71 367.395 239.327 369.018 242.767 370.971C245.122 372.301 247.383 373.792 249.533 375.434L249.688 375.563L250.042 375.828H250.081L250.191 375.911C252.468 377.688 254.597 379.646 256.557 381.768C264.403 390.234 270.16 400.419 273.365 411.509Z" fill="#2E2E2E"/>
<path d="M201.949 486.617C201.949 486.617 183.237 510.492 167.646 539C186.264 531.436 224.01 534.272 239.144 535.853C241.153 535.95 243.155 536.176 245.136 536.528C245.261 536.53 245.385 536.546 245.506 536.575C245.551 536.579 245.596 536.579 245.641 536.575C246.609 536.765 247.511 536.927 248.331 537.109C259.889 521.436 268.586 503.828 274.018 485.104C275.215 480.917 276.278 476.729 277.105 472.474C277.932 468.219 278.652 463.931 279.123 459.642C280.993 442.872 279.93 426.075 275.39 410.292C272.039 398.677 266.027 388.012 257.835 379.149C255.792 376.927 253.571 374.876 251.196 373.017L251.082 372.929H251.042L250.672 372.652L250.51 372.517C248.269 370.798 245.911 369.236 243.455 367.844C239.868 365.798 236.096 364.1 232.189 362.771C221.912 360.272 211.11 360.347 201.364 363.447H201.317C195.579 366.297 188.894 369.627 182.538 374.834C173.572 384.039 168.83 396.446 164.31 408.522C158.069 425.181 151.809 441.823 145.531 458.447C145.528 458.497 145.512 458.546 145.484 458.588C145.484 458.588 145.484 458.588 145.484 458.636C145.484 458.683 145.484 458.703 145.437 458.751C145.388 458.942 145.318 459.128 145.229 459.304C145.164 459.518 145.088 459.728 145 459.932C186.513 451.22 201.949 486.617 201.949 486.617Z" fill="#545454"/>
<path d="M254.945 377.15C257.143 378.86 259.198 380.745 261.092 382.788C268.667 390.946 274.221 400.768 277.307 411.464C281.506 425.983 282.499 441.45 280.777 456.898C281.286 457.182 281.815 457.427 282.344 457.691C293.438 463.103 305.7 467.083 318.161 466.992C324.996 466.917 331.733 465.369 337.914 462.452C344.095 459.536 349.575 455.32 353.978 450.093C360.938 441.85 365.336 431.885 368.587 421.713C372.012 410.974 374.618 400.19 378.862 389.741C381.577 383.084 384.293 375.615 390.15 370.932C393.155 368.546 396.916 367.707 399.896 365.321C403.061 362.777 405.353 359.31 406.455 355.401C406.942 353.717 407.253 351.988 407.384 350.241C407.939 343.346 406.094 336.141 403.83 329.756L415.382 321.977C418.523 319.855 419.897 315.263 418.039 311.967C417.507 311.025 416.778 310.21 415.9 309.577C415.023 308.945 414.018 308.51 412.957 308.303C411.971 308.115 410.957 308.13 409.977 308.346C408.996 308.562 408.07 308.976 407.255 309.561L383.39 326.705C383.39 326.705 381.552 320.764 375.921 322.596C370.658 324.318 351.92 331.678 352.565 354.395C352.655 357.856 351.741 361.27 349.934 364.224L327.527 401.299C325.939 403.922 323.819 406.183 321.303 407.935C318.787 409.689 315.933 410.894 312.922 411.475C309.912 412.056 306.813 412 303.826 411.309C300.838 410.618 298.029 409.309 295.58 407.465L256.357 378.215L254.945 377.15Z" fill="white"/>
<path d="M247.605 387.559L274.05 452.962L280.854 456.142L292.193 461.425C283.112 424.279 295.573 406.961 295.573 406.961L262.736 382.451C262.253 382.632 261.769 382.786 261.259 382.96C254.5 385.192 247.605 387.559 247.605 387.559Z" fill="#545454"/>
<path d="M228.5 446.449L118.134 610.357C116.595 612.641 114.518 614.512 112.087 615.807C109.656 617.101 106.944 617.779 104.189 617.781H56.1302C54.2487 617.781 52.444 617.033 51.1134 615.703C49.7827 614.372 49.0352 612.568 49.0352 610.686C49.0352 608.804 49.7827 606.999 51.1134 605.669C52.444 604.338 54.2487 603.591 56.1302 603.591H78.7955C82.4565 603.591 86.0337 602.498 89.069 600.451C92.1038 598.405 94.4587 595.498 95.8299 592.103L149.75 457.97" fill="#EFEFEF" fill-opacity="0.996078"/>
<path d="M228.5 446.449L118.134 610.357C116.595 612.641 114.518 614.512 112.087 615.807C109.656 617.101 106.944 617.779 104.189 617.781H56.1302C54.2487 617.781 52.444 617.033 51.1134 615.703C49.7827 614.372 49.0352 612.568 49.0352 610.686C49.0352 608.804 49.7827 606.999 51.1134 605.669C52.444 604.338 54.2487 603.591 56.1302 603.591H78.7955C82.4565 603.591 86.0337 602.498 89.069 600.451C92.1038 598.405 94.4587 595.498 95.8299 592.103L149.75 457.97" stroke="#252525" stroke-width="5.14" stroke-miterlimit="10"/>
<path d="M446.052 569.36L445.897 569.206L357.803 480.35C351.783 474.27 344.202 469.968 335.894 467.92C327.587 465.871 318.875 466.155 310.718 468.74L276.03 479.815" stroke="#252525" stroke-width="5.14" stroke-miterlimit="10"/>
<path d="M121.333 529.106L121.643 528.997" stroke="#252525" stroke-width="5.14" stroke-miterlimit="10"/>
<path d="M314.936 547.132L326.443 533.058L345.348 552.628" stroke="#252525" stroke-width="5.14" stroke-miterlimit="10"/>
<path d="M182.666 379.163V379.143" stroke="#252525" stroke-width="5.14" stroke-miterlimit="10"/>
<path d="M106.337 605.03C103.442 604.922 100.544 605.014 97.6617 605.307C95.3074 605.546 92.85 605.687 90.6247 606.784C88.7736 607.7 86.845 609.899 86.9418 612.589C87.1159 617.839 92.6178 617.801 95.6299 617.801" stroke="#252525" stroke-width="5.14" stroke-miterlimit="10"/>
<path d="M105.182 617.78H95.6356H95.5002H66.2752" stroke="#252525" stroke-width="5.14" stroke-miterlimit="10"/>
<path d="M280.745 456.388C280.745 456.388 280.809 456.388 280.835 456.433C281.319 456.698 281.809 456.936 282.312 457.181C285.53 458.765 288.828 460.182 292.193 461.425C300.501 464.541 309.273 466.585 318.129 466.482C324.964 466.406 331.702 464.857 337.884 461.941C344.066 459.025 349.547 454.81 353.952 449.583C360.912 441.34 365.304 431.375 368.555 421.203C371.98 410.464 374.586 399.68 378.83 389.231C381.545 382.581 384.267 375.111 390.117 370.422C393.123 368.036 396.883 367.197 399.863 364.811C403.028 362.266 405.323 358.799 406.429 354.891C406.91 353.207 407.219 351.477 407.352 349.731C407.906 342.836 406.062 335.637 403.798 329.252L415.356 321.473C418.491 319.351 419.871 314.759 418.007 311.463C417.475 310.521 416.745 309.706 415.868 309.073C414.99 308.441 413.986 308.006 412.924 307.799C411.938 307.612 410.924 307.626 409.944 307.842C408.964 308.059 408.038 308.472 407.223 309.057L383.358 326.201C383.358 326.201 381.519 320.261 375.889 322.092C370.632 323.815 351.894 331.174 352.533 353.891C352.622 357.353 351.708 360.767 349.901 363.721L327.501 400.802C325.912 403.421 323.792 405.677 321.279 407.427C318.765 409.176 315.913 410.38 312.906 410.961C309.899 411.54 306.803 411.484 303.819 410.796C300.835 410.107 298.028 408.801 295.58 406.962L262.743 382.452L256.357 377.704L254.809 376.556L246.5 370L254.3 376.163" stroke="#252525" stroke-width="5.14" stroke-miterlimit="10"/>
<path d="M383.299 326.144C383.299 326.144 387.021 335.207 374.186 341.244" stroke="#252525" stroke-width="5.14" stroke-miterlimit="10"/>
<path d="M405.843 336.069C405.843 336.069 407.133 347.034 392.562 351.13C387.402 352.581 383.223 346.615 386.364 342.28L386.519 342.08" stroke="#252525" stroke-width="5.14" stroke-miterlimit="10"/>
<path d="M407.384 349.609C407.384 349.609 402.52 359.136 394.484 358.078C387.389 357.142 389.969 350.209 389.969 350.209" stroke="#252525" stroke-width="5.14" stroke-miterlimit="10"/>
<path d="M403.785 329.193L395.316 334.901" stroke="#252525" stroke-width="5.14" stroke-miterlimit="10"/>
<path d="M128.524 510.788C112.206 505.705 100.667 495.521 95.7519 478.925C91.0434 463.019 94.1072 444.933 108.981 435.607C116.392 431.008 125.145 427.415 129.743 419.54C136.019 408.768 131.788 395.63 133.955 383.974C136.206 371.874 144.346 361.154 154.105 353.969C161.339 348.671 169.749 345.205 178.615 343.868C185.162 342.882 191.122 344.513 195.598 338.708C202.693 329.543 202.745 314.566 202.803 303.53C202.841 295.055 204.841 286.618 209.201 279.349L209.298 279.188C212.757 273.328 217.638 268.434 223.488 264.959C234.453 258.612 249.836 258.025 260.898 264.553C262.477 265.496 263.97 266.575 265.361 267.778C275.584 276.53 280.473 291.32 280.235 304.491" stroke="white" stroke-width="5.14" stroke-miterlimit="10"/>
<path d="M259.459 288.392C260.027 292.262 262.388 295.848 266.554 296.925C271.289 298.125 273.798 302.73 275.126 307.361C277.018 314.152 276.529 321.385 273.74 327.859C271.16 333.948 266.548 340.914 258.756 342.049C244.495 344.081 237.407 338.07 237.407 338.07" stroke="#252525" stroke-width="5.14" stroke-miterlimit="10"/>
<path d="M247.578 309.116C246.224 309.116 245.127 308.019 245.127 306.665C245.127 305.311 246.224 304.214 247.578 304.214C248.932 304.214 250.029 305.311 250.029 306.665C250.029 308.019 248.932 309.116 247.578 309.116Z" fill="#252525"/>
<path d="M269.109 307.496C267.755 307.496 266.658 306.399 266.658 305.045C266.658 303.691 267.755 302.594 269.109 302.594C270.462 302.594 271.56 303.691 271.56 305.045C271.56 306.399 270.462 307.496 269.109 307.496Z" fill="#252525"/>
<path d="M259.221 295.442L256.756 294.713L256.761 294.699L256.765 294.685L259.221 295.442ZM258.795 296.525L256.429 295.522L256.459 295.451L256.493 295.383L258.795 296.525ZM246.14 303.311L246.282 300.745L246.284 300.745L246.14 303.311ZM226.694 308.503L224.178 309.028L224.17 308.989L224.163 308.949L226.694 308.503ZM228.906 315.727L231.284 314.754L231.298 314.786L231.31 314.818L228.906 315.727ZM230.028 336.122H227.458V335.858L227.512 335.6L230.028 336.122ZM230.028 336.167H232.598V336.427L232.546 336.682L230.028 336.167ZM197.344 366.427C196.003 366.894 194.539 366.185 194.073 364.844C193.606 363.503 194.315 362.039 195.656 361.573L197.344 366.427ZM261.961 287.804C262.613 290.577 262.516 293.474 261.677 296.198L256.765 294.685C257.335 292.835 257.401 290.865 256.958 288.98L261.961 287.804ZM261.685 296.171C261.533 296.687 261.336 297.188 261.097 297.668L256.493 295.383C256.6 295.166 256.689 294.942 256.756 294.713L261.685 296.171ZM261.161 297.529C260.124 299.973 258.372 302.214 255.781 303.769C253.19 305.323 249.92 306.097 245.996 305.877L246.284 300.745C249.365 300.918 251.575 300.298 253.136 299.361C254.697 298.425 255.77 297.077 256.429 295.522L261.161 297.529ZM245.998 305.877C242.133 305.663 239.004 305.446 236.395 305.345C233.768 305.243 231.932 305.274 230.662 305.488C230.044 305.592 229.671 305.723 229.456 305.834C229.265 305.932 229.227 305.997 229.22 306.008C229.188 306.057 228.949 306.494 229.225 308.057L224.163 308.949C223.819 306.996 223.795 304.922 224.911 303.206C226.067 301.429 227.981 300.727 229.807 300.419C231.648 300.109 233.953 300.106 236.594 300.209C239.255 300.312 242.524 300.536 246.282 300.745L245.998 305.877ZM229.209 307.977C229.693 310.295 230.388 312.562 231.284 314.754L226.527 316.7C225.512 314.219 224.726 311.652 224.178 309.028L229.209 307.977ZM231.31 314.818C233.156 319.702 234.368 327.848 232.545 336.644L227.512 335.6C229.133 327.781 228.01 320.627 226.502 316.635L231.31 314.818ZM232.598 336.122V336.167H227.458V336.122H232.598ZM232.546 336.682C231.369 342.44 226.367 348.498 220.106 353.644C213.731 358.883 205.58 363.564 197.344 366.427L195.656 361.573C203.3 358.915 210.92 354.54 216.842 349.673C222.878 344.712 226.701 339.614 227.51 335.652L232.546 336.682Z" fill="#252525"/>
<path d="M258.119 307.258C258.119 307.258 260.699 316.662 260.434 318.049C260.17 319.436 256.88 318.365 256.88 318.365" stroke="#252525" stroke-width="5.14" stroke-miterlimit="10"/>
<path d="M256.345 326.975C251.423 329.633 245.722 327.956 243.49 323.511" stroke="#252525" stroke-width="5.14" stroke-miterlimit="10"/>
<path d="M235.523 316.422C231.29 311.938 231.581 304.788 236.174 300.453C240.767 296.117 247.922 296.238 252.154 300.721C256.387 305.205 256.095 312.355 251.503 316.691C246.91 321.026 239.755 320.906 235.523 316.422Z" stroke="#252525" stroke-width="5.14" stroke-miterlimit="10"/>
<path d="M264.082 313.804C259.849 309.32 260.141 302.17 264.734 297.835C269.327 293.499 276.481 293.62 280.714 298.104C284.947 302.588 284.655 309.737 280.062 314.073C275.47 318.408 268.315 318.288 264.082 313.804Z" stroke="#252525" stroke-width="5.14" stroke-miterlimit="10"/>
<path d="M272.637 298.104C272.398 298.104 272.153 298.104 271.908 298.137C269.813 298.335 267.877 299.339 266.508 300.937C265.139 302.535 264.443 304.601 264.568 306.702C264.682 308.633 265.534 310.446 266.947 311.766C268.359 313.087 270.226 313.814 272.16 313.797C272.405 313.797 272.65 313.784 272.895 313.758C274.989 313.562 276.925 312.559 278.295 310.962C279.664 309.365 280.36 307.299 280.235 305.199C280.122 303.267 279.271 301.452 277.856 300.132C276.441 298.811 274.573 298.084 272.637 298.104ZM272.637 296.447C274.989 296.435 277.256 297.322 278.977 298.926C280.697 300.529 281.74 302.73 281.893 305.077C282.044 307.609 281.206 310.101 279.555 312.026C277.903 313.952 275.569 315.161 273.043 315.397C272.75 315.428 272.455 315.443 272.16 315.442C269.814 315.452 267.552 314.569 265.835 312.972C264.116 311.375 263.071 309.184 262.91 306.844C262.759 304.312 263.597 301.82 265.248 299.895C266.9 297.969 269.234 296.761 271.76 296.524C272.051 296.493 272.344 296.478 272.637 296.479V296.447Z" fill="white"/>
<path d="M255.125 307.529L261.117 306.981" stroke="#252525" stroke-width="5.14" stroke-miterlimit="10"/>
<path d="M244.082 300.485C243.833 300.486 243.583 300.498 243.334 300.524C241.179 300.732 239.187 301.766 237.777 303.41C236.366 305.053 235.647 307.179 235.768 309.341C235.889 311.33 236.769 313.197 238.226 314.555C239.683 315.914 241.606 316.661 243.599 316.642C243.844 316.642 244.102 316.642 244.347 316.61C246.504 316.402 248.496 315.367 249.907 313.722C251.317 312.077 252.036 309.95 251.913 307.786C251.792 305.798 250.912 303.931 249.455 302.573C247.998 301.214 246.075 300.467 244.082 300.485ZM244.082 298.827C246.492 298.816 248.815 299.724 250.578 301.368C252.34 303.011 253.408 305.266 253.564 307.67C253.725 310.266 252.868 312.822 251.177 314.798C249.485 316.774 247.091 318.013 244.502 318.255C244.202 318.286 243.9 318.301 243.599 318.3C241.189 318.312 238.866 317.403 237.104 315.76C235.341 314.116 234.273 311.861 234.117 309.457C233.957 306.867 234.808 304.314 236.493 302.34C238.177 300.365 240.563 299.122 243.147 298.872C243.447 298.841 243.749 298.827 244.05 298.827H244.082Z" fill="white"/>
<path d="M265.264 312.688C261.632 308.842 261.883 302.708 265.823 298.989C269.763 295.269 275.9 295.373 279.532 299.219C283.163 303.066 282.913 309.199 278.973 312.919C275.033 316.638 268.895 316.535 265.264 312.688Z" fill="#F2F2F2"/>
<path d="M236.664 315.33C233.015 311.466 233.266 305.303 237.224 301.567C241.183 297.831 247.349 297.935 250.997 301.8C254.646 305.664 254.394 311.826 250.436 315.563C246.478 319.299 240.312 319.195 236.664 315.33Z" fill="#F2F2F2"/>
<path d="M247.572 372.61L250.913 358.181L254.538 342.629" stroke="#252525" stroke-width="5.14" stroke-miterlimit="10"/>
<path d="M34.9997 617.755H607.282" stroke="#252525" stroke-width="5.14" stroke-miterlimit="10"/>
<path d="M115.014 188.111C118.26 203.823 116.116 219.201 108.23 223.681C100.452 228.069 87.0311 221.568 75.2716 211.891C63.6198 202.122 53.7206 189.284 57.2343 176.826C60.756 164.269 77.6745 152.291 90.4603 154.226C103.238 156.26 111.767 172.399 115.014 188.111Z" fill="#F1C21B"/>
<path d="M195.14 26.076C216.149 29.2431 240.242 42.357 240.685 55.4964C241.213 68.6877 218.177 81.9565 192.613 93.222C167.102 104.402 139.115 113.494 129.564 103.597C120.014 93.7013 128.987 64.8694 142.478 47.0896C156.054 29.3617 174.046 22.8569 195.14 26.076Z" fill="#17A1FA"/>
<path d="M354.459 77.5002C354.075 93.5396 348.515 108.036 339.822 110.62C331.254 113.14 319.647 103.778 310.375 91.6955C301.229 79.5484 294.483 64.8072 300.718 53.4641C306.984 42.0258 326.169 34.1761 338.188 38.9472C350.177 43.8135 354.843 61.4608 354.459 77.5002Z" fill="#FF0066"/>
<path d="M465.733 149.533C448.889 143.807 445.136 114.115 440.751 84.9973C436.366 55.8799 431.349 27.3372 446.091 16.3585C460.787 5.46867 495.197 12.2319 514.529 32.1616C533.814 52.1804 538.065 85.5004 525.223 111.169C512.425 136.972 482.578 155.258 465.733 149.533Z" fill="#17A1FA"/>
</g>
<defs>
<clipPath id="clip0_4350_11320">
<rect width="645" height="645" fill="white" transform="matrix(-1 0 0 1 645 0)"/>
</clipPath>
</defs>
</svg>
