<svg width="25" height="25" viewBox="0 0 25 25" fill="none" xmlns="http://www.w3.org/2000/svg">
<g id="Group Icon">
<path id="Vector" d="M12.5 10.5C14.7091 10.5 16.5 8.70914 16.5 6.5C16.5 4.29086 14.7091 2.5 12.5 2.5C10.2909 2.5 8.5 4.29086 8.5 6.5C8.5 8.70914 10.2909 10.5 12.5 10.5Z" stroke="#111A26" stroke-width="1.5"/>
<path id="Vector_2" d="M18.5 9.5C20.1569 9.5 21.5 8.38071 21.5 7C21.5 5.61929 20.1569 4.5 18.5 4.5" stroke="#111A26" stroke-width="1.5" stroke-linecap="round"/>
<path id="Vector_3" d="M6.5 9.5C4.84315 9.5 3.5 8.38071 3.5 7C3.5 5.61929 4.84315 4.5 6.5 4.5" stroke="#111A26" stroke-width="1.5" stroke-linecap="round"/>
<path id="Vector_4" d="M12.5 21.5C15.8137 21.5 18.5 19.7091 18.5 17.5C18.5 15.2909 15.8137 13.5 12.5 13.5C9.18629 13.5 6.5 15.2909 6.5 17.5C6.5 19.7091 9.18629 21.5 12.5 21.5Z" stroke="#111A26" stroke-width="1.5"/>
<path id="Vector_5" d="M20.5 19.5C22.2542 19.1153 23.5 18.1411 23.5 17C23.5 15.8589 22.2542 14.8847 20.5 14.5" stroke="#111A26" stroke-width="1.5" stroke-linecap="round"/>
<path id="Vector_6" d="M4.5 19.5C2.74575 19.1153 1.5 18.1411 1.5 17C1.5 15.8589 2.74575 14.8847 4.5 14.5" stroke="#111A26" stroke-width="1.5" stroke-linecap="round"/>
</g>
</svg>
