<svg width="31" height="30" viewBox="0 0 31 30" fill="none" xmlns="http://www.w3.org/2000/svg">
<g id="File Icon">
<path id="Vector" d="M17.8333 26.5625H12.8333V28.4375H17.8333V26.5625ZM3.77075 17.5V12.5H1.89575V17.5H3.77075ZM26.8958 16.9536V17.5H28.7708V16.9536H26.8958ZM18.9473 5.7639L23.8958 10.2175L25.15 8.82384L20.2016 4.37022L18.9473 5.7639ZM28.7708 16.9536C28.7708 14.8431 28.7896 13.5069 28.2571 12.3112L26.5444 13.074C26.8769 13.8206 26.8958 14.6775 26.8958 16.9536H28.7708ZM23.8958 10.2175C25.5875 11.7401 26.2119 12.3275 26.5444 13.074L28.2571 12.3112C27.7246 11.1155 26.7187 10.2357 25.15 8.82384L23.8958 10.2175ZM12.8705 3.4375C14.8478 3.4375 15.5939 3.45197 16.2589 3.70716L16.9306 1.95662C15.8659 1.54802 14.7058 1.5625 12.8705 1.5625V3.4375ZM20.2016 4.37022C18.8441 3.14847 17.9954 2.36517 16.9306 1.95662L16.2589 3.70716C16.9241 3.96241 17.4851 4.44795 18.9473 5.7639L20.2016 4.37022ZM12.8333 26.5625C10.4497 26.5625 8.75639 26.5605 7.47181 26.3878C6.2142 26.2188 5.48964 25.9016 4.96063 25.3726L3.6348 26.6985C4.57026 27.6339 5.75644 28.049 7.22198 28.2461C8.66053 28.4395 10.5027 28.4375 12.8333 28.4375V26.5625ZM1.89575 17.5C1.89575 19.8305 1.89377 21.6728 2.08717 23.1112C2.2842 24.5767 2.69935 25.763 3.6348 26.6985L4.96063 25.3726C4.43162 24.8436 4.11453 24.119 3.94545 22.8615C3.77274 21.5769 3.77075 19.8835 3.77075 17.5H1.89575ZM17.8333 28.4375C20.1638 28.4375 22.006 28.4395 23.4445 28.2461C24.91 28.049 26.0963 27.6339 27.0317 26.6985L25.7059 25.3726C25.1769 25.9016 24.4522 26.2188 23.1947 26.3878C21.9101 26.5605 20.2168 26.5625 17.8333 26.5625V28.4375ZM26.8958 17.5C26.8958 19.8835 26.8938 21.5769 26.721 22.8615C26.552 24.119 26.2349 24.8436 25.7059 25.3726L27.0317 26.6985C27.9671 25.763 28.3822 24.5767 28.5794 23.1112C28.7728 21.6728 28.7708 19.8305 28.7708 17.5H26.8958ZM3.77075 12.5C3.77075 10.1165 3.77274 8.42314 3.94545 7.13856C4.11453 5.88095 4.43162 5.15639 4.96063 4.62737L3.6348 3.30155C2.69935 4.23701 2.2842 5.42319 2.08717 6.88872C1.89377 8.32727 1.89575 10.1695 1.89575 12.5H3.77075ZM12.8705 1.5625C10.5275 1.5625 8.67628 1.56052 7.23184 1.75384C5.76115 1.95067 4.57099 2.36537 3.6348 3.30155L4.96063 4.62737C5.48891 4.0991 6.2157 3.78156 7.48056 3.61227C8.77169 3.43947 10.4746 3.4375 12.8705 3.4375V1.5625Z" fill="#111A26"/>
<path id="Vector_2" d="M7.83325 18.125H17.8333" stroke="#111A26" stroke-width="1.5" stroke-linecap="round"/>
<path id="Vector_3" d="M7.83325 22.5H14.7083" stroke="#111A26" stroke-width="1.5" stroke-linecap="round"/>
<path id="Vector_4" d="M16.5833 3.125V6.25C16.5833 9.19627 16.5833 10.6694 17.4985 11.5847C18.4139 12.5 19.887 12.5 22.8333 12.5H27.8333" stroke="#111A26" stroke-width="1.5"/>
</g>
</svg>
