<svg width="30" height="30" viewBox="0 0 30 30" fill="none" xmlns="http://www.w3.org/2000/svg">
<g id="Notebook Icon">
<path id="Vector" d="M3.4375 20.1796V6.2474H1.5625V20.1796H3.4375ZM28.4375 20.1796V6.16665H26.5625V20.1796H28.4375ZM25.0699 2.8354C23.6469 2.88497 21.787 3.03299 20.3561 3.46134L20.8939 5.25757C22.0804 4.90239 23.7365 4.75799 25.1351 4.70926L25.0699 2.8354ZM20.3561 3.46134C19.1124 3.8337 17.7132 4.561 16.6227 5.19219L17.5619 6.815C18.625 6.19976 19.8686 5.56451 20.8939 5.25757L20.3561 3.46134ZM4.92049 4.7795C6.12797 4.85371 7.49554 4.99802 8.5108 5.26592L8.9892 3.45299C7.78819 3.13606 6.26896 2.98384 5.03551 2.90802L4.92049 4.7795ZM8.5108 5.26592C9.71345 5.58329 11.1936 6.2776 12.4146 6.92325L13.291 5.26571C12.0467 4.60772 10.4096 3.8278 8.9892 3.45299L8.5108 5.26592ZM17.4755 25.914C18.7143 25.2536 20.2485 24.5257 21.4893 24.1984L21.0107 22.3854C19.5479 22.7714 17.8534 23.5877 16.5935 24.2594L17.4755 25.914ZM21.4893 24.1984C22.4929 23.9335 23.8415 23.7892 25.04 23.7144L24.9229 21.843C23.6977 21.9196 22.1989 22.0719 21.0107 22.3854L21.4893 24.1984ZM13.4065 24.2594C12.1466 23.5877 10.4521 22.7714 8.9892 22.3854L8.5108 24.1984C9.7515 24.5257 11.2857 25.2536 12.5245 25.914L13.4065 24.2594ZM8.9892 22.3854C7.80115 22.0719 6.3022 21.9196 5.0771 21.843L4.96005 23.7144C6.1585 23.7892 7.50707 23.9335 8.5108 24.1984L8.9892 22.3854ZM26.5625 20.1796C26.5625 21.0369 25.8521 21.7849 24.9229 21.843L25.04 23.7144C26.8827 23.5991 28.4375 22.0999 28.4375 20.1796H26.5625ZM28.4375 6.16665C28.4375 4.33751 26.9809 2.76884 25.0699 2.8354L25.1351 4.70926C25.9036 4.6825 26.5625 5.31466 26.5625 6.16665H28.4375ZM1.5625 20.1796C1.5625 22.0999 3.11723 23.5991 4.96005 23.7144L5.0771 21.843C4.14789 21.7849 3.4375 21.0369 3.4375 20.1796H1.5625ZM16.5935 24.2594C15.6031 24.7874 14.3969 24.7874 13.4065 24.2594L12.5245 25.914C14.0661 26.7357 15.9339 26.7357 17.4755 25.914L16.5935 24.2594ZM16.6227 5.19219C15.6001 5.78401 14.3271 5.81354 13.291 5.26571L12.4146 6.92325C14.0299 7.77736 15.9888 7.72546 17.5619 6.815L16.6227 5.19219ZM3.4375 6.2474C3.4375 5.37592 4.12804 4.73079 4.92049 4.7795L5.03551 2.90802C3.08771 2.78831 1.5625 4.37346 1.5625 6.2474H3.4375Z" fill="#111A26"/>
<path id="Vector_2" d="M15 6.87561V25.6256" stroke="#111A26" stroke-width="1.5"/>
</g>
</svg>
