<svg width="31" height="30" viewBox="0 0 31 30" fill="none" xmlns="http://www.w3.org/2000/svg">
<g id="Money Icon">
<path id="Vector" d="M22.6979 26.2503C23.4999 25.5374 24.7084 25.5374 25.5104 26.2503C26.0553 26.7345 26.9166 26.3478 26.9166 25.6188V4.38149C26.9166 3.65245 26.0553 3.26564 25.5104 3.74999C24.7084 4.46286 23.4999 4.46286 22.6979 3.74999C21.8959 3.03711 20.6874 3.03711 19.8854 3.74999C19.0834 4.46286 17.8749 4.46286 17.0729 3.74999C16.2709 3.03711 15.0624 3.03711 14.2604 3.74999C13.4584 4.46286 12.2499 4.46286 11.4479 3.74999C10.6459 3.03711 9.43736 3.03711 8.63538 3.74999C7.83339 4.46286 6.62486 4.46286 5.82288 3.74999C5.27799 3.26564 4.41663 3.65245 4.41663 4.38149V25.6188C4.41663 26.3478 5.27799 26.7345 5.82288 26.2503C6.62486 25.5374 7.83339 25.5374 8.63538 26.2503C9.43736 26.9631 10.6459 26.9631 11.4479 26.2503C12.2499 25.5374 13.4584 25.5374 14.2604 26.2503C15.0624 26.9631 16.2709 26.9631 17.0729 26.2503C17.8749 25.5374 19.0834 25.5374 19.8854 26.2503C20.6874 26.9631 21.8959 26.9631 22.6979 26.2503Z" stroke="#111A26" stroke-width="1.5"/>
<path id="Vector_2" d="M10.0416 19.375H21.2916" stroke="#111A26" stroke-width="1.5" stroke-linecap="round"/>
<path id="Vector_3" d="M10.0416 15H21.2916" stroke="#111A26" stroke-width="1.5" stroke-linecap="round"/>
<path id="Vector_4" d="M10.0416 10.625H21.2916" stroke="#111A26" stroke-width="1.5" stroke-linecap="round"/>
</g>
</svg>
