<svg width="24" height="24" viewBox="0 0 24 24" fill="none" xmlns="http://www.w3.org/2000/svg">
<g id="Linear / Files / File Text">
<path id="Vector" d="M9.5 21.7499C7.85866 21.7487 6.61664 21.7365 5.64426 21.6057C5.64424 21.6057 5.64423 21.6057 5.64421 21.6057L5.71085 21.1102L9.5 21.7499ZM9.5 21.7499V22.2499V21.7499ZM18.4224 22.1013C17.4132 22.237 16.1357 22.2489 14.5 22.2499V21.7499C16.1413 21.7487 17.3834 21.7365 18.3558 21.6057M18.4224 22.1013L18.489 22.5969M18.4224 22.1013C18.4224 22.1013 18.4224 22.1014 18.4223 22.1014L18.489 22.5969M18.4224 22.1013C19.3297 21.9793 20.0449 21.7545 20.6244 21.3315L20.2657 20.9728C19.7866 21.3019 19.1792 21.4951 18.3558 21.6057M18.489 22.5969C17.4431 22.7375 16.1303 22.749 14.5 22.7499L20.9817 21.6888C20.2991 22.2095 19.4727 22.4646 18.489 22.5969ZM18.3558 21.6057L18.2892 21.1102M18.3558 21.6057C18.3558 21.6057 18.3558 21.6057 18.3558 21.6057L18.2892 21.1102M18.2892 21.1102C19.0166 21.0124 19.5211 20.8527 19.9047 20.6118M18.2892 21.1102L19.9047 20.6118M19.9047 20.6118L19.9445 20.6516L19.9047 20.6118ZM21.6057 18.3558C21.4951 19.1792 21.3019 19.7866 20.9728 20.2657L20.6517 19.9445L20.6118 19.9047L21.7499 14.5C21.7487 16.1413 21.7365 17.3834 21.6057 18.3558ZM21.6057 18.3558C21.6057 18.3558 21.6057 18.3558 21.6057 18.3558L21.1102 18.2892L21.6057 18.3558ZM22.1014 18.4224C22.237 17.4132 22.2489 16.1357 22.2499 14.5L22.1014 18.4223C22.1014 18.4223 22.1014 18.4224 22.1014 18.4224ZM22.1014 18.4224C21.9793 19.3297 21.7545 20.0449 21.3315 20.6244L22.1014 18.4224ZM22.0508 10.5247C22.2285 11.1688 22.2477 11.9311 22.2498 13.0629H21.7496C21.7468 11.9638 21.7272 11.2807 21.5887 10.7305L22.0508 10.5247ZM19.5558 8.13717L19.8904 7.76537C20.7303 8.52399 21.2841 9.04821 21.644 9.61118L21.1818 9.81703C20.8655 9.34606 20.3709 8.87444 19.5558 8.13717ZM13.3707 2.71896L13.552 2.24668C14.0339 2.51885 14.5127 2.92831 15.1884 3.53356L14.8537 3.90537C14.2044 3.32445 13.7748 2.95864 13.3707 2.71896ZM15.5973 4.57395L15.9319 4.20229L19.1473 7.09623L18.8128 7.46787L15.5973 4.57395ZM12.6183 1.88853L12.4371 2.36083C11.9748 2.26855 11.4072 2.25307 10.5298 2.2505V1.75029C11.4429 1.75237 12.0764 1.76827 12.6183 1.88853ZM9.5298 2.25011C7.87851 2.25124 6.62903 2.2634 5.65152 2.39423C4.82398 2.50499 4.21427 2.69827 3.73442 3.02731L3.37571 2.66859C3.95613 2.24538 4.67388 2.02061 5.5852 1.89864C6.59939 1.76291 7.88417 1.75111 9.5298 1.75009V2.25011ZM1.75 13.5V10.5H2.25V13.5H1.75ZM1.7501 14.5H2.25012C2.25126 16.1413 2.26348 17.3834 2.39422 18.3558L2.88976 18.2892L2.39422 18.3558C2.50492 19.1792 2.69811 19.7866 3.02717 20.2657L2.66849 20.6244C2.24548 20.0449 2.02067 19.3297 1.89867 18.4224C1.76299 17.4132 1.75113 16.1357 1.7501 14.5ZM3.3756 21.3315L3.73428 20.9728L9.5 22.7499C7.86967 22.749 6.55695 22.7375 5.51098 22.5969L5.57763 22.1014C5.57762 22.1014 5.57761 22.1013 5.57759 22.1013C4.67021 21.9793 3.95506 21.7545 3.3756 21.3315ZM13.5 22.25H10.5V21.75H13.5V22.25ZM2.25012 9.49999H1.7501C1.75113 7.86425 1.76299 6.5868 1.89867 5.57759C2.02067 4.67021 2.24547 3.95505 2.66849 3.37558L3.02716 3.73426C2.69811 4.21337 2.50492 4.82079 2.39422 5.64421C2.26348 6.61659 2.25126 7.85863 2.25012 9.49999Z" fill="#EEFFEE" fill-opacity="0.996078" stroke="#EEFFEE"/>
<path id="Vector_2" d="M6 14.5H14" stroke="#EEFFEE" stroke-width="1.5" stroke-linecap="round"/>
<path id="Vector_3" d="M6 18H11.5" stroke="#EEFFEE" stroke-opacity="0.996078" stroke-width="1.5" stroke-linecap="round"/>
<path id="Vector_4" d="M13 2.5V5C13 7.35702 13 8.53553 13.7322 9.26777C14.4645 10 15.643 10 18 10H22" stroke="#EEFFEE" stroke-opacity="0.996078" stroke-width="1.5"/>
</g>
</svg>
